<svg width="506" height="371" viewBox="0 0 506 371" fill="none" xmlns="http://www.w3.org/2000/svg">
<path fill-rule="evenodd" clip-rule="evenodd" d="M505 256.671H484.286V285.729H505V256.671Z" fill="#EEEEEE"/>
<path fill-rule="evenodd" clip-rule="evenodd" d="M505 324.471H368.057V353.529H505V324.471Z" fill="#EEEEEE"/>
<path fill-rule="evenodd" clip-rule="evenodd" d="M339 232.457C380.557 232.457 416.557 256.25 434.121 290.956L399.573 291.329C385.459 273.42 363.572 261.921 339 261.921C296.431 261.921 261.921 296.431 261.921 339C261.921 349.258 263.925 359.048 267.563 368H236.451C233.849 358.78 232.457 349.053 232.457 339C232.457 280.158 280.158 232.457 339 232.457Z" fill="#EEEEEE"/>
<path fill-rule="evenodd" clip-rule="evenodd" d="M339 164.657C416.708 164.657 482.541 215.497 505.054 285.729L471.789 285.729C450.662 233.113 399.17 195.962 339 195.962C260.002 195.962 195.962 260.002 195.962 339C195.962 348.936 196.975 358.635 198.903 368H167.058C165.479 358.568 164.657 348.88 164.657 339C164.657 242.713 242.713 164.657 339 164.657Z" fill="#EEEEEE"/>
<path fill-rule="evenodd" clip-rule="evenodd" d="M375.351 371C382.868 362.467 387.428 351.266 387.428 339C387.428 312.253 365.746 290.571 339 290.571C312.253 290.571 290.571 312.253 290.571 339C290.571 351.266 295.132 362.467 302.649 371H375.351ZM339 365.484C324.373 365.484 312.516 353.627 312.516 339C312.516 324.373 324.373 312.516 339 312.516C353.627 312.516 365.484 324.373 365.484 339C365.484 353.627 353.627 365.484 339 365.484Z" fill="#EEEEEE"/>
<path fill-rule="evenodd" clip-rule="evenodd" d="M377.743 0H300.257L294.453 81.2647C278.672 83.9729 263.375 88.0952 248.696 93.4964L203.053 26.0457L135.948 64.7886L171.57 138.101C159.433 148.227 148.228 159.432 138.102 171.569L64.7886 135.947L26.0457 203.052L93.4967 248.695C88.0953 263.374 83.973 278.672 81.2647 294.453L0 300.257V371H138.222C136.573 360.576 135.717 349.888 135.717 339C135.717 226.73 226.73 135.717 339 135.717C407.552 135.717 468.179 169.65 505 221.635V43.3962L474.948 26.0457L429.305 93.4967C414.626 88.0953 399.328 83.973 383.547 81.2647L377.743 0Z" fill="#EEEEEE"/>
</svg>
