<?xml version="1.0" encoding="utf-8"?><svg viewBox="0 0 930 678" xmlns="http://www.w3.org/2000/svg" xmlns:xlink="http://www.w3.org/1999/xlink"><style>:root>svg{display:none}:root>svg:target{display:block}</style><svg version="1.1" id="administratum" x="0" y="0" viewBox="0 0 67.3 67.4" xml:space="preserve" xmlns="http://www.w3.org/2000/svg"><style>.aast0{fill:#2fd385}.aast1,.aast2{fill:#32428b}.aast2{fill-rule:evenodd;clip-rule:evenodd}.aast3,.aast4{fill:none;stroke:#2fd385;stroke-width:2.6633}.aast4{stroke:#32428b}</style><path class="aast0" d="M38.1 33.8c0 2.5-2 4.4-4.4 4.4s-4.4-2-4.4-4.4 2-4.4 4.4-4.4 4.4 1.9 4.4 4.4zm-6.9 0c0 1.3 1.1 2.4 2.4 2.4s2.4-1.1 2.4-2.4-1.1-2.4-2.4-2.4c-1.3-.1-2.4 1-2.4 2.4z"/><path class="aast1" d="M63.1 9.2c-1.4 1.4-3.6 1.4-5 0s-1.4-3.6 0-5 3.6-1.4 5 0 1.4 3.6 0 5zm-3.4-3.5c-.5.5-.5 1.4 0 1.9s1.4.5 1.9 0 .5-1.4 0-1.9-1.4-.5-1.9 0zM58.1 63.2c-1.4-1.4-1.4-3.6 0-5s3.6-1.4 5 0 1.4 3.6 0 5-3.6 1.4-5 0zm3.5-3.5c-.5-.5-1.4-.5-1.9 0s-.5 1.4 0 1.9 1.4.5 1.9 0 .5-1.3 0-1.9zM9.2 63.2c1.4-1.4 1.4-3.6 0-5s-3.6-1.4-5 0-1.4 3.6 0 5c1.3 1.4 3.6 1.4 5 0zm-3.5-3.5c.5-.5 1.4-.5 1.9 0s.5 1.4 0 1.9-1.4.5-1.9 0-.5-1.3 0-1.9zM4.1 9.2c1.4 1.4 3.6 1.4 5 0s1.4-3.6 0-5-3.6-1.4-5 0-1.4 3.6 0 5zm3.5-3.5c.5.5.5 1.4 0 1.9-.5.6-1.4.6-1.9 0-.5-.5-.5-1.3 0-1.9s1.4-.5 1.9 0zM66.3 29.9c-1.4 1.4-3.6 1.4-5 0s-1.4-3.6 0-5 3.6-1.4 5 0 1.4 3.6 0 5zm-3.5-3.5c-.5.5-.5 1.4 0 1.9s1.4.5 1.9 0 .5-1.4 0-1.9-1.4-.5-1.9 0zM37.4 66.3c-1.4-1.4-1.4-3.6 0-5s3.6-1.4 5 0 1.4 3.6 0 5-3.6 1.4-5 0zm3.5-3.4c-.5-.5-1.4-.5-1.9 0s-.5 1.4 0 1.9 1.4.5 1.9 0c.5-.6.5-1.4 0-1.9zM29.9 66.3c1.4-1.4 1.4-3.6 0-5s-3.6-1.4-5 0-1.4 3.6 0 5c1.3 1.4 3.6 1.4 5 0zm-3.5-3.4c.5-.5 1.4-.5 1.9 0s.5 1.4 0 1.9-1.4.5-1.9 0c-.5-.6-.5-1.4 0-1.9zM1 29.9c1.4 1.4 3.6 1.4 5 0s1.4-3.6 0-5-3.6-1.4-5 0-1.4 3.6 0 5zm3.5-3.5c.5.5.5 1.4 0 1.9s-1.4.5-1.9 0-.5-1.4 0-1.9 1.3-.5 1.9 0zM37.4 1c-1.4 1.4-1.4 3.6 0 5s3.6 1.4 5 0 1.4-3.6 0-5c-1.4-1.3-3.6-1.3-5 0zm3.5 3.5c-.5.5-1.4.5-1.9 0s-.5-1.4 0-1.9 1.4-.5 1.9 0 .5 1.4 0 1.9zM66.3 37.4c-1.4-1.4-3.6-1.4-5 0s-1.4 3.6 0 5 3.6 1.4 5 0c1.4-1.3 1.4-3.6 0-5zm-3.5 3.5c-.5-.5-.5-1.4 0-1.9s1.4-.5 1.9 0 .5 1.4 0 1.9-1.4.5-1.9 0zM1 37.4c1.4-1.4 3.6-1.4 5 0s1.4 3.6 0 5-3.6 1.4-5 0c-1.4-1.3-1.4-3.6 0-5zm3.5 3.5c.5-.5.5-1.4 0-1.9s-1.4-.5-1.9 0-.5 1.4 0 1.9 1.3.5 1.9 0zM29.9 1c1.4 1.4 1.4 3.6 0 5s-3.6 1.4-5 0-1.4-3.6 0-5c1.3-1.3 3.6-1.3 5 0zm-3.5 3.5c.5.5 1.4.5 1.9 0s.5-1.4 0-1.9-1.4-.5-1.9 0-.5 1.4 0 1.9z"/><path class="aast0" d="M65 18.6c-1.4 1.4-3.6 1.4-5 0s-1.4-3.6 0-5 3.6-1.4 5 0 1.4 3.6 0 5zm-3.4-3.4c-.5.5-.5 1.4 0 1.9s1.4.5 1.9 0 .5-1.4 0-1.9c-.6-.6-1.4-.6-1.9 0zM48.7 65.1c-1.4-1.4-1.4-3.6 0-5s3.6-1.4 5 0 1.4 3.6 0 5-3.6 1.4-5 0zm3.5-3.5c-.5-.5-1.4-.5-1.9 0s-.5 1.4 0 1.9 1.4.5 1.9 0 .5-1.4 0-1.9zM18.6 65.1c1.4-1.4 1.4-3.6 0-5s-3.6-1.4-5 0-1.4 3.6 0 5c1.3 1.4 3.6 1.4 5 0zm-3.5-3.5c.5-.5 1.4-.5 1.9 0s.5 1.4 0 1.9-1.4.5-1.9 0-.5-1.4 0-1.9zM2.2 18.6c1.4 1.4 3.6 1.4 5 0s1.4-3.6 0-5-3.6-1.4-5 0-1.3 3.6 0 5zm3.5-3.4c.5.5.5 1.4 0 1.9s-1.4.5-1.9 0-.5-1.4 0-1.9c.5-.6 1.4-.6 1.9 0zM48.7 2.3c-1.4 1.4-1.4 3.6 0 5s3.6 1.4 5 0 1.4-3.6 0-5-3.6-1.4-5 0zm3.5 3.5c-.5.5-1.4.5-1.9 0s-.5-1.4 0-1.9 1.4-.5 1.9 0 .5 1.3 0 1.9zM65 48.7c-1.4-1.4-3.6-1.4-5 0s-1.4 3.6 0 5 3.6 1.4 5 0c1.4-1.3 1.4-3.6 0-5zm-3.4 3.5c-.5-.5-.5-1.4 0-1.9s1.4-.5 1.9 0 .5 1.4 0 1.9c-.6.5-1.4.5-1.9 0zM2.2 48.7c1.4-1.4 3.6-1.4 5 0s1.4 3.6 0 5-3.6 1.4-5 0c-1.3-1.3-1.3-3.6 0-5zm3.5 3.5c.5-.5.5-1.4 0-1.9s-1.4-.5-1.9 0-.5 1.4 0 1.9 1.4.5 1.9 0zM18.6 2.3c1.4 1.4 1.4 3.6 0 5s-3.6 1.4-5 0-1.4-3.6 0-5c1.3-1.4 3.6-1.4 5 0zm-3.5 3.5c.5.5 1.4.5 1.9 0s.5-1.4 0-1.9-1.4-.5-1.9 0-.5 1.3 0 1.9z"/><path class="aast1" d="M32 19.4h3.3l.4 5.7c-1.6-.2-2.5-.2-4.1 0l.4-5.7z"/><path class="aast1" d="M32 19.4h3.3l.4 5.7c-1.6-.2-2.5-.2-4.1 0l.4-5.7zM45.2 25.1l1.6 2.8-4.7 3.2c-.6-1.5-1-2.3-2-3.5l5.1-2.5zM47.9 32.1v3.3l-5.7.3c.2-1.6.2-2.5 0-4.1l5.7.5zM46.8 39.4l-1.6 2.8-5.1-2.5c1-1.3 1.4-2 2-3.5l4.7 3.2zM39.4 20.5l2.8 1.6-2.5 5.1c-1.3-1-2-1.4-3.5-2l3.2-4.7zM42.2 45.2l-2.8 1.6-3.2-4.7c1.5-.6 2.3-1 3.5-2l2.5 5.1zM35.3 48H32l-.4-5.7c1.6.2 2.5.2 4.1 0l-.4 5.7zM22.1 42.2l-1.6-2.8 4.7-3.2c.6 1.5 1 2.3 2 3.5l-5.1 2.5zM19.4 35.3V32l5.7-.4c-.2 1.6-.2 2.5 0 4.1l-5.7-.4zM20.5 28l1.6-2.8 5.1 2.5c-1 1.3-1.4 2-2 3.5L20.5 28zM27.9 46.9l-2.8-1.6 2.5-5.1c1.3 1 2 1.4 3.5 2l-3.2 4.7zM25.1 22.1l2.8-1.6 3.2 4.7c-1.5.6-2.3 1-3.5 2l-2.5-5.1z"/><path class="aast2" d="M44.6 33.7c0 6.1-4.9 11-11 11s-11-4.9-11-11 4.9-11 11-11 11 4.9 11 11zm-18.8 0c0 4.3 3.5 7.9 7.9 7.9s7.9-3.5 7.9-7.9c0-4.3-3.5-7.9-7.9-7.9s-7.9 3.5-7.9 7.9z"/><path class="aast1" d="M46.8 18.6l-.9.9 1.9 1.9.9-.9-1.9-1.9zm12.9-9.1l.9-.9-1.9-1.9-.9.9 1.9 1.9zm-11 11l11-11-1.9-1.9-11 11 1.9 1.9zM48.7 46.9l-.9-.9-1.9 1.9.9.9 1.9-1.9zm9.1 12.8l.9.9 1.9-1.9-.9-.9-1.9 1.9zm-11-11l11 11 1.9-1.9-11-11-1.9 1.9zM18.6 46.9l.9-.9 1.9 1.9-.9.9-1.9-1.9zM9.5 59.7l-.9.9-1.9-1.9.9-.9 1.9 1.9zm11-11l-11 11-1.9-1.9 11-11 1.9 1.9zM20.4 18.6l.9.9-1.9 1.9-.9-.9 1.9-1.9zM7.6 9.5l-1-.9 1.9-1.9.9.9-1.8 1.9zm11 11l-11-11 1.9-1.9 11 11-1.9 1.9z"/><path class="aast3" d="M49.3 24.3l4.6-4.6 3.9 1.1 3.5-3.5M43 49.4l4.6 4.6-1.1 3.9 3.5 3.5M24.2 49.4L19.6 54l1.1 3.9-3.5 3.5M17.9 24.3l-4.6-4.6-3.9 1.1-3.5-3.5M43.1 18l4.6-4.6-1.1-3.9L50.1 6M49.3 43.1l4.6 4.6 3.9-1.1 3.4 3.4M17.9 43.1l-4.6 4.6-3.9-1.1L6 50M24.2 18l-4.6-4.6 1.1-3.9L17.2 6"/><path class="aast4" d="M52.5 27.4l2.5-2.5 6.6 2.2M39.9 52.5l2.5 2.5-2.2 6.6M27.4 52.5L24.8 55l2.2 6.6M14.8 27.4l-2.5-2.5-6.6 2.2M39.9 14.9l2.5-2.5-2.2-6.7M52.5 40l2.5 2.5 6.6-2.2M14.8 40l-2.5 2.5-6.6-2.2M27.3 14.9l-2.5-2.5L27 5.8"/><path class="aast3" d="M39 14.5l13.8 13.8c2.9 2.9 2.9 7.7 0 10.7L39 52.8c-2.9 2.9-7.7 2.9-10.7 0L14.5 39c-2.9-2.9-2.9-7.7 0-10.7l13.8-13.8c2.9-2.9 7.7-2.9 10.7 0z"/></svg><svg fill="none" viewBox="0 0 17 12" id="back-arrow" xmlns="http://www.w3.org/2000/svg"><path d="M5.95 1L1 5.95l4.95 4.95M1.5 6H16" stroke="#2FD385" stroke-linecap="round"/></svg><svg version="1.1" id="black_csv" x="0" y="0" viewBox="0 0 78 77" xml:space="preserve" xmlns="http://www.w3.org/2000/svg"><style>.acst0{fill:none;stroke:#000;stroke-width:2}.acst1{fill-rule:evenodd;clip-rule:evenodd}</style><path d="M56.8 0H13.6c-1.3 0-2.3.9-2.3 2v39H16V4.1h40.9v14.2H73v54.6H16v-7.7h-4.7V75c0 1.1 1.1 2 2.3 2h61.8c1.3 0 2.3-.9 2.3-2V18.3L56.8 0z"/><path class="acst0" d="M23 22h41v16H23zM22 30h42M31 21v17.5M39 21v17.5M47.5 21v17.5m8.5-17V39"/><path class="acst1" d="M56.2 43H0v20.2h47.7L56.2 43zM19.4 55.7l-1.8-.7c-.2.8-.4 1.4-.8 1.8-.3.4-.8.6-1.2.6-.7 0-1.2-.3-1.6-.9-.4-.6-.6-1.6-.6-2.9 0-1.3.2-2.3.6-2.9.4-.6 1-.9 1.6-.9.5 0 .9.2 1.2.5s.6.8.7 1.4l1.8-.5c-.2-1-.6-1.7-1.1-2.2-.7-.7-1.5-1-2.5-1-1.2 0-2.2.5-2.9 1.4-.8 1.1-1.3 2.5-1.3 4.4 0 1.8.4 3.2 1.3 4.2.7.9 1.7 1.3 2.8 1.3.9 0 1.7-.3 2.3-.8.8-.7 1.2-1.6 1.5-2.8zm4.2-.5l-1.8.2c.2 2.5 1.5 3.7 3.7 3.7 1.2 0 2.2-.3 2.7-1 .6-.6.9-1.4.9-2.4 0-.7-.1-1.2-.3-1.7-.2-.5-.5-.8-.9-1.1s-1.1-.6-2-.8-1.4-.5-1.6-.7-.4-.5-.4-.8.1-.6.4-.8.6-.3 1.1-.3.9.1 1.1.4c.3.2.4.6.5 1.2l1.8-.1c0-1.1-.3-1.9-.9-2.5s-1.4-.9-2.5-.9c-.7 0-1.3.1-1.8.4s-.9.6-1.1 1.1c-.3.5-.4 1-.4 1.6 0 .5.1 1 .3 1.4.2.4.5.8.9 1.1s.9.5 1.7.8c.9.3 1.4.5 1.6.6s.4.3.5.4c.1.2.2.4.2.6 0 .4-.2.8-.5 1.1s-.7.4-1.3.4c-1 .2-1.7-.5-1.9-1.9zm7.5-7.1L34.3 59h1.9l3.2-10.9h-1.9l-2.2 8.1-2.3-8.1h-1.9z"/></svg><svg version="1.1" id="black_doc" x="0" y="0" viewBox="0 0 78 77" xml:space="preserve" xmlns="http://www.w3.org/2000/svg"><style>.adst0{fill-rule:evenodd;clip-rule:evenodd}</style><path d="M56.8 0H13.6c-1.3 0-2.3.9-2.3 2v39H16V4.1h40.9v14.2H73v54.6H16v-7.7h-4.7V75c0 1.1 1.1 2 2.3 2h61.8c1.3 0 2.3-.9 2.3-2V18.3L56.8 0z"/><path class="adst0" d="M56.2 43H0v20.2h47.7L56.2 43zm-41 5.1h-3.3V59h3.4c.7 0 1.3-.1 1.8-.3s.9-.5 1.2-.9c.3-.4.6-1 .8-1.7.2-.7.3-1.5.3-2.5s-.1-1.9-.3-2.6c-.2-.7-.5-1.3-.8-1.7-.4-.4-.8-.8-1.2-.9-.4-.2-1.1-.3-1.9-.3zm-1.5 9.1V50h.8c.7 0 1.2 0 1.5.1.3.1.6.3.9.5.2.3.4.6.5 1.1s.2 1.1.2 1.9c0 .8-.1 1.4-.2 1.9s-.2.8-.4 1.1c-.2.2-.4.4-.6.5-.3.1-.7.2-1.3.2l-1.4-.1zm8.8-6.8c-.4.8-.6 1.9-.6 3.2 0 1.8.4 3.2 1.3 4.2.8.9 1.8 1.3 3.1 1.3s2.3-.5 3.1-1.4c.9-1 1.3-2.5 1.3-4.3s-.4-3.2-1.2-4.2c-.8-1-1.8-1.5-3.1-1.5-.9 0-1.6.2-2.3.6-.7.6-1.2 1.2-1.6 2.1zm2 6c-.5-.6-.7-1.6-.7-2.8 0-1.3.2-2.2.7-2.8s1.1-.9 1.8-.9 1.3.3 1.8.9c.5.6.7 1.5.7 2.8s-.2 2.3-.7 2.9c-.5.6-1.1.9-1.8.9-.7-.1-1.3-.4-1.8-1zm16.4-.7l-1.7-.7c-.2.8-.4 1.4-.8 1.8-.3.4-.8.6-1.2.6-.7 0-1.2-.3-1.6-.9-.4-.6-.6-1.6-.6-2.9 0-1.3.2-2.3.6-2.9.4-.6 1-.9 1.6-.9.5 0 .9.2 1.2.5s.6.8.7 1.4l1.8-.5c-.2-1-.6-1.7-1.1-2.2-.7-.7-1.5-1-2.5-1-1.2 0-2.2.5-2.9 1.4-.8 1.1-1.3 2.5-1.3 4.4 0 1.8.4 3.2 1.3 4.2.7.9 1.7 1.3 2.8 1.3.9 0 1.7-.3 2.3-.8.7-.7 1.1-1.6 1.4-2.8z"/><path d="M64 24H20v3h44v-3zM64 29H20v3h44v-3zM53 19H20v3h33v-3zM42 14H20v3h22v-3zM64 34H20v3h44v-3z"/></svg><svg version="1.1" id="black_jpg" x="0" y="0" viewBox="0 0 78 77" xml:space="preserve" xmlns="http://www.w3.org/2000/svg"><style>.aest0{fill-rule:evenodd;clip-rule:evenodd}</style><path d="M56.8 0H13.6c-1.3 0-2.3.9-2.3 2v39H16V4.1h40.9v14.2H73v54.6H16v-7.7h-4.7V75c0 1.1 1.1 2 2.3 2h61.8c1.3 0 2.3-.9 2.3-2V18.3L56.8 0z"/><path d="M50 16l13 22H37l13-22z"/><path d="M35.5 20l10 18h-20l10-18z"/><circle cx="26" cy="15" r="4"/><path class="aest0" d="M56.2 43H0v20.2h47.7L56.2 43zM17 48.1h-1.8v7.1c0 .9-.1 1.5-.3 1.8s-.5.4-.8.4c-.4 0-.7-.2-.9-.6-.1-.3-.2-.7-.2-1.4l-1.7.2c0 1.2.3 2.1.7 2.7.5.6 1.2.9 2 .9.7 0 1.2-.1 1.6-.4.4-.3.8-.7 1-1.3.2-.5.3-1.4.3-2.5v-6.9h.1zm3.2 0V59H22v-4.1h1.2c1.1 0 1.9-.1 2.3-.3s.8-.6 1.1-1.1c.3-.5.4-1.2.4-2 0-.9-.2-1.6-.5-2.1-.3-.6-.8-.9-1.3-1.1-.3-.1-1-.2-2.1-.2h-2.9zM22 53v-3.1h.9c.8 0 1.2 0 1.5.1.2.1.4.3.6.5s.2.6.2.9c0 .4-.1.7-.2.9-.2.2-.4.4-.6.5-.2.2-.7.2-1.4.2h-1zm12.1.1V55h2.1v1.4c-.3.3-.6.5-1 .7s-.7.2-1.1.2c-.8 0-1.4-.3-1.8-.9-.5-.7-.8-1.7-.8-3 0-1.2.2-2.1.7-2.7.5-.6 1.1-.9 1.9-.9.5 0 .9.1 1.3.4.4.3.6.7.7 1.3l1.8-.4c-.2-1.1-.6-1.9-1.2-2.4s-1.5-.8-2.6-.8c-.9 0-1.7.2-2.3.6-.6.4-1.2 1.1-1.6 1.9-.4.9-.6 1.9-.6 3.1 0 1.2.2 2.2.6 3.1.4.9.9 1.5 1.6 2 .7.4 1.5.6 2.3.6.7 0 1.4-.2 2.2-.5.7-.3 1.3-.7 1.7-1.2v-4.4h-3.9z"/></svg><svg version="1.1" id="black_pdf" x="0" y="0" viewBox="0 0 78 77" xml:space="preserve" xmlns="http://www.w3.org/2000/svg"><style>.afst0{fill-rule:evenodd;clip-rule:evenodd}</style><path d="M56.8 0H13.6c-1.3 0-2.3.9-2.3 2v39H16V4.1h40.9v14.2H73v54.6H16v-7.7h-4.7V75c0 1.1 1.1 2 2.3 2h61.8c1.3 0 2.3-.9 2.3-2V18.3L56.8 0z"/><path d="M64.2 25H20.5v3h43.7v-3zM57.3 30.7H20.5v3h36.8v-3z"/><path class="afst0" d="M56.2 43H0v20.2h47.7L56.2 43zm-44.3 5.1V59h1.8v-4.1h1.2c1.1 0 1.9-.1 2.3-.3s.8-.6 1.1-1.1c.3-.5.4-1.2.4-2 0-.9-.2-1.6-.5-2.1-.3-.6-.8-.9-1.3-1.1-.3-.1-1-.2-2.1-.2h-2.9zm1.8 4.9v-3.1h.9c.8 0 1.2 0 1.5.1.2.1.4.3.6.5s.2.6.2.9c0 .4-.1.7-.2.9-.2.2-.4.4-.6.5-.3.2-.7.2-1.4.2h-1zm11.2-4.9h-3.3V59H25c.7 0 1.3-.1 1.8-.3s.9-.5 1.2-.9c.3-.4.6-1 .8-1.7.2-.7.3-1.5.3-2.5s-.1-1.9-.3-2.6-.5-1.3-.8-1.7c-.4-.4-.8-.8-1.2-.9-.4-.2-1-.3-1.9-.3zm-1.5 9.1V50h.8c.7 0 1.2 0 1.5.1s.6.3.9.5c.2.3.4.6.5 1.1s.2 1.1.2 1.9c0 .8-.1 1.4-.2 1.9s-.2.8-.4 1.1c-.2.2-.4.4-.6.5-.3.1-.7.2-1.3.2l-1.4-.1zm8.6-9.1V59h1.8v-4.6h3.7v-1.8h-3.7V50h4.3v-1.8H32v-.1z"/></svg><svg version="1.1" id="black_png" x="0" y="0" viewBox="0 0 78 77" xml:space="preserve" xmlns="http://www.w3.org/2000/svg"><style>.agst0{fill-rule:evenodd;clip-rule:evenodd}</style><path d="M56.8 0H13.6c-1.3 0-2.3.9-2.3 2v39H16V4.1h40.9v14.2H73v54.6H16v-7.7h-4.7V75c0 1.1 1.1 2 2.3 2h61.8c1.3 0 2.3-.9 2.3-2V18.3L56.8 0z"/><path d="M50 16l13 22H37l13-22z"/><path d="M35.5 20l10 18h-20l10-18z"/><circle cx="26" cy="15" r="4"/><path class="agst0" d="M56.2 43H0v20.2h47.7L56.2 43zm-44.3 5.1V59h1.8v-4.1h1.2c1.1 0 1.9-.1 2.3-.3s.8-.6 1.1-1.1c.3-.5.4-1.2.4-2 0-.9-.2-1.6-.5-2.1-.3-.6-.8-.9-1.3-1.1-.3-.1-1-.2-2.1-.2h-2.9zm1.8 4.9v-3.1h.9c.8 0 1.2 0 1.5.1.2.1.4.3.6.5s.2.6.2.9c0 .4-.1.7-.2.9-.2.2-.4.4-.6.5-.3.2-.7.2-1.4.2h-1zm8-4.9V59h1.7v-7.1L27 59h1.8V48.1h-1.7v7.3l-3.7-7.3h-1.7zm14.5 5V55h2.1v1.4c-.3.3-.6.5-1 .7s-.7.2-1.1.2c-.8 0-1.4-.3-1.8-.9-.5-.7-.8-1.7-.8-3 0-1.2.2-2.1.7-2.7.5-.6 1.1-.9 1.9-.9.5 0 .9.1 1.3.4.4.3.6.7.7 1.3l1.8-.4c-.2-1.1-.6-1.9-1.2-2.4s-1.5-.8-2.6-.8c-.9 0-1.7.2-2.3.6-.6.4-1.2 1.1-1.6 1.9-.4.9-.6 1.9-.6 3.1 0 1.2.2 2.2.6 3.1.4.9.9 1.5 1.6 2 .7.4 1.5.6 2.3.6.7 0 1.4-.2 2.2-.5.7-.3 1.3-.7 1.7-1.2v-4.4h-3.9z"/></svg><svg version="1.1" id="black_pptx" x="0" y="0" viewBox="0 0 78 77" xml:space="preserve" xmlns="http://www.w3.org/2000/svg"><style>.ahst0{fill-rule:evenodd;clip-rule:evenodd}</style><path d="M56.8 0H13.6c-1.3 0-2.3.9-2.3 2v39H16V4.1h40.9v14.2H73v54.6H16v-7.7h-4.7V75c0 1.1 1.1 2 2.3 2h61.8c1.3 0 2.3-.9 2.3-2V18.3L56.8 0z"/><path class="ahst0" d="M61 43H0v20.2h51.8L61 43zm-49.1 5.1V59h1.8v-4.1h1.2c1.1 0 1.9-.1 2.3-.3s.8-.6 1.1-1.1c.3-.5.4-1.2.4-2 0-.9-.2-1.6-.5-2.1-.3-.6-.8-.9-1.3-1.1-.3-.1-1-.2-2.1-.2h-2.9zm1.8 4.9v-3.1h.9c.8 0 1.2 0 1.5.1.2.1.4.3.6.5s.2.6.2.9c0 .4-.1.7-.2.9-.2.2-.4.4-.6.5-.3.2-.7.2-1.4.2h-1zm7.9-4.9V59h1.8v-4.1h1.2c1.1 0 1.9-.1 2.3-.3s.8-.6 1.1-1.1c.3-.5.4-1.2.4-2 0-.9-.2-1.6-.5-2.1-.3-.6-.8-.9-1.3-1.1-.3-.1-1-.2-2.1-.2h-2.9zm1.8 4.9v-3.1h.9c.8 0 1.2 0 1.5.1.2.1.4.3.6.5s.2.6.2.9c0 .4-.1.7-.2.9-.2.2-.4.4-.6.5-.2.2-.7.2-1.4.2h-1zm10-3.1V59h1.8v-9.1h2.7v-1.8h-7.1v1.8h2.6zm9.1 3.4l-3 5.7h2.2l2-3.8 2 3.8h2.2l-3.1-5.6 2.8-5.3h-2.1l-1.8 3.5-1.8-3.5h-2.1l2.7 5.2z"/></svg><svg version="1.1" id="black_rar" x="0" y="0" viewBox="0 0 78 77" xml:space="preserve" xmlns="http://www.w3.org/2000/svg"><style>.aist0{fill-rule:evenodd;clip-rule:evenodd}</style><path d="M56.8 0H13.6c-1.3 0-2.3.9-2.3 2v39H16V4.1h40.9v14.2H73v54.6H16v-7.7h-4.7V75c0 1.1 1.1 2 2.3 2h61.8c1.3 0 2.3-.9 2.3-2V18.3L56.8 0z"/><path class="aist0" d="M56.2 43H0v20.2h47.7L56.2 43zm-44.3 5.1V59h1.8v-4.6h.4c.4 0 .7 0 .9.1.2.1.4.2.5.4.2.2.5.8 1 1.6l1.3 2.4H20l-1.1-2.1c-.4-.9-.8-1.4-1-1.8-.3-.3-.6-.6-1-.9.8-.1 1.3-.5 1.7-1 .4-.5.6-1.2.6-2.1 0-.7-.1-1.3-.4-1.7-.3-.5-.6-.8-1-1-.4-.2-1.1-.3-2.1-.3h-3.8zm3.2 4.6h-1.3v-2.8h1.4c.8 0 1.3 0 1.5.1.2.1.4.2.6.4.1.2.2.5.2.8 0 .4-.1.7-.2.9-.1.2-.3.4-.5.4-.4.2-.9.2-1.7.2zM28.4 59h2l-3.6-10.9h-1.9L21.4 59h1.9l.7-2.5h3.6l.8 2.5zm-2.6-8.4l1.2 4.1h-2.4l1.2-4.1zm6.9-2.5V59h1.8v-4.6h.4c.4 0 .7 0 .9.1.2.1.4.2.5.4.2.2.5.8 1 1.6l1.3 2.4h2.2l-1.1-2.1c-.4-.9-.8-1.4-1-1.8-.3-.3-.6-.6-1-.9.8-.1 1.3-.5 1.7-1 .4-.5.6-1.2.6-2.1 0-.7-.1-1.3-.4-1.7-.3-.5-.6-.8-1-1-.4-.2-1.1-.3-2.1-.3h-3.8zm3.2 4.6h-1.3v-2.8H36c.8 0 1.3 0 1.5.1.2.1.4.2.6.4.1.2.2.5.2.8 0 .4-.1.7-.2.9-.1.2-.3.4-.5.4-.4.2-.9.2-1.7.2zM31 17c2.2 0 4-1.8 4-4S33.2 3 31 3s-4 7.8-4 10 1.8 4 4 4zm0-1.7c1.3 0 2.4-1.2 2.4-2.6S32.3 10 31 10s-2.4 1.2-2.4 2.6 1.1 2.7 2.4 2.7z"/><path d="M29 21c0-1.1.9-2 2-2s2 .9 2 2v2c0 1.1-.9 2-2 2s-2-.9-2-2v-2zM29 29c0-1.1.9-2 2-2s2 .9 2 2v2c0 1.1-.9 2-2 2s-2-.9-2-2v-2zM29 37c0-1.1.9-2 2-2s2 .9 2 2v2c0 1.1-.9 2-2 2s-2-.9-2-2v-2z"/></svg><svg version="1.1" id="black_xls" x="0" y="0" viewBox="0 0 78 77" xml:space="preserve" xmlns="http://www.w3.org/2000/svg"><style>.ajst0{fill-rule:evenodd;clip-rule:evenodd}.ajst1{fill:none;stroke:#000;stroke-width:2}</style><path d="M56.8 0H13.6c-1.3 0-2.3.9-2.3 2v39H16V4.1h40.9v14.2H73v54.6H16v-7.7h-4.7V75c0 1.1 1.1 2 2.3 2h61.8c1.3 0 2.3-.9 2.3-2V18.3L56.8 0z"/><path class="ajst0" d="M56.2 43H0v20.2h47.7L56.2 43zM14.1 53.3L11 59h2.2l2-3.8 2 3.8h2.2l-3.1-5.6 2.8-5.3H17l-1.8 3.5-1.8-3.5h-2.1l2.8 5.2zm7.6-5.1V59H28v-1.8h-4.5v-9h-1.8zm10.3 7l-1.8.2c.2 2.5 1.5 3.7 3.7 3.7 1.2 0 2.2-.3 2.7-1 .6-.6.9-1.4.9-2.4 0-.7-.1-1.2-.3-1.7-.2-.5-.5-.8-.9-1.1-.4-.3-1.1-.6-2-.8-.9-.2-1.4-.5-1.6-.7-.2-.2-.4-.5-.4-.8 0-.3.1-.6.4-.8.3-.2.6-.3 1.1-.3.5 0 .9.1 1.1.4.3.2.4.6.5 1.2l1.8-.1c0-1.1-.3-1.9-.9-2.5-.6-.6-1.4-.9-2.5-.9-.7 0-1.3.1-1.8.4-.5.2-.9.6-1.1 1.1-.3.5-.4 1-.4 1.6 0 .5.1 1 .3 1.4.2.4.5.8.9 1.1.4.3.9.5 1.7.8.9.3 1.4.5 1.6.6.2.1.4.3.5.4.1.2.2.4.2.6 0 .4-.2.8-.5 1.1-.3.3-.7.4-1.3.4-1.1.2-1.7-.5-1.9-1.9z"/><path class="ajst1" d="M23 22h41v16H23zM22 30h42M31 21v17.5M39 21v17.5M47.5 21v17.5m8.5-17V39"/></svg><svg version="1.1" id="black_zip" x="0" y="0" viewBox="0 0 78 77" xml:space="preserve" xmlns="http://www.w3.org/2000/svg"><style>.akst0{fill-rule:evenodd;clip-rule:evenodd}</style><path d="M56.8 0H13.6c-1.3 0-2.3.9-2.3 2v39H16V4.1h40.9v14.2H73v54.6H16v-7.7h-4.7V75c0 1.1 1.1 2 2.3 2h61.8c1.3 0 2.3-.9 2.3-2V18.3L56.8 0z"/><path class="akst0" d="M56.2 43H0v20.2h47.7L56.2 43zM11.1 57v2h7.3v-1.8h-5.1l4.9-7.4v-1.7h-6.6v1.8h4.2L11.1 57zm9.8-8.9V59h1.8V48.1h-1.8zm4.9 0V59h1.8v-4.1h1.2c1.1 0 1.9-.1 2.3-.3.4-.2.8-.6 1.1-1.1.3-.5.4-1.2.4-2 0-.9-.2-1.6-.5-2.1-.3-.6-.8-.9-1.3-1.1-.3-.1-1-.2-2.1-.2h-2.9zm1.8 4.9v-3.1h.9c.8 0 1.2 0 1.5.1.2.1.4.3.6.5.2.2.2.6.2.9 0 .4-.1.7-.2.9-.2.2-.4.4-.6.5-.3.2-.7.2-1.4.2h-1zM31 17c2.2 0 4-1.8 4-4S33.2 3 31 3s-4 7.8-4 10 1.8 4 4 4zm0-1.7c1.3 0 2.4-1.2 2.4-2.6S32.3 10 31 10s-2.4 1.2-2.4 2.6 1.1 2.7 2.4 2.7z"/><path d="M29 21c0-1.1.9-2 2-2s2 .9 2 2v2c0 1.1-.9 2-2 2s-2-.9-2-2v-2zM29 29c0-1.1.9-2 2-2s2 .9 2 2v2c0 1.1-.9 2-2 2s-2-.9-2-2v-2zM29 37c0-1.1.9-2 2-2s2 .9 2 2v2c0 1.1-.9 2-2 2s-2-.9-2-2v-2z"/></svg><svg version="1.1" id="blue_csv" x="0" y="0" viewBox="0 0 78 77" xml:space="preserve" xmlns="http://www.w3.org/2000/svg"><style>.alst0{fill:#063462}.alst1,.alst2{fill:#fff;stroke:#063462;stroke-width:2}.alst2{fill:none}.alst3{fill-rule:evenodd;clip-rule:evenodd;fill:#063462}</style><path class="alst0" d="M56.8 0H13.6c-1.3 0-2.3.9-2.3 2v39H16V4.1h40.9v14.2H73v54.6H16v-7.7h-4.7V75c0 1.1 1.1 2 2.3 2h61.8c1.3 0 2.3-.9 2.3-2V18.3L56.8 0z"/><path class="alst1" d="M23 22h41v16H23z"/><path class="alst2" d="M22 30h42"/><path class="alst1" d="M31 21v17.5M39 21v17.5M47.5 21v17.5m8.5-17V39"/><path class="alst3" d="M56.2 43H0v20.2h47.7L56.2 43zM19.4 55.7l-1.8-.7c-.2.8-.4 1.4-.8 1.8-.3.4-.8.6-1.2.6-.7 0-1.2-.3-1.6-.9-.4-.6-.6-1.6-.6-2.9 0-1.3.2-2.3.6-2.9.4-.6 1-.9 1.6-.9.5 0 .9.2 1.2.5s.6.8.7 1.4l1.8-.5c-.2-1-.6-1.7-1.1-2.2-.7-.7-1.5-1-2.5-1-1.2 0-2.2.5-2.9 1.4-.8 1.1-1.3 2.5-1.3 4.4 0 1.8.4 3.2 1.3 4.2.7.9 1.7 1.3 2.8 1.3.9 0 1.7-.3 2.3-.8.8-.7 1.2-1.6 1.5-2.8zm4.2-.5l-1.8.2c.2 2.5 1.5 3.7 3.7 3.7 1.2 0 2.2-.3 2.7-1 .6-.6.9-1.4.9-2.4 0-.7-.1-1.2-.3-1.7-.2-.5-.5-.8-.9-1.1s-1.1-.6-2-.8-1.4-.5-1.6-.7-.4-.5-.4-.8.1-.6.4-.8.6-.3 1.1-.3.9.1 1.1.4c.3.2.4.6.5 1.2l1.8-.1c0-1.1-.3-1.9-.9-2.5s-1.4-.9-2.5-.9c-.7 0-1.3.1-1.8.4s-.9.6-1.1 1.1c-.3.5-.4 1-.4 1.6 0 .5.1 1 .3 1.4.2.4.5.8.9 1.1s.9.5 1.7.8c.9.3 1.4.5 1.6.6s.4.3.5.4c.1.2.2.4.2.6 0 .4-.2.8-.5 1.1s-.7.4-1.3.4c-1 .2-1.7-.5-1.9-1.9zm7.5-7.1L34.3 59h1.9l3.2-10.9h-1.9l-2.2 8.1-2.3-8.1h-1.9z"/></svg><svg version="1.1" id="blue_doc" x="0" y="0" viewBox="0 0 78 77" xml:space="preserve" xmlns="http://www.w3.org/2000/svg"><style>.amst0,.amst1{fill:#063462}.amst1{fill-rule:evenodd;clip-rule:evenodd}</style><path class="amst0" d="M56.8 0H13.6c-1.3 0-2.3.9-2.3 2v39H16V4.1h40.9v14.2H73v54.6H16v-7.7h-4.7V75c0 1.1 1.1 2 2.3 2h61.8c1.3 0 2.3-.9 2.3-2V18.3L56.8 0z"/><path class="amst1" d="M56.2 43H0v20.2h47.7L56.2 43zm-41 5.1h-3.3V59h3.4c.7 0 1.3-.1 1.8-.3s.9-.5 1.2-.9c.3-.4.6-1 .8-1.7.2-.7.3-1.5.3-2.5s-.1-1.9-.3-2.6c-.2-.7-.5-1.3-.8-1.7-.4-.4-.8-.8-1.2-.9-.4-.2-1.1-.3-1.9-.3zm-1.5 9.1V50h.8c.7 0 1.2 0 1.5.1.3.1.6.3.9.5.2.3.4.6.5 1.1s.2 1.1.2 1.9c0 .8-.1 1.4-.2 1.9s-.2.8-.4 1.1c-.2.2-.4.4-.6.5-.3.1-.7.2-1.3.2l-1.4-.1zm8.8-6.8c-.4.8-.6 1.9-.6 3.2 0 1.8.4 3.2 1.3 4.2.8.9 1.8 1.3 3.1 1.3s2.3-.5 3.1-1.4c.9-1 1.3-2.5 1.3-4.3s-.4-3.2-1.2-4.2c-.8-1-1.8-1.5-3.1-1.5-.9 0-1.6.2-2.3.6-.7.6-1.2 1.2-1.6 2.1zm2 6c-.5-.6-.7-1.6-.7-2.8 0-1.3.2-2.2.7-2.8s1.1-.9 1.8-.9 1.3.3 1.8.9c.5.6.7 1.5.7 2.8s-.2 2.3-.7 2.9c-.5.6-1.1.9-1.8.9-.7-.1-1.3-.4-1.8-1zm16.4-.7l-1.7-.7c-.2.8-.4 1.4-.8 1.8-.3.4-.8.6-1.2.6-.7 0-1.2-.3-1.6-.9-.4-.6-.6-1.6-.6-2.9 0-1.3.2-2.3.6-2.9.4-.6 1-.9 1.6-.9.5 0 .9.2 1.2.5s.6.8.7 1.4l1.8-.5c-.2-1-.6-1.7-1.1-2.2-.7-.7-1.5-1-2.5-1-1.2 0-2.2.5-2.9 1.4-.8 1.1-1.3 2.5-1.3 4.4 0 1.8.4 3.2 1.3 4.2.7.9 1.7 1.3 2.8 1.3.9 0 1.7-.3 2.3-.8.7-.7 1.1-1.6 1.4-2.8z"/><path class="amst0" d="M64 24H20v3h44v-3zM64 29H20v3h44v-3zM53 19H20v3h33v-3zM42 14H20v3h22v-3zM64 34H20v3h44v-3z"/></svg><svg version="1.1" id="blue_jpg" x="0" y="0" viewBox="0 0 78 77" xml:space="preserve" xmlns="http://www.w3.org/2000/svg"><style>.anst0,.anst1{fill:#063462}.anst1{fill-rule:evenodd;clip-rule:evenodd}</style><path class="anst0" d="M56.8 0H13.6c-1.3 0-2.3.9-2.3 2v39H16V4.1h40.9v14.2H73v54.6H16v-7.7h-4.7V75c0 1.1 1.1 2 2.3 2h61.8c1.3 0 2.3-.9 2.3-2V18.3L56.8 0z"/><path class="anst0" d="M50 16l13 22H37l13-22z"/><path class="anst0" d="M35.5 20l10 18h-20l10-18z"/><circle class="anst0" cx="26" cy="15" r="4"/><path class="anst1" d="M56.2 43H0v20.2h47.7L56.2 43zM17 48.1h-1.8v7.1c0 .9-.1 1.5-.3 1.8s-.5.4-.8.4c-.4 0-.7-.2-.9-.6-.1-.3-.2-.7-.2-1.4l-1.7.2c0 1.2.3 2.1.7 2.7.5.6 1.2.9 2 .9.7 0 1.2-.1 1.6-.4.4-.3.8-.7 1-1.3.2-.5.3-1.4.3-2.5v-6.9h.1zm3.2 0V59H22v-4.1h1.2c1.1 0 1.9-.1 2.3-.3s.8-.6 1.1-1.1c.3-.5.4-1.2.4-2 0-.9-.2-1.6-.5-2.1-.3-.6-.8-.9-1.3-1.1-.3-.1-1-.2-2.1-.2h-2.9zM22 53v-3.1h.9c.8 0 1.2 0 1.5.1.2.1.4.3.6.5s.2.6.2.9c0 .4-.1.7-.2.9-.2.2-.4.4-.6.5-.2.2-.7.2-1.4.2h-1zm12.1.1V55h2.1v1.4c-.3.3-.6.5-1 .7s-.7.2-1.1.2c-.8 0-1.4-.3-1.8-.9-.5-.7-.8-1.7-.8-3 0-1.2.2-2.1.7-2.7.5-.6 1.1-.9 1.9-.9.5 0 .9.1 1.3.4.4.3.6.7.7 1.3l1.8-.4c-.2-1.1-.6-1.9-1.2-2.4s-1.5-.8-2.6-.8c-.9 0-1.7.2-2.3.6-.6.4-1.2 1.1-1.6 1.9-.4.9-.6 1.9-.6 3.1 0 1.2.2 2.2.6 3.1.4.9.9 1.5 1.6 2 .7.4 1.5.6 2.3.6.7 0 1.4-.2 2.2-.5.7-.3 1.3-.7 1.7-1.2v-4.4h-3.9z"/></svg><svg version="1.1" id="blue_pdf" x="0" y="0" viewBox="0 0 78 77" xml:space="preserve" xmlns="http://www.w3.org/2000/svg"><style>.aost0,.aost1{fill:#063462}.aost1{fill-rule:evenodd;clip-rule:evenodd}</style><path class="aost0" d="M56.8 0H13.6c-1.3 0-2.3.9-2.3 2v39H16V4.1h40.9v14.2H73v54.6H16v-7.7h-4.7V75c0 1.1 1.1 2 2.3 2h61.8c1.3 0 2.3-.9 2.3-2V18.3L56.8 0z"/><path class="aost0" d="M64.2 25H20.5v3h43.7v-3zM57.3 30.7H20.5v3h36.8v-3z"/><path class="aost1" d="M56.2 43H0v20.2h47.7L56.2 43zm-44.3 5.1V59h1.8v-4.1h1.2c1.1 0 1.9-.1 2.3-.3s.8-.6 1.1-1.1c.3-.5.4-1.2.4-2 0-.9-.2-1.6-.5-2.1-.3-.6-.8-.9-1.3-1.1-.3-.1-1-.2-2.1-.2h-2.9zm1.8 4.9v-3.1h.9c.8 0 1.2 0 1.5.1.2.1.4.3.6.5s.2.6.2.9c0 .4-.1.7-.2.9-.2.2-.4.4-.6.5-.3.2-.7.2-1.4.2h-1zm11.2-4.9h-3.3V59H25c.7 0 1.3-.1 1.8-.3s.9-.5 1.2-.9c.3-.4.6-1 .8-1.7.2-.7.3-1.5.3-2.5s-.1-1.9-.3-2.6-.5-1.3-.8-1.7c-.4-.4-.8-.8-1.2-.9-.4-.2-1-.3-1.9-.3zm-1.5 9.1V50h.8c.7 0 1.2 0 1.5.1s.6.3.9.5c.2.3.4.6.5 1.1s.2 1.1.2 1.9c0 .8-.1 1.4-.2 1.9s-.2.8-.4 1.1c-.2.2-.4.4-.6.5-.3.1-.7.2-1.3.2l-1.4-.1zm8.6-9.1V59h1.8v-4.6h3.7v-1.8h-3.7V50h4.3v-1.8H32v-.1z"/></svg><svg version="1.1" id="blue_png" x="0" y="0" viewBox="0 0 78 77" xml:space="preserve" xmlns="http://www.w3.org/2000/svg"><style>.apst0,.apst1{fill:#063462}.apst1{fill-rule:evenodd;clip-rule:evenodd}</style><path class="apst0" d="M56.8 0H13.6c-1.3 0-2.3.9-2.3 2v39H16V4.1h40.9v14.2H73v54.6H16v-7.7h-4.7V75c0 1.1 1.1 2 2.3 2h61.8c1.3 0 2.3-.9 2.3-2V18.3L56.8 0z"/><path class="apst0" d="M50 16l13 22H37l13-22z"/><path class="apst0" d="M35.5 20l10 18h-20l10-18z"/><circle class="apst0" cx="26" cy="15" r="4"/><path class="apst1" d="M56.2 43H0v20.2h47.7L56.2 43zm-44.3 5.1V59h1.8v-4.1h1.2c1.1 0 1.9-.1 2.3-.3s.8-.6 1.1-1.1c.3-.5.4-1.2.4-2 0-.9-.2-1.6-.5-2.1-.3-.6-.8-.9-1.3-1.1-.3-.1-1-.2-2.1-.2h-2.9zm1.8 4.9v-3.1h.9c.8 0 1.2 0 1.5.1.2.1.4.3.6.5s.2.6.2.9c0 .4-.1.7-.2.9-.2.2-.4.4-.6.5-.3.2-.7.2-1.4.2h-1zm8-4.9V59h1.7v-7.1L27 59h1.8V48.1h-1.7v7.3l-3.7-7.3h-1.7zm14.5 5V55h2.1v1.4c-.3.3-.6.5-1 .7s-.7.2-1.1.2c-.8 0-1.4-.3-1.8-.9-.5-.7-.8-1.7-.8-3 0-1.2.2-2.1.7-2.7.5-.6 1.1-.9 1.9-.9.5 0 .9.1 1.3.4.4.3.6.7.7 1.3l1.8-.4c-.2-1.1-.6-1.9-1.2-2.4s-1.5-.8-2.6-.8c-.9 0-1.7.2-2.3.6-.6.4-1.2 1.1-1.6 1.9-.4.9-.6 1.9-.6 3.1 0 1.2.2 2.2.6 3.1.4.9.9 1.5 1.6 2 .7.4 1.5.6 2.3.6.7 0 1.4-.2 2.2-.5.7-.3 1.3-.7 1.7-1.2v-4.4h-3.9z"/></svg><svg version="1.1" id="blue_pptx" x="0" y="0" viewBox="0 0 78 77" xml:space="preserve" xmlns="http://www.w3.org/2000/svg"><style>.aqst0,.aqst1{fill:#063462}.aqst1{fill-rule:evenodd;clip-rule:evenodd}</style><path class="aqst0" d="M56.8 0H13.6c-1.3 0-2.3.9-2.3 2v39H16V4.1h40.9v14.2H73v54.6H16v-7.7h-4.7V75c0 1.1 1.1 2 2.3 2h61.8c1.3 0 2.3-.9 2.3-2V18.3L56.8 0z"/><path class="aqst1" d="M61 43H0v20.2h51.8L61 43zm-49.1 5.1V59h1.8v-4.1h1.2c1.1 0 1.9-.1 2.3-.3s.8-.6 1.1-1.1c.3-.5.4-1.2.4-2 0-.9-.2-1.6-.5-2.1-.3-.6-.8-.9-1.3-1.1-.3-.1-1-.2-2.1-.2h-2.9zm1.8 4.9v-3.1h.9c.8 0 1.2 0 1.5.1.2.1.4.3.6.5s.2.6.2.9c0 .4-.1.7-.2.9-.2.2-.4.4-.6.5-.3.2-.7.2-1.4.2h-1zm7.9-4.9V59h1.8v-4.1h1.2c1.1 0 1.9-.1 2.3-.3s.8-.6 1.1-1.1c.3-.5.4-1.2.4-2 0-.9-.2-1.6-.5-2.1-.3-.6-.8-.9-1.3-1.1-.3-.1-1-.2-2.1-.2h-2.9zm1.8 4.9v-3.1h.9c.8 0 1.2 0 1.5.1.2.1.4.3.6.5s.2.6.2.9c0 .4-.1.7-.2.9-.2.2-.4.4-.6.5-.2.2-.7.2-1.4.2h-1zm10-3.1V59h1.8v-9.1h2.7v-1.8h-7.1v1.8h2.6zm9.1 3.4l-3 5.7h2.2l2-3.8 2 3.8h2.2l-3.1-5.6 2.8-5.3h-2.1l-1.8 3.5-1.8-3.5h-2.1l2.7 5.2z"/></svg><svg version="1.1" id="blue_rar" x="0" y="0" viewBox="0 0 78 77" xml:space="preserve" xmlns="http://www.w3.org/2000/svg"><style>.arst0,.arst1{fill:#063462}.arst1{fill-rule:evenodd;clip-rule:evenodd}</style><path class="arst0" d="M56.8 0H13.6c-1.3 0-2.3.9-2.3 2v39H16V4.1h40.9v14.2H73v54.6H16v-7.7h-4.7V75c0 1.1 1.1 2 2.3 2h61.8c1.3 0 2.3-.9 2.3-2V18.3L56.8 0z"/><path class="arst1" d="M56.2 43H0v20.2h47.7L56.2 43zm-44.3 5.1V59h1.8v-4.6h.4c.4 0 .7 0 .9.1.2.1.4.2.5.4.2.2.5.8 1 1.6l1.3 2.4H20l-1.1-2.1c-.4-.9-.8-1.4-1-1.8-.3-.3-.6-.6-1-.9.8-.1 1.3-.5 1.7-1 .4-.5.6-1.2.6-2.1 0-.7-.1-1.3-.4-1.7-.3-.5-.6-.8-1-1-.4-.2-1.1-.3-2.1-.3h-3.8zm3.2 4.6h-1.3v-2.8h1.4c.8 0 1.3 0 1.5.1.2.1.4.2.6.4.1.2.2.5.2.8 0 .4-.1.7-.2.9-.1.2-.3.4-.5.4-.4.2-.9.2-1.7.2zM28.4 59h2l-3.6-10.9h-1.9L21.4 59h1.9l.7-2.5h3.6l.8 2.5zm-2.6-8.4l1.2 4.1h-2.4l1.2-4.1zm6.9-2.5V59h1.8v-4.6h.4c.4 0 .7 0 .9.1.2.1.4.2.5.4.2.2.5.8 1 1.6l1.3 2.4h2.2l-1.1-2.1c-.4-.9-.8-1.4-1-1.8-.3-.3-.6-.6-1-.9.8-.1 1.3-.5 1.7-1 .4-.5.6-1.2.6-2.1 0-.7-.1-1.3-.4-1.7-.3-.5-.6-.8-1-1-.4-.2-1.1-.3-2.1-.3h-3.8zm3.2 4.6h-1.3v-2.8H36c.8 0 1.3 0 1.5.1.2.1.4.2.6.4.1.2.2.5.2.8 0 .4-.1.7-.2.9-.1.2-.3.4-.5.4-.4.2-.9.2-1.7.2zM31 17c2.2 0 4-1.8 4-4S33.2 3 31 3s-4 7.8-4 10 1.8 4 4 4zm0-1.7c1.3 0 2.4-1.2 2.4-2.6S32.3 10 31 10s-2.4 1.2-2.4 2.6 1.1 2.7 2.4 2.7z"/><path class="arst0" d="M29 21c0-1.1.9-2 2-2s2 .9 2 2v2c0 1.1-.9 2-2 2s-2-.9-2-2v-2zM29 29c0-1.1.9-2 2-2s2 .9 2 2v2c0 1.1-.9 2-2 2s-2-.9-2-2v-2zM29 37c0-1.1.9-2 2-2s2 .9 2 2v2c0 1.1-.9 2-2 2s-2-.9-2-2v-2z"/></svg><svg version="1.1" id="blue_xls" x="0" y="0" viewBox="0 0 78 77" xml:space="preserve" xmlns="http://www.w3.org/2000/svg"><style>.asst0,.asst1{fill:#063462}.asst1{fill-rule:evenodd;clip-rule:evenodd}.asst2{fill:none;stroke:#063462;stroke-width:2}</style><path class="asst0" d="M56.8 0H13.6c-1.3 0-2.3.9-2.3 2v39H16V4.1h40.9v14.2H73v54.6H16v-7.7h-4.7V75c0 1.1 1.1 2 2.3 2h61.8c1.3 0 2.3-.9 2.3-2V18.3L56.8 0z"/><path class="asst1" d="M56.2 43H0v20.2h47.7L56.2 43zM14.1 53.3L11 59h2.2l2-3.8 2 3.8h2.2l-3.1-5.6 2.8-5.3H17l-1.8 3.5-1.8-3.5h-2.1l2.8 5.2zm7.6-5.1V59H28v-1.8h-4.5v-9h-1.8zm10.3 7l-1.8.2c.2 2.5 1.5 3.7 3.7 3.7 1.2 0 2.2-.3 2.7-1 .6-.6.9-1.4.9-2.4 0-.7-.1-1.2-.3-1.7s-.5-.8-.9-1.1-1.1-.6-2-.8-1.4-.5-1.6-.7c-.2-.2-.4-.5-.4-.8s.1-.6.4-.8c.3-.2.6-.3 1.1-.3s.9.1 1.1.4c.3.2.4.6.5 1.2l1.8-.1c0-1.1-.3-1.9-.9-2.5-.6-.6-1.4-.9-2.5-.9-.7 0-1.3.1-1.8.4-.5.2-.9.6-1.1 1.1-.3.5-.4 1-.4 1.6 0 .5.1 1 .3 1.4.2.4.5.8.9 1.1s.9.5 1.7.8c.9.3 1.4.5 1.6.6.2.1.4.3.5.4.1.2.2.4.2.6 0 .4-.2.8-.5 1.1s-.7.4-1.3.4c-1.1.2-1.7-.5-1.9-1.9z"/><path class="asst2" d="M23 22h41v16H23zM22 30h42M31 21v17.5M39 21v17.5M47.5 21v17.5m8.5-17V39"/></svg><svg version="1.1" id="blue_zip" x="0" y="0" viewBox="0 0 78 77" xml:space="preserve" xmlns="http://www.w3.org/2000/svg"><style>.atst0,.atst1{fill:#063462}.atst1{fill-rule:evenodd;clip-rule:evenodd}</style><path class="atst0" d="M56.8 0H13.6c-1.3 0-2.3.9-2.3 2v39H16V4.1h40.9v14.2H73v54.6H16v-7.7h-4.7V75c0 1.1 1.1 2 2.3 2h61.8c1.3 0 2.3-.9 2.3-2V18.3L56.8 0z"/><path class="atst1" d="M56.2 43H0v20.2h47.7L56.2 43zM11.1 57v2h7.3v-1.8h-5.1l4.9-7.4v-1.7h-6.6v1.8h4.2L11.1 57zm9.8-8.9V59h1.8V48.1h-1.8zm4.9 0V59h1.8v-4.1h1.2c1.1 0 1.9-.1 2.3-.3.4-.2.8-.6 1.1-1.1.3-.5.4-1.2.4-2 0-.9-.2-1.6-.5-2.1-.3-.6-.8-.9-1.3-1.1-.3-.1-1-.2-2.1-.2h-2.9zm1.8 4.9v-3.1h.9c.8 0 1.2 0 1.5.1.2.1.4.3.6.5.2.2.2.6.2.9 0 .4-.1.7-.2.9-.2.2-.4.4-.6.5-.3.2-.7.2-1.4.2h-1zM31 17c2.2 0 4-1.8 4-4S33.2 3 31 3s-4 7.8-4 10 1.8 4 4 4zm0-1.7c1.3 0 2.4-1.2 2.4-2.6S32.3 10 31 10s-2.4 1.2-2.4 2.6 1.1 2.7 2.4 2.7z"/><path class="atst0" d="M29 21c0-1.1.9-2 2-2s2 .9 2 2v2c0 1.1-.9 2-2 2s-2-.9-2-2v-2zM29 29c0-1.1.9-2 2-2s2 .9 2 2v2c0 1.1-.9 2-2 2s-2-.9-2-2v-2zM29 37c0-1.1.9-2 2-2s2 .9 2 2v2c0 1.1-.9 2-2 2s-2-.9-2-2v-2z"/></svg><svg version="1.1" id="csv" x="0" y="0" viewBox="0 0 78 77" xml:space="preserve" xmlns="http://www.w3.org/2000/svg"><style>.aust0{fill:#2fd385}.aust1{fill:none;stroke:#2fd385;stroke-width:2}.aust2{fill-rule:evenodd;clip-rule:evenodd;fill:#2fd385}</style><path class="aust0" d="M56.8 0H13.6c-1.3 0-2.3.9-2.3 2v39H16V4.1h40.9v14.2H73v54.6H16v-7.7h-4.7V75c0 1.1 1.1 2 2.3 2h61.8c1.3 0 2.3-.9 2.3-2V18.3L56.8 0z"/><path class="aust1" d="M23 22h41v16H23zM22 30h42M31 21v17.5M39 21v17.5M47.5 21v17.5m8.5-17V39"/><path class="aust2" d="M56.2 43H0v20.2h47.7L56.2 43zM19.4 55.7l-1.8-.7c-.2.8-.4 1.4-.8 1.8-.3.4-.8.6-1.2.6-.7 0-1.2-.3-1.6-.9-.4-.6-.6-1.6-.6-2.9 0-1.3.2-2.3.6-2.9.4-.6 1-.9 1.6-.9.5 0 .9.2 1.2.5s.6.8.7 1.4l1.8-.5c-.2-1-.6-1.7-1.1-2.2-.7-.7-1.5-1-2.5-1-1.2 0-2.2.5-2.9 1.4-.8 1.1-1.3 2.5-1.3 4.4 0 1.8.4 3.2 1.3 4.2.7.9 1.7 1.3 2.8 1.3.9 0 1.7-.3 2.3-.8.8-.7 1.2-1.6 1.5-2.8zm4.2-.5l-1.8.2c.2 2.5 1.5 3.7 3.7 3.7 1.2 0 2.2-.3 2.7-1 .6-.6.9-1.4.9-2.4 0-.7-.1-1.2-.3-1.7-.2-.5-.5-.8-.9-1.1s-1.1-.6-2-.8-1.4-.5-1.6-.7-.4-.5-.4-.8.1-.6.4-.8.6-.3 1.1-.3.9.1 1.1.4c.3.2.4.6.5 1.2l1.8-.1c0-1.1-.3-1.9-.9-2.5s-1.4-.9-2.5-.9c-.7 0-1.3.1-1.8.4s-.9.6-1.1 1.1c-.3.5-.4 1-.4 1.6 0 .5.1 1 .3 1.4.2.4.5.8.9 1.1s.9.5 1.7.8c.9.3 1.4.5 1.6.6s.4.3.5.4c.1.2.2.4.2.6 0 .4-.2.8-.5 1.1s-.7.4-1.3.4c-1 .2-1.7-.5-1.9-1.9zm7.5-7.1L34.3 59h1.9l3.2-10.9h-1.9l-2.2 8.1-2.3-8.1h-1.9z"/></svg><svg fill="none" viewBox="0 0 930 678" id="decorgear" xmlns="http://www.w3.org/2000/svg"><path d="M387.428 339c0 26.746-21.682 48.428-48.428 48.428S290.571 365.746 290.571 339s21.683-48.429 48.429-48.429c26.746 0 48.428 21.683 48.428 48.429zm-74.912 0c0 14.627 11.857 26.484 26.484 26.484 14.627 0 26.484-11.857 26.484-26.484 0-14.627-11.857-26.484-26.484-26.484-14.627 0-26.484 11.857-26.484 26.484zM765.172 339c0 26.746-21.683 48.428-48.429 48.428-26.746 0-48.429-21.682-48.429-48.428s21.683-48.429 48.429-48.429c26.746 0 48.429 21.683 48.429 48.429zm-74.913 0c0 14.627 11.857 26.484 26.484 26.484 14.627 0 26.484-11.857 26.484-26.484 0-14.627-11.857-26.484-26.484-26.484-14.627 0-26.484 11.857-26.484 26.484zM929.829 222.771c0 26.747-21.683 48.429-48.429 48.429-26.746 0-48.429-21.682-48.429-48.429 0-26.746 21.683-48.428 48.429-48.428 26.746 0 48.429 21.682 48.429 48.428zm-74.913 0c0 14.627 11.857 26.484 26.484 26.484 14.627 0 26.484-11.857 26.484-26.484 0-14.626-11.857-26.484-26.484-26.484-14.627 0-26.484 11.858-26.484 26.484zM842.657 455.229c0 26.746-21.682 48.428-48.428 48.428-26.747 0-48.429-21.682-48.429-48.428 0-26.747 21.682-48.429 48.429-48.429 26.746 0 48.428 21.682 48.428 48.429zm-74.912 0c0 14.626 11.857 26.484 26.484 26.484 14.626 0 26.484-11.858 26.484-26.484 0-14.627-11.858-26.484-26.484-26.484-14.627 0-26.484 11.857-26.484 26.484z" fill="#EEE"/><path d="M377.743 0h-77.486l-5.804 81.265a259.614 259.614 0 00-45.757 12.231l-45.643-67.45-67.105 38.743L171.57 138.1a263.1 263.1 0 00-33.468 33.468l-73.313-35.622-38.743 67.105 67.45 45.643a259.617 259.617 0 00-12.231 45.758L0 300.257v77.486l81.265 5.804a259.614 259.614 0 0012.231 45.757l-67.45 45.643 38.743 67.105L138.1 506.43a263.1 263.1 0 0033.468 33.468l-35.622 73.313 67.105 38.743 45.643-67.451a259.54 259.54 0 0045.758 12.232L300.257 678h77.486l5.804-81.265a259.613 259.613 0 0045.757-12.231l45.643 67.45 67.105-38.743-35.622-73.312a263.1 263.1 0 0033.468-33.468l73.313 35.622 38.743-67.105-29.142-19.719H505.799C469.06 507.855 408.05 542.283 339 542.283c-112.27 0-203.283-91.013-203.283-203.283 0-112.27 91.013-203.283 203.283-203.283 69.05 0 130.06 34.428 166.799 87.054h117.015l29.14-19.719-38.743-67.104-73.313 35.621a263.15 263.15 0 00-33.467-33.467l35.622-73.313-67.105-38.743-45.643 67.45a259.617 259.617 0 00-45.758-12.231L377.743 0z" fill="#EEE"/><path fill-rule="evenodd" clip-rule="evenodd" d="M505.054 285.729C482.541 215.497 416.708 164.657 339 164.657c-96.287 0-174.343 78.056-174.343 174.343 0 96.287 78.056 174.343 174.343 174.343 77.708 0 143.541-50.839 166.054-121.072H471.79c-21.128 52.616-72.62 89.768-132.79 89.768-78.998 0-143.038-64.041-143.038-143.039 0-78.998 64.04-143.038 143.038-143.038 60.17 0 111.662 37.151 132.789 89.767h33.265z" fill="#EEE"/><path fill-rule="evenodd" clip-rule="evenodd" d="M434.121 290.956c-17.564-34.706-53.564-58.499-95.121-58.499-58.842 0-106.543 47.701-106.543 106.543 0 58.842 47.701 106.543 106.543 106.543 41.403 0 77.29-23.617 94.925-58.114h-34.958c-14.13 17.475-35.744 28.649-59.967 28.649-42.569 0-77.079-34.509-77.079-77.078s34.51-77.079 77.079-77.079c24.572 0 46.459 11.499 60.573 29.408l34.548-.373z" fill="#EEE"/><path d="M368.057 339H678M484.286 271.2h163.261l43.885-48.429h160.911M474.6 406.8h162.149l43.586 48.429h72.643" stroke="#EEE" stroke-width="29.057"/></svg><svg version="1.1" id="doc" x="0" y="0" viewBox="0 0 78 77" xml:space="preserve" xmlns="http://www.w3.org/2000/svg"><style>.awst0,.awst1{fill:#2fd385}.awst1{fill-rule:evenodd;clip-rule:evenodd}</style><path class="awst0" d="M56.8 0H13.6c-1.3 0-2.3.9-2.3 2v39H16V4.1h40.9v14.2H73v54.6H16v-7.7h-4.7V75c0 1.1 1.1 2 2.3 2h61.8c1.3 0 2.3-.9 2.3-2V18.3L56.8 0z"/><path class="awst1" d="M56.2 43H0v20.2h47.7L56.2 43zm-41 5.1h-3.3V59h3.4c.7 0 1.3-.1 1.8-.3s.9-.5 1.2-.9c.3-.4.6-1 .8-1.7.2-.7.3-1.5.3-2.5s-.1-1.9-.3-2.6c-.2-.7-.5-1.3-.8-1.7-.4-.4-.8-.8-1.2-.9-.4-.2-1.1-.3-1.9-.3zm-1.5 9.1V50h.8c.7 0 1.2 0 1.5.1.3.1.6.3.9.5.2.3.4.6.5 1.1s.2 1.1.2 1.9c0 .8-.1 1.4-.2 1.9s-.2.8-.4 1.1c-.2.2-.4.4-.6.5-.3.1-.7.2-1.3.2l-1.4-.1zm8.8-6.8c-.4.8-.6 1.9-.6 3.2 0 1.8.4 3.2 1.3 4.2.8.9 1.8 1.3 3.1 1.3s2.3-.5 3.1-1.4c.9-1 1.3-2.5 1.3-4.3s-.4-3.2-1.2-4.2c-.8-1-1.8-1.5-3.1-1.5-.9 0-1.6.2-2.3.6-.7.6-1.2 1.2-1.6 2.1zm2 6c-.5-.6-.7-1.6-.7-2.8 0-1.3.2-2.2.7-2.8s1.1-.9 1.8-.9 1.3.3 1.8.9c.5.6.7 1.5.7 2.8s-.2 2.3-.7 2.9c-.5.6-1.1.9-1.8.9-.7-.1-1.3-.4-1.8-1zm16.4-.7l-1.7-.7c-.2.8-.4 1.4-.8 1.8-.3.4-.8.6-1.2.6-.7 0-1.2-.3-1.6-.9-.4-.6-.6-1.6-.6-2.9 0-1.3.2-2.3.6-2.9.4-.6 1-.9 1.6-.9.5 0 .9.2 1.2.5s.6.8.7 1.4l1.8-.5c-.2-1-.6-1.7-1.1-2.2-.7-.7-1.5-1-2.5-1-1.2 0-2.2.5-2.9 1.4-.8 1.1-1.3 2.5-1.3 4.4 0 1.8.4 3.2 1.3 4.2.7.9 1.7 1.3 2.8 1.3.9 0 1.7-.3 2.3-.8.7-.7 1.1-1.6 1.4-2.8z"/><path class="awst0" d="M64 24H20v3h44v-3zM64 29H20v3h44v-3zM53 19H20v3h33v-3zM42 14H20v3h22v-3zM64 34H20v3h44v-3z"/></svg><svg fill="none" viewBox="0 0 53 28" id="eye" xmlns="http://www.w3.org/2000/svg"><path d="M51.38 13.885c.087.126.156.233.21.32-.049.082-.111.18-.189.293-.27.397-.689.937-1.255 1.575-1.132 1.273-2.82 2.896-5.018 4.5-4.396 3.206-10.78 6.297-18.788 6.395-7.995.098-14.37-2.939-18.76-6.165-2.194-1.613-3.88-3.265-5.01-4.576a15.43 15.43 0 01-1.251-1.633 5.211 5.211 0 01-.229-.384c.056-.102.136-.233.244-.395.284-.425.724-.995 1.315-1.665 1.18-1.336 2.927-3.024 5.164-4.678 4.48-3.312 10.858-6.443 18.54-6.443 7.677 0 14.054 3.178 18.537 6.517 2.238 1.667 3.987 3.362 5.17 4.693a17.931 17.931 0 011.32 1.646zm-50.372.146a.055.055 0 010 0zm-.004.357a.07.07 0 010 0z" stroke="#32428B" stroke-width="2.059"/><path d="M37.47 14c0 6.14-4.977 11.118-11.117 11.118-6.14 0-11.118-4.978-11.118-11.118 0-6.14 4.978-11.118 11.118-11.118 6.14 0 11.118 4.978 11.118 11.118zm-19.893 0a8.776 8.776 0 1017.552 0 8.776 8.776 0 00-17.552 0z" fill="#2FD385"/><circle cx="26.353" cy="13.99" r="6.182" fill="#32428B"/><path d="M47.5 13.665a1.952 1.952 0 11-3.904 0 1.952 1.952 0 013.904 0zm-2.823 0a.872.872 0 101.743 0 .872.872 0 00-1.743 0zM5.205 13.665a1.952 1.952 0 103.904 0 1.952 1.952 0 00-3.904 0zm2.824 0a.872.872 0 11-1.743 0 .872.872 0 011.743 0zM44.247 9.76a1.952 1.952 0 11-3.904 0 1.952 1.952 0 013.904 0zm-2.824 0a.872.872 0 101.743 0 .872.872 0 00-1.743 0zM8.459 9.76a1.952 1.952 0 103.904 0 1.952 1.952 0 00-3.904 0zm2.824 0a.872.872 0 11-1.744 0 .872.872 0 011.744 0zM43.922 17.569a1.952 1.952 0 10-3.905 0 1.952 1.952 0 003.904 0zm-2.824 0a.872.872 0 111.743 0 .872.872 0 01-1.743 0zM8.784 17.569a1.952 1.952 0 113.904 0 1.952 1.952 0 01-3.904 0zm2.824 0a.872.872 0 10-1.743 0 .872.872 0 001.743 0z" fill="#2FD385"/><path d="M36.647 13.556h7.6M16.059 13.556h-7.6" stroke="#2FD385" stroke-width="1.711"/><path d="M35.566 10.73a.856.856 0 001.095 1.314l-1.096-1.314zm2.5-.97v-.855h-.31l-.238.198.547.657zm2.277.856h.855V8.905h-.855v1.711zm-3.682 1.428l1.952-1.626-1.095-1.315-1.953 1.627 1.096 1.314zm1.404-1.428h2.278V8.905h-2.278v1.711zM17.14 10.73a.856.856 0 01-1.095 1.314l1.095-1.314zm-2.5-.97v-.855h.31l.238.198-.548.657zm-2.277.856h-.856V8.905h.856v1.711zm3.682 1.428l-1.952-1.626 1.095-1.315 1.952 1.627-1.095 1.314zm-1.405-1.428h-2.277V8.905h2.277v1.711zM35.24 16.6a.856.856 0 011.096-1.315l-1.096 1.314zm2.5.969v.855h-.31l-.238-.198.548-.657zm2.277-.856h.856v1.711h-.856v-1.711zm-3.681-1.428l1.952 1.626-1.096 1.315-1.952-1.627 1.096-1.314zm1.404 1.428h2.277v1.711H37.74v-1.711zM17.466 16.6a.856.856 0 00-1.096-1.315l1.096 1.314zm-2.5.969v.855h.31l.238-.198-.548-.657zm-2.277-.856h-.856v1.711h.855v-1.711zm3.681-1.428l-1.952 1.626 1.096 1.315 1.952-1.627-1.096-1.314zm-1.404 1.428h-2.277v1.711h2.277v-1.711z" fill="#2FD385"/></svg><svg fill="none" viewBox="0 0 84 63" id="footer-logo" xmlns="http://www.w3.org/2000/svg"><mask id="aya" fill="#fff"><path d="M35 31.625a4.375 4.375 0 11-8.75 0 4.375 4.375 0 018.75 0zm-6.767 0a2.392 2.392 0 104.784 0 2.392 2.392 0 00-4.785 0z"/></mask><path d="M35 31.625a4.375 4.375 0 11-8.75 0 4.375 4.375 0 018.75 0zm-6.767 0a2.392 2.392 0 104.784 0 2.392 2.392 0 00-4.785 0z" fill="#fff" stroke="#fff" stroke-width="1.75" mask="url(#aya)"/><mask id="ayb" fill="#fff"><path d="M69.125 31.625a4.375 4.375 0 11-8.75 0 4.375 4.375 0 018.75 0zm-6.767 0a2.392 2.392 0 104.784 0 2.392 2.392 0 00-4.784 0z"/></mask><path d="M69.125 31.625a4.375 4.375 0 11-8.75 0 4.375 4.375 0 018.75 0zm-6.767 0a2.392 2.392 0 104.784 0 2.392 2.392 0 00-4.784 0z" fill="#fff" stroke="#fff" stroke-width="1.75" mask="url(#ayb)"/><mask id="ayc" fill="#fff"><path d="M84 21.125a4.375 4.375 0 11-8.75 0 4.375 4.375 0 018.75 0zm-6.767 0a2.392 2.392 0 104.784 0 2.392 2.392 0 00-4.784 0z"/></mask><path d="M84 21.125a4.375 4.375 0 11-8.75 0 4.375 4.375 0 018.75 0zm-6.767 0a2.392 2.392 0 104.784 0 2.392 2.392 0 00-4.784 0z" fill="#fff" stroke="#fff" stroke-width="1.75" mask="url(#ayc)"/><mask id="ayd" fill="#fff"><path d="M76.125 42.125a4.375 4.375 0 11-8.75 0 4.375 4.375 0 018.75 0zm-6.767 0a2.392 2.392 0 104.784 0 2.392 2.392 0 00-4.784 0z"/></mask><path d="M76.125 42.125a4.375 4.375 0 11-8.75 0 4.375 4.375 0 018.75 0zm-6.767 0a2.392 2.392 0 104.784 0 2.392 2.392 0 00-4.784 0z" fill="#fff" stroke="#fff" stroke-width="1.75" mask="url(#ayd)"/><path d="M27.125 1l-1.313 12.25h8.75" stroke="#fff" stroke-width=".875"/><path d="M26.675 8.773l.338-.058.024-.342.495-6.935h6.186l.495 6.935.024.342.338.058c1.4.24 2.756.605 4.057 1.084l.322.118.191-.283 3.895-5.756 5.357 3.092-3.04 6.257-.15.308.263.219a23.333 23.333 0 012.968 2.968l.22.262.307-.15 6.257-3.04 3.093 5.357-2.185 1.478H45.92c-3.41-4.76-8.99-7.864-15.295-7.864-10.384 0-18.802 8.418-18.802 18.802s8.418 18.802 18.802 18.802c6.305 0 11.885-3.104 15.295-7.864h10.21l2.184 1.477-3.092 5.357-6.257-3.04-.308-.15-.219.263a23.321 23.321 0 01-2.968 2.968l-.263.22.15.307 3.04 6.257-5.357 3.093-3.895-5.757-.192-.283-.321.118a23.02 23.02 0 01-4.057 1.084l-.338.058-.024.342-.495 6.935h-6.186l-.495-6.935-.024-.342-.338-.058c-1.4-.24-2.756-.605-4.057-1.084l-.321-.118-.192.283-3.896 5.757-5.356-3.093 3.04-6.257.15-.308-.263-.219a23.328 23.328 0 01-2.968-2.968l-.22-.263-.307.15-6.257 3.04-3.092-5.357 5.756-3.895.283-.192-.118-.321a23.019 23.019 0 01-1.084-4.057l-.058-.338-.342-.024-6.936-.495v-6.186l6.936-.495.342-.024.058-.338c.24-1.4.605-2.756 1.084-4.057l.118-.321-.283-.192-5.756-3.896 3.092-5.356 6.257 3.04.308.15.219-.263a23.328 23.328 0 012.968-2.968l.263-.22-.15-.307-3.04-6.257 5.357-3.092 3.895 5.756.192.283.321-.118a23.019 23.019 0 014.057-1.084z" fill="#fff" stroke="#fff" stroke-width=".875"/><mask id="aye" fill="#fff"><path fill-rule="evenodd" clip-rule="evenodd" d="M45.626 26.813c-2.034-6.345-7.98-10.938-15.001-10.938-8.698 0-15.75 7.052-15.75 15.75 0 8.699 7.052 15.75 15.75 15.75 7.02 0 12.967-4.593 15.001-10.938h-3.005c-1.909 4.754-6.56 8.11-11.996 8.11-7.137 0-12.922-5.785-12.922-12.922 0-7.137 5.785-12.922 12.922-12.922 5.436 0 10.087 3.356 11.996 8.11h3.005z"/></mask><path fill-rule="evenodd" clip-rule="evenodd" d="M45.626 26.813c-2.034-6.345-7.98-10.938-15.001-10.938-8.698 0-15.75 7.052-15.75 15.75 0 8.699 7.052 15.75 15.75 15.75 7.02 0 12.967-4.593 15.001-10.938h-3.005c-1.909 4.754-6.56 8.11-11.996 8.11-7.137 0-12.922-5.785-12.922-12.922 0-7.137 5.785-12.922 12.922-12.922 5.436 0 10.087 3.356 11.996 8.11h3.005z" fill="#fff"/><path d="M45.626 26.813v.875h1.2l-.367-1.143-.833.267zm0 9.625l.833.267.366-1.142h-1.199v.874zm-3.005 0v-.876h-.592l-.22.55.812.325zm0-9.626l-.812.326.22.55h.592v-.875zM30.625 16.75c6.629 0 12.247 4.337 14.168 10.33l1.666-.535C44.313 19.85 38.036 15 30.625 15v1.75zM15.75 31.625c0-8.215 6.66-14.875 14.875-14.875V15C21.443 15 14 22.443 14 31.625h1.75zM30.625 46.5c-8.215 0-14.875-6.66-14.875-14.875H14c0 9.182 7.443 16.625 16.625 16.625V46.5zm14.168-10.33c-1.921 5.993-7.54 10.33-14.168 10.33v1.75c7.411 0 13.688-4.85 15.834-11.545l-1.666-.535zm.833-.608h-3.005v1.75h3.005v-1.75zm-15.001 9.86c5.805 0 10.77-3.585 12.808-8.658l-1.624-.653c-1.78 4.433-6.118 7.561-11.184 7.561v1.75zM16.828 31.625c0 7.62 6.177 13.797 13.797 13.797v-1.75c-6.653 0-12.047-5.394-12.047-12.047h-1.75zm13.797-13.797c-7.62 0-13.797 6.177-13.797 13.797h1.75c0-6.653 5.394-12.047 12.047-12.047v-1.75zm12.808 8.659c-2.037-5.074-7.003-8.659-12.808-8.659v1.75c5.066 0 9.404 3.128 11.184 7.56l1.624-.652zm-.812 1.2h3.005v-1.75h-3.005v1.75z" fill="#fff" mask="url(#aye)"/><mask id="ayf" fill="#fff"><path fill-rule="evenodd" clip-rule="evenodd" d="M39.218 27.285A9.625 9.625 0 1039.2 36h-3.158a6.963 6.963 0 11.055-8.682l3.121-.033z"/></mask><path fill-rule="evenodd" clip-rule="evenodd" d="M39.218 27.285A9.625 9.625 0 1039.2 36h-3.158a6.963 6.963 0 11.055-8.682l3.121-.033z" fill="#fff"/><path d="M39.218 27.285l.01.875 1.406-.015-.635-1.255-.78.395zM39.2 36l.78.398.65-1.273H39.2V36zm-3.158 0v-.875h-.417l-.263.325.68.55zm.055-8.682l-.687.542.266.338.43-.005-.009-.875zm-5.472-4.443a8.75 8.75 0 017.813 4.805l1.56-.79a10.5 10.5 0 00-9.373-5.765v1.75zm-8.75 8.75a8.75 8.75 0 018.75-8.75v-1.75c-5.799 0-10.5 4.701-10.5 10.5h1.75zm8.75 8.75a8.75 8.75 0 01-8.75-8.75h-1.75c0 5.799 4.701 10.5 10.5 10.5v-1.75zm7.796-4.773a8.75 8.75 0 01-7.796 4.773v1.75a10.5 10.5 0 009.355-5.727l-1.559-.796zm.78-.477h-3.159v1.75H39.2v-1.75zm-8.576 4.338a7.825 7.825 0 006.098-2.913l-1.361-1.1a6.075 6.075 0 01-4.737 2.263v1.75zm-7.838-7.838a7.838 7.838 0 007.838 7.838v-1.75a6.088 6.088 0 01-6.088-6.088h-1.75zm7.838-7.838a7.838 7.838 0 00-7.838 7.838h1.75a6.088 6.088 0 016.088-6.088v-1.75zm6.16 2.99a7.826 7.826 0 00-6.16-2.99v1.75c1.94 0 3.669.907 4.785 2.323l1.374-1.083zm-.678 1.416l3.12-.033-.018-1.75-3.121.034.019 1.75z" fill="#fff" mask="url(#ayf)"/><path d="M33.25 31.625h28M43.75 25.5h14.749l3.965-4.375H77M42.875 37.75h14.648l3.938 4.375h6.563" stroke="#fff" stroke-width="2.625"/></svg><svg fill="none" viewBox="0 0 99 74" id="footer-logo_black" xmlns="http://www.w3.org/2000/svg"><path d="M33 0h8l1 14c-3.92-.54-6.084-.561-10 0l1-14zM6.957 58.964l-4-6.928 11.624-7.866c1.493 3.665 2.556 5.55 5 8.66L6.957 58.964zM21.964 71.043l-6.928-4 6.134-12.624c3.125 2.428 4.988 3.528 8.66 5l-7.866 11.624zM15.036 6.957l6.928-4 7.866 11.624c-3.665 1.493-5.55 2.556-8.66 5L15.036 6.957zM2.957 21.964l4-6.928 12.624 6.134c-2.427 3.125-3.528 4.988-5 8.66L2.957 21.964zM33 74h8l1-14c-3.92.54-6.084.561-10 0l1 14zM58.964 6.957l-6.928-4-7.866 11.624c3.665 1.493 5.55 2.556 8.66 5l6.134-12.624zM52.036 71.043l6.928-4-6.134-12.624c-3.125 2.428-4.988 3.528-8.66 5l7.866 11.624zM0 33v8l14 1c-.54-3.92-.561-6.084 0-10L0 33z" fill="#202020"/><mask id="aza" fill="#fff"><path d="M42 37a5 5 0 11-10 0 5 5 0 0110 0zm-7.244 0a2.244 2.244 0 104.488 0 2.244 2.244 0 00-4.488 0z"/></mask><path d="M42 37a5 5 0 11-10 0 5 5 0 0110 0zm-7.244 0a2.244 2.244 0 104.488 0 2.244 2.244 0 00-4.488 0z" fill="#202020" stroke="#202020" stroke-width="2" mask="url(#aza)"/><path d="M98.756 23.5a5 5 0 11-10 0 5 5 0 0110 0zm-7.244 0a2.244 2.244 0 104.488 0 2.244 2.244 0 00-4.488 0z" fill="#202020"/><path d="M90.013 50.5a4.5 4.5 0 11-9 0 4.5 4.5 0 019 0zm-7.244 0a2.744 2.744 0 105.488 0 2.744 2.744 0 00-5.488 0zM80.5 37a4.5 4.5 0 11-9 0 4.5 4.5 0 019 0zm-7.244 0a2.744 2.744 0 105.488 0 2.744 2.744 0 00-5.488 0z" fill="#202020" stroke="#202020"/><path fill-rule="evenodd" clip-rule="evenodd" d="M61.806 24C57.123 15.082 47.772 9 37 9 21.536 9 9 21.536 9 37s12.536 28 28 28c10.772 0 20.123-6.082 24.806-15h-9.28c-3.714 4.432-9.29 7.25-15.526 7.25-11.184 0-20.25-9.066-20.25-20.25S25.816 16.75 37 16.75c6.235 0 11.812 2.818 15.527 7.25h9.279z" fill="#202020"/><path fill-rule="evenodd" clip-rule="evenodd" d="M67.043 15.036l4 6.928L68.034 24h-11.56a44.849 44.849 0 00-2.055-2.83l12.624-6.134zM56.48 50a40.63 40.63 0 01-2.061 2.83l12.624 6.134 4-6.928L68.034 50H56.48z" fill="#202020"/><path d="M41 37h31M50 29.5h19l6.5-6h16M50 44.5h19l6.5 6H81" stroke="#202020" stroke-width="3"/><path fill-rule="evenodd" clip-rule="evenodd" d="M52.91 31C50.487 24.572 44.278 20 37 20c-9.389 0-17 7.611-17 17s7.611 17 17 17c7.277 0 13.486-4.572 15.91-11h-3.267C47.397 47.725 42.58 50.991 37 50.991c-7.727 0-13.991-6.264-13.991-13.991 0-7.727 6.264-13.991 13.991-13.991 5.58 0 10.397 3.266 12.643 7.991h3.268z" fill="#202020"/><path fill-rule="evenodd" clip-rule="evenodd" d="M46.221 31A10.99 10.99 0 0037 26c-6.075 0-11 4.925-11 11s4.925 11 11 11a10.99 10.99 0 009.221-5H42.27a7.985 7.985 0 110-12h3.952z" fill="#202020"/></svg><svg fill="none" viewBox="0 0 74 74" id="gears" xmlns="http://www.w3.org/2000/svg"><path d="M65 37c0 15.464-12.536 28-28 28S9 52.464 9 37 21.536 9 37 9s28 12.536 28 28zm-48.25 0c0 11.184 9.066 20.25 20.25 20.25S57.25 48.184 57.25 37 48.184 16.75 37 16.75 16.75 25.816 16.75 37z" fill="#32428B"/><path d="M33 0h8l1 14c-3.92-.54-6.084-.561-10 0l1-14zM6.957 58.964l-4-6.928 11.624-7.866c1.493 3.665 2.556 5.55 5 8.66L6.957 58.964zM21.964 71.043l-6.928-4 6.134-12.624c3.125 2.428 4.988 3.528 8.66 5l-7.866 11.624zM15.036 6.957l6.928-4 7.866 11.624c-3.665 1.493-5.55 2.556-8.66 5L15.036 6.957zM2.957 21.964l4-6.928 12.624 6.134c-2.427 3.125-3.528 4.988-5 8.66L2.957 21.964zM33 74h8l1-14c-3.92.54-6.084.561-10 0l1 14zM71.043 21.964l-4-6.928-12.624 6.134c2.428 3.125 3.528 4.988 5 8.66l11.624-7.866zM58.964 6.957l-6.928-4-7.866 11.624c3.665 1.493 5.55 2.556 8.66 5l6.134-12.624zM52.036 71.043l6.928-4-6.134-12.624c-3.125 2.428-4.988 3.528-8.66 5l7.866 11.624zM67.043 58.964l4-6.928-11.624-7.866c-1.493 3.665-2.556 5.55-5 8.66l12.624 6.134zM0 33v8l14 1c-.54-3.92-.561-6.084 0-10L0 33zM74 33v8l-14 1c.54-3.92.561-6.084 0-10l14 1z" fill="#32428B"/><path d="M54 37c0 9.389-7.611 17-17 17s-17-7.611-17-17 7.611-17 17-17 17 7.611 17 17zm-30.991 0c0 7.727 6.264 13.991 13.991 13.991 7.727 0 13.991-6.264 13.991-13.991 0-7.727-6.264-13.991-13.991-13.991-7.727 0-13.991 6.264-13.991 13.991z" fill="#2FD385"/><path d="M48 37c0 6.075-4.925 11-11 11s-11-4.925-11-11 4.925-11 11-11 11 4.925 11 11zm-18.985 0a7.985 7.985 0 1015.97 0 7.985 7.985 0 00-15.97 0z" fill="#32428B"/><path d="M42 37a5 5 0 11-10 0 5 5 0 0110 0zm-7.244 0a2.244 2.244 0 104.488 0 2.244 2.244 0 00-4.488 0z" fill="#2FD385"/></svg><svg version="1.1" id="jpg" x="0" y="0" viewBox="0 0 78 77" xml:space="preserve" xmlns="http://www.w3.org/2000/svg"><style>.bbst0,.bbst1{fill:#2fd385}.bbst1{fill-rule:evenodd;clip-rule:evenodd}</style><path class="bbst0" d="M56.8 0H13.6c-1.3 0-2.3.9-2.3 2v39H16V4.1h40.9v14.2H73v54.6H16v-7.7h-4.7V75c0 1.1 1.1 2 2.3 2h61.8c1.3 0 2.3-.9 2.3-2V18.3L56.8 0z"/><path class="bbst0" d="M50 16l13 22H37l13-22z"/><path class="bbst0" d="M35.5 20l10 18h-20l10-18z"/><circle class="bbst0" cx="26" cy="15" r="4"/><path class="bbst1" d="M56.2 43H0v20.2h47.7L56.2 43zM17 48.1h-1.8v7.1c0 .9-.1 1.5-.3 1.8s-.5.4-.8.4c-.4 0-.7-.2-.9-.6-.1-.3-.2-.7-.2-1.4l-1.7.2c0 1.2.3 2.1.7 2.7.5.6 1.2.9 2 .9.7 0 1.2-.1 1.6-.4.4-.3.8-.7 1-1.3.2-.5.3-1.4.3-2.5v-6.9h.1zm3.2 0V59H22v-4.1h1.2c1.1 0 1.9-.1 2.3-.3s.8-.6 1.1-1.1c.3-.5.4-1.2.4-2 0-.9-.2-1.6-.5-2.1-.3-.6-.8-.9-1.3-1.1-.3-.1-1-.2-2.1-.2h-2.9zM22 53v-3.1h.9c.8 0 1.2 0 1.5.1.2.1.4.3.6.5s.2.6.2.9c0 .4-.1.7-.2.9-.2.2-.4.4-.6.5-.2.2-.7.2-1.4.2h-1zm12.1.1V55h2.1v1.4c-.3.3-.6.5-1 .7s-.7.2-1.1.2c-.8 0-1.4-.3-1.8-.9-.5-.7-.8-1.7-.8-3 0-1.2.2-2.1.7-2.7.5-.6 1.1-.9 1.9-.9.5 0 .9.1 1.3.4.4.3.6.7.7 1.3l1.8-.4c-.2-1.1-.6-1.9-1.2-2.4s-1.5-.8-2.6-.8c-.9 0-1.7.2-2.3.6-.6.4-1.2 1.1-1.6 1.9-.4.9-.6 1.9-.6 3.1 0 1.2.2 2.2.6 3.1.4.9.9 1.5 1.6 2 .7.4 1.5.6 2.3.6.7 0 1.4-.2 2.2-.5.7-.3 1.3-.7 1.7-1.2v-4.4h-3.9z"/></svg><svg fill="none" viewBox="0 0 34 61" id="left-arrow" xmlns="http://www.w3.org/2000/svg"><path d="M30.95 2L3 30.614l28.614 27.95" stroke="#BDBDBD" stroke-width="3" stroke-linecap="round"/></svg><svg fill="none" viewBox="0 0 99 74" id="logo" xmlns="http://www.w3.org/2000/svg"><path d="M33 0h8l1 14c-3.92-.54-6.084-.561-10 0l1-14zM6.957 58.964l-4-6.928 11.624-7.866c1.493 3.665 2.556 5.55 5 8.66L6.957 58.964zM21.964 71.043l-6.928-4 6.134-12.624c3.125 2.428 4.988 3.528 8.66 5l-7.866 11.624zM15.036 6.957l6.928-4 7.866 11.624c-3.665 1.493-5.55 2.556-8.66 5L15.036 6.957zM2.957 21.964l4-6.928 12.624 6.134c-2.427 3.125-3.528 4.988-5 8.66L2.957 21.964zM33 74h8l1-14c-3.92.54-6.084.561-10 0l1 14zM58.964 6.957l-6.928-4-7.866 11.624c3.665 1.493 5.55 2.556 8.66 5l6.134-12.624zM52.036 71.043l6.928-4-6.134-12.624c-3.125 2.428-4.988 3.528-8.66 5l7.866 11.624zM0 33v8l14 1c-.54-3.92-.561-6.084 0-10L0 33z" fill="#32428B"/><path d="M42 37a5 5 0 11-10 0 5 5 0 0110 0zm-7.244 0a2.244 2.244 0 104.488 0 2.244 2.244 0 00-4.488 0zM98.756 23.5a5 5 0 11-10 0 5 5 0 0110 0zm-7.244 0a2.244 2.244 0 104.488 0 2.244 2.244 0 00-4.488 0zM90.513 50.5a5 5 0 11-10 0 5 5 0 0110 0zm-7.244 0a2.244 2.244 0 104.488 0 2.244 2.244 0 00-4.488 0zM81 37a5 5 0 11-10 0 5 5 0 0110 0zm-7.244 0a2.244 2.244 0 104.488 0 2.244 2.244 0 00-4.488 0z" fill="#2FD385"/><path fill-rule="evenodd" clip-rule="evenodd" d="M61.806 24C57.123 15.082 47.772 9 37 9 21.536 9 9 21.536 9 37s12.536 28 28 28c10.772 0 20.123-6.082 24.806-15h-9.28c-3.714 4.432-9.29 7.25-15.526 7.25-11.184 0-20.25-9.066-20.25-20.25S25.816 16.75 37 16.75c6.235 0 11.812 2.818 15.527 7.25h9.279z" fill="#32428B"/><path fill-rule="evenodd" clip-rule="evenodd" d="M67.043 15.036l4 6.928L68.034 24h-11.56a44.849 44.849 0 00-2.055-2.83l12.624-6.134zM56.48 50a40.655 40.655 0 01-2.061 2.83l12.624 6.134 4-6.928L68.034 50H56.48z" fill="#32428B"/><path d="M41 37h31M50 29.5h19l6.5-6h16M50 44.5h19l6.5 6H81" stroke="#2FD385" stroke-width="3"/><path fill-rule="evenodd" clip-rule="evenodd" d="M52.91 31C50.487 24.572 44.278 20 37 20c-9.389 0-17 7.611-17 17s7.611 17 17 17c7.277 0 13.486-4.572 15.91-11h-3.267C47.397 47.725 42.58 50.991 37 50.991c-7.727 0-13.991-6.264-13.991-13.991 0-7.727 6.264-13.991 13.991-13.991 5.58 0 10.397 3.266 12.643 7.991h3.268z" fill="#2FD385"/><path fill-rule="evenodd" clip-rule="evenodd" d="M46.221 31A10.99 10.99 0 0037 26c-6.075 0-11 4.925-11 11s4.925 11 11 11a10.99 10.99 0 009.221-5H42.27a7.985 7.985 0 110-12h3.952z" fill="#32428B"/></svg><svg fill="none" viewBox="0 0 657 509" id="menudecor" xmlns="http://www.w3.org/2000/svg"><path d="M114.428 339c0 26.746-21.682 48.428-48.428 48.428S17.57 365.746 17.57 339 39.254 290.571 66 290.571c26.746 0 48.428 21.683 48.428 48.429zm-74.912 0c0 14.627 11.857 26.484 26.484 26.484 14.626 0 26.484-11.857 26.484-26.484 0-14.627-11.858-26.484-26.484-26.484-14.627 0-26.484 11.857-26.484 26.484zM492.172 339c0 26.746-21.683 48.428-48.429 48.428-26.746 0-48.429-21.682-48.429-48.428s21.683-48.429 48.429-48.429c26.746 0 48.429 21.683 48.429 48.429zm-74.913 0c0 14.627 11.857 26.484 26.484 26.484 14.627 0 26.484-11.857 26.484-26.484 0-14.627-11.857-26.484-26.484-26.484-14.627 0-26.484 11.857-26.484 26.484zM656.829 222.771c0 26.747-21.683 48.429-48.429 48.429-26.746 0-48.429-21.682-48.429-48.429 0-26.746 21.683-48.428 48.429-48.428 26.746 0 48.429 21.682 48.429 48.428zm-74.913 0c0 14.627 11.857 26.484 26.484 26.484 14.627 0 26.484-11.857 26.484-26.484 0-14.626-11.857-26.484-26.484-26.484-14.627 0-26.484 11.858-26.484 26.484zM569.657 455.229c0 26.746-21.682 48.428-48.428 48.428-26.747 0-48.429-21.682-48.429-48.428 0-26.747 21.682-48.429 48.429-48.429 26.746 0 48.428 21.682 48.428 48.429zm-74.912 0c0 14.626 11.857 26.484 26.484 26.484 14.626 0 26.484-11.858 26.484-26.484 0-14.627-11.858-26.484-26.484-26.484-14.627 0-26.484 11.857-26.484 26.484z" fill="#EEE"/><path d="M104.743 0H27.257l-5.805 81.265a259.628 259.628 0 00-45.756 12.231l-45.643-67.45-67.105 38.743 35.622 73.312a263.1 263.1 0 00-33.468 33.468l-73.313-35.622-38.743 67.105 67.451 45.643a259.54 259.54 0 00-12.232 45.758L-273 300.257v77.486l81.265 5.804a259.613 259.613 0 0012.231 45.757l-67.45 45.643 38.743 67.105 73.312-35.622a263.1 263.1 0 0033.468 33.468l-35.622 73.313 67.105 38.743 45.643-67.451a259.548 259.548 0 0045.758 12.232L27.257 678h77.486l5.804-81.265a259.613 259.613 0 0045.757-12.231l45.643 67.45 67.105-38.743-35.622-73.312a263.1 263.1 0 0033.468-33.468l73.313 35.622 38.743-67.105-29.142-19.719H232.799C196.06 507.855 135.05 542.283 66 542.283c-112.27 0-203.283-91.013-203.283-203.283 0-112.27 91.013-203.283 203.283-203.283 69.05 0 130.06 34.428 166.799 87.054h117.015l29.14-19.719-38.743-67.104-73.313 35.621a263.15 263.15 0 00-33.467-33.467l35.622-73.313-67.105-38.743-45.643 67.45a259.617 259.617 0 00-45.758-12.231L104.743 0z" fill="#EEE"/><path fill-rule="evenodd" clip-rule="evenodd" d="M232.054 285.729C209.541 215.497 143.708 164.657 66 164.657c-96.287 0-174.343 78.056-174.343 174.343 0 96.287 78.056 174.343 174.343 174.343 77.708 0 143.541-50.839 166.054-121.072H198.79c-21.128 52.616-72.62 89.768-132.79 89.768-78.998 0-143.038-64.041-143.038-143.039 0-78.998 64.04-143.038 143.038-143.038 60.17 0 111.662 37.151 132.789 89.767h33.265z" fill="#EEE"/><path fill-rule="evenodd" clip-rule="evenodd" d="M161.121 290.956C143.557 256.25 107.557 232.457 66 232.457 7.158 232.457-40.543 280.158-40.543 339c0 58.842 47.7 106.543 106.543 106.543 41.403 0 77.29-23.617 94.925-58.114h-34.958c-14.13 17.475-35.744 28.649-59.967 28.649-42.57 0-77.079-34.509-77.079-77.078S23.431 261.921 66 261.921c24.572 0 46.459 11.499 60.573 29.408l34.548-.373z" fill="#EEE"/><path d="M95.057 339H405M211.286 271.2h163.261l43.885-48.429h160.911M201.6 406.8h162.149l43.586 48.429h72.643" stroke="#EEE" stroke-width="29.057"/></svg><svg version="1.1" id="pdf" x="0" y="0" viewBox="0 0 78 77" xml:space="preserve" xmlns="http://www.w3.org/2000/svg"><style>.bfst0,.bfst1{fill:#2fd385}.bfst1{fill-rule:evenodd;clip-rule:evenodd}</style><path class="bfst0" d="M56.8 0H13.6c-1.3 0-2.3.9-2.3 2v39H16V4.1h40.9v14.2H73v54.6H16v-7.7h-4.7V75c0 1.1 1.1 2 2.3 2h61.8c1.3 0 2.3-.9 2.3-2V18.3L56.8 0z"/><path class="bfst0" d="M64.2 25H20.5v3h43.7v-3zM57.3 30.7H20.5v3h36.8v-3z"/><path class="bfst1" d="M56.2 43H0v20.2h47.7L56.2 43zm-44.3 5.1V59h1.8v-4.1h1.2c1.1 0 1.9-.1 2.3-.3s.8-.6 1.1-1.1c.3-.5.4-1.2.4-2 0-.9-.2-1.6-.5-2.1-.3-.6-.8-.9-1.3-1.1-.3-.1-1-.2-2.1-.2h-2.9zm1.8 4.9v-3.1h.9c.8 0 1.2 0 1.5.1.2.1.4.3.6.5s.2.6.2.9c0 .4-.1.7-.2.9-.2.2-.4.4-.6.5-.3.2-.7.2-1.4.2h-1zm11.2-4.9h-3.3V59H25c.7 0 1.3-.1 1.8-.3s.9-.5 1.2-.9c.3-.4.6-1 .8-1.7.2-.7.3-1.5.3-2.5s-.1-1.9-.3-2.6c-.2-.7-.5-1.3-.8-1.7-.4-.4-.8-.8-1.2-.9-.4-.2-1-.3-1.9-.3zm-1.5 9.1V50h.8c.7 0 1.2 0 1.5.1s.6.3.9.5c.2.3.4.6.5 1.1s.2 1.1.2 1.9c0 .8-.1 1.4-.2 1.9s-.2.8-.4 1.1c-.2.2-.4.4-.6.5-.3.1-.7.2-1.3.2l-1.4-.1zm8.6-9.1V59h1.8v-4.6h3.7v-1.8h-3.7V50h4.3v-1.8H32v-.1z"/></svg><svg version="1.1" id="png" x="0" y="0" viewBox="0 0 78 77" xml:space="preserve" xmlns="http://www.w3.org/2000/svg"><style>.bgst0,.bgst1{fill:#2fd385}.bgst1{fill-rule:evenodd;clip-rule:evenodd}</style><path class="bgst0" d="M56.8 0H13.6c-1.3 0-2.3.9-2.3 2v39H16V4.1h40.9v14.2H73v54.6H16v-7.7h-4.7V75c0 1.1 1.1 2 2.3 2h61.8c1.3 0 2.3-.9 2.3-2V18.3L56.8 0z"/><path class="bgst0" d="M50 16l13 22H37l13-22z"/><path class="bgst0" d="M35.5 20l10 18h-20l10-18z"/><circle class="bgst0" cx="26" cy="15" r="4"/><path class="bgst1" d="M56.2 43H0v20.2h47.7L56.2 43zm-44.3 5.1V59h1.8v-4.1h1.2c1.1 0 1.9-.1 2.3-.3s.8-.6 1.1-1.1c.3-.5.4-1.2.4-2 0-.9-.2-1.6-.5-2.1-.3-.6-.8-.9-1.3-1.1-.3-.1-1-.2-2.1-.2h-2.9zm1.8 4.9v-3.1h.9c.8 0 1.2 0 1.5.1.2.1.4.3.6.5s.2.6.2.9c0 .4-.1.7-.2.9-.2.2-.4.4-.6.5-.3.2-.7.2-1.4.2h-1zm8-4.9V59h1.7v-7.1L27 59h1.8V48.1h-1.7v7.3l-3.7-7.3h-1.7zm14.5 5V55h2.1v1.4c-.3.3-.6.5-1 .7s-.7.2-1.1.2c-.8 0-1.4-.3-1.8-.9-.5-.7-.8-1.7-.8-3 0-1.2.2-2.1.7-2.7.5-.6 1.1-.9 1.9-.9.5 0 .9.1 1.3.4.4.3.6.7.7 1.3l1.8-.4c-.2-1.1-.6-1.9-1.2-2.4s-1.5-.8-2.6-.8c-.9 0-1.7.2-2.3.6-.6.4-1.2 1.1-1.6 1.9-.4.9-.6 1.9-.6 3.1 0 1.2.2 2.2.6 3.1.4.9.9 1.5 1.6 2 .7.4 1.5.6 2.3.6.7 0 1.4-.2 2.2-.5.7-.3 1.3-.7 1.7-1.2v-4.4h-3.9z"/></svg><svg version="1.1" id="pptx" x="0" y="0" viewBox="0 0 78 77" xml:space="preserve" xmlns="http://www.w3.org/2000/svg"><style>.bhst0,.bhst1{fill:#2fd385}.bhst1{fill-rule:evenodd;clip-rule:evenodd}</style><path class="bhst0" d="M56.8 0H13.6c-1.3 0-2.3.9-2.3 2v39H16V4.1h40.9v14.2H73v54.6H16v-7.7h-4.7V75c0 1.1 1.1 2 2.3 2h61.8c1.3 0 2.3-.9 2.3-2V18.3L56.8 0z"/><path class="bhst1" d="M61 43H0v20.2h51.8L61 43zm-49.1 5.1V59h1.8v-4.1h1.2c1.1 0 1.9-.1 2.3-.3s.8-.6 1.1-1.1c.3-.5.4-1.2.4-2 0-.9-.2-1.6-.5-2.1-.3-.6-.8-.9-1.3-1.1-.3-.1-1-.2-2.1-.2h-2.9zm1.8 4.9v-3.1h.9c.8 0 1.2 0 1.5.1.2.1.4.3.6.5s.2.6.2.9c0 .4-.1.7-.2.9-.2.2-.4.4-.6.5-.3.2-.7.2-1.4.2h-1zm7.9-4.9V59h1.8v-4.1h1.2c1.1 0 1.9-.1 2.3-.3s.8-.6 1.1-1.1c.3-.5.4-1.2.4-2 0-.9-.2-1.6-.5-2.1-.3-.6-.8-.9-1.3-1.1-.3-.1-1-.2-2.1-.2h-2.9zm1.8 4.9v-3.1h.9c.8 0 1.2 0 1.5.1.2.1.4.3.6.5s.2.6.2.9c0 .4-.1.7-.2.9-.2.2-.4.4-.6.5-.2.2-.7.2-1.4.2h-1zm10-3.1V59h1.8v-9.1h2.7v-1.8h-7.1v1.8h2.6zm9.1 3.4l-3 5.7h2.2l2-3.8 2 3.8h2.2l-3.1-5.6 2.8-5.3h-2.1l-1.8 3.5-1.8-3.5h-2.1l2.7 5.2z"/></svg><svg fill="none" viewBox="0 0 78 77" id="rar" xmlns="http://www.w3.org/2000/svg"><path d="M56.82 0H13.623c-1.284 0-2.34.924-2.34 2.048V41h4.68V4.096h40.858v14.2h16.223v54.608h-57.08v-7.67h-4.68v9.718c0 1.124 1.055 2.048 2.34 2.048h61.76c1.284 0 2.34-.924 2.34-2.048V18.295L56.82 0z" fill="#2FD385"/><path fill-rule="evenodd" clip-rule="evenodd" d="M56.158 43H0v20.22h47.697L56.157 43zm-44.242 5.076V59h1.804v-4.56h.372c.418 0 .72.042.91.126.188.08.367.229.536.447.169.214.49.75.961 1.61L17.811 59h2.153l-1.088-2.131c-.437-.855-.782-1.446-1.035-1.774a4.47 4.47 0 00-.962-.916c.755-.134 1.337-.462 1.744-.984.412-.521.618-1.21.618-2.064 0-.675-.134-1.254-.402-1.736-.268-.487-.611-.827-1.028-1.021-.418-.199-1.113-.298-2.087-.298h-3.808zm3.145 4.62H13.72v-2.772h1.416c.81 0 1.299.027 1.468.082.238.08.427.226.566.44.139.208.209.486.209.834 0 .363-.07.653-.21.872-.138.219-.32.365-.543.44-.224.07-.745.104-1.565.104zM28.424 59h1.967l-3.584-10.924h-1.915L21.405 59h1.922l.738-2.481h3.577L28.424 59zm-2.593-8.376l1.23 4.054h-2.445l1.215-4.054zm6.895-2.548V59h1.803v-4.56h.373c.417 0 .72.042.91.126.188.08.367.229.536.447.169.214.489.75.96 1.61L38.62 59h2.154l-1.088-2.131c-.437-.855-.782-1.446-1.036-1.774a4.47 4.47 0 00-.961-.916c.755-.134 1.336-.462 1.744-.984.412-.521.618-1.21.618-2.064 0-.675-.134-1.254-.402-1.736-.269-.487-.611-.827-1.029-1.021-.417-.199-1.112-.298-2.086-.298h-3.808zm3.145 4.62h-1.342v-2.772h1.416c.81 0 1.3.027 1.468.082.239.08.428.226.567.44.139.208.208.486.208.834 0 .363-.07.653-.209.872-.139.219-.32.365-.543.44-.224.07-.746.104-1.565.104zM31 17a4 4 0 004-4c0-2.21-1.79-10-4-10s-4 7.79-4 10a4 4 0 004 4zm0-1.75c1.325 0 2.4-1.175 2.4-2.625S32.325 10 31 10c-1.326 0-2.4 1.175-2.4 2.625s1.074 2.625 2.4 2.625z" fill="#2FD385"/><path d="M29 21a2 2 0 114 0v2a2 2 0 11-4 0v-2zM29 29a2 2 0 114 0v2a2 2 0 11-4 0v-2zM29 37a2 2 0 114 0v2a2 2 0 11-4 0v-2z" fill="#2FD385"/></svg><svg fill="none" viewBox="0 0 33 61" id="right-arrow" xmlns="http://www.w3.org/2000/svg"><path d="M2.284 58.569l28.284-28.285L2.284 2" stroke="#BDBDBD" stroke-width="3" stroke-linecap="round"/></svg><svg version="1.1" id="white_csv" x="0" y="0" viewBox="0 0 78 77" xml:space="preserve" xmlns="http://www.w3.org/2000/svg"><style>.bkst0,.bkst1{fill:#fff}.bkst1{stroke:#fff;stroke-width:2}.bkst2{fill-rule:evenodd;clip-rule:evenodd;fill:#fff}</style><path class="bkst0" d="M56.8 0H13.6c-1.3 0-2.3.9-2.3 2v39H16V4.1h40.9v14.2H73v54.6H16v-7.7h-4.7V75c0 1.1 1.1 2 2.3 2h61.8c1.3 0 2.3-.9 2.3-2V18.3L56.8 0z"/><path class="bkst1" d="M23 22h41v16H23zM22 30h42M31 21v17.5M39 21v17.5M47.5 21v17.5m8.5-17V39"/><path class="bkst2" d="M56.2 43H0v20.2h47.7L56.2 43zM19.4 55.7l-1.8-.7c-.2.8-.4 1.4-.8 1.8-.3.4-.8.6-1.2.6-.7 0-1.2-.3-1.6-.9-.4-.6-.6-1.6-.6-2.9 0-1.3.2-2.3.6-2.9.4-.6 1-.9 1.6-.9.5 0 .9.2 1.2.5s.6.8.7 1.4l1.8-.5c-.2-1-.6-1.7-1.1-2.2-.7-.7-1.5-1-2.5-1-1.2 0-2.2.5-2.9 1.4-.8 1.1-1.3 2.5-1.3 4.4 0 1.8.4 3.2 1.3 4.2.7.9 1.7 1.3 2.8 1.3.9 0 1.7-.3 2.3-.8.8-.7 1.2-1.6 1.5-2.8zm4.2-.5l-1.8.2c.2 2.5 1.5 3.7 3.7 3.7 1.2 0 2.2-.3 2.7-1 .6-.6.9-1.4.9-2.4 0-.7-.1-1.2-.3-1.7-.2-.5-.5-.8-.9-1.1s-1.1-.6-2-.8-1.4-.5-1.6-.7-.4-.5-.4-.8.1-.6.4-.8.6-.3 1.1-.3.9.1 1.1.4c.3.2.4.6.5 1.2l1.8-.1c0-1.1-.3-1.9-.9-2.5s-1.4-.9-2.5-.9c-.7 0-1.3.1-1.8.4s-.9.6-1.1 1.1c-.3.5-.4 1-.4 1.6 0 .5.1 1 .3 1.4.2.4.5.8.9 1.1s.9.5 1.7.8c.9.3 1.4.5 1.6.6s.4.3.5.4c.1.2.2.4.2.6 0 .4-.2.8-.5 1.1s-.7.4-1.3.4c-1 .2-1.7-.5-1.9-1.9zm7.5-7.1L34.3 59h1.9l3.2-10.9h-1.9l-2.2 8.1-2.3-8.1h-1.9z"/></svg><svg version="1.1" id="white_doc" x="0" y="0" viewBox="0 0 78 77" xml:space="preserve" xmlns="http://www.w3.org/2000/svg"><style>.blst0,.blst1{fill:#fff}.blst1{fill-rule:evenodd;clip-rule:evenodd}</style><path class="blst0" d="M56.8 0H13.6c-1.3 0-2.3.9-2.3 2v39H16V4.1h40.9v14.2H73v54.6H16v-7.7h-4.7V75c0 1.1 1.1 2 2.3 2h61.8c1.3 0 2.3-.9 2.3-2V18.3L56.8 0z"/><path class="blst1" d="M56.2 43H0v20.2h47.7L56.2 43zm-41 5.1h-3.3V59h3.4c.7 0 1.3-.1 1.8-.3s.9-.5 1.2-.9c.3-.4.6-1 .8-1.7.2-.7.3-1.5.3-2.5s-.1-1.9-.3-2.6c-.2-.7-.5-1.3-.8-1.7-.4-.4-.8-.8-1.2-.9-.4-.2-1.1-.3-1.9-.3zm-1.5 9.1V50h.8c.7 0 1.2 0 1.5.1.3.1.6.3.9.5.2.3.4.6.5 1.1s.2 1.1.2 1.9c0 .8-.1 1.4-.2 1.9s-.2.8-.4 1.1c-.2.2-.4.4-.6.5-.3.1-.7.2-1.3.2l-1.4-.1zm8.8-6.8c-.4.8-.6 1.9-.6 3.2 0 1.8.4 3.2 1.3 4.2.8.9 1.8 1.3 3.1 1.3s2.3-.5 3.1-1.4c.9-1 1.3-2.5 1.3-4.3s-.4-3.2-1.2-4.2c-.8-1-1.8-1.5-3.1-1.5-.9 0-1.6.2-2.3.6-.7.6-1.2 1.2-1.6 2.1zm2 6c-.5-.6-.7-1.6-.7-2.8 0-1.3.2-2.2.7-2.8s1.1-.9 1.8-.9 1.3.3 1.8.9c.5.6.7 1.5.7 2.8s-.2 2.3-.7 2.9c-.5.6-1.1.9-1.8.9-.7-.1-1.3-.4-1.8-1zm16.4-.7l-1.7-.7c-.2.8-.4 1.4-.8 1.8-.3.4-.8.6-1.2.6-.7 0-1.2-.3-1.6-.9-.4-.6-.6-1.6-.6-2.9 0-1.3.2-2.3.6-2.9.4-.6 1-.9 1.6-.9.5 0 .9.2 1.2.5s.6.8.7 1.4l1.8-.5c-.2-1-.6-1.7-1.1-2.2-.7-.7-1.5-1-2.5-1-1.2 0-2.2.5-2.9 1.4-.8 1.1-1.3 2.5-1.3 4.4 0 1.8.4 3.2 1.3 4.2.7.9 1.7 1.3 2.8 1.3.9 0 1.7-.3 2.3-.8.7-.7 1.1-1.6 1.4-2.8z"/><path class="blst0" d="M64 24H20v3h44v-3zM64 29H20v3h44v-3zM53 19H20v3h33v-3zM42 14H20v3h22v-3zM64 34H20v3h44v-3z"/></svg><svg version="1.1" id="white_jpg" x="0" y="0" viewBox="0 0 78 77" xml:space="preserve" xmlns="http://www.w3.org/2000/svg"><style>.bmst0,.bmst1{fill:#fff}.bmst1{fill-rule:evenodd;clip-rule:evenodd}</style><path class="bmst0" d="M56.8 0H13.6c-1.3 0-2.3.9-2.3 2v39H16V4.1h40.9v14.2H73v54.6H16v-7.7h-4.7V75c0 1.1 1.1 2 2.3 2h61.8c1.3 0 2.3-.9 2.3-2V18.3L56.8 0z"/><path class="bmst0" d="M50 16l13 22H37l13-22z"/><path class="bmst0" d="M35.5 20l10 18h-20l10-18z"/><circle class="bmst0" cx="26" cy="15" r="4"/><path class="bmst1" d="M56.2 43H0v20.2h47.7L56.2 43zM17 48.1h-1.8v7.1c0 .9-.1 1.5-.3 1.8s-.5.4-.8.4c-.4 0-.7-.2-.9-.6-.1-.3-.2-.7-.2-1.4l-1.7.2c0 1.2.3 2.1.7 2.7.5.6 1.2.9 2 .9.7 0 1.2-.1 1.6-.4.4-.3.8-.7 1-1.3.2-.5.3-1.4.3-2.5v-6.9h.1zm3.2 0V59H22v-4.1h1.2c1.1 0 1.9-.1 2.3-.3s.8-.6 1.1-1.1c.3-.5.4-1.2.4-2 0-.9-.2-1.6-.5-2.1-.3-.6-.8-.9-1.3-1.1-.3-.1-1-.2-2.1-.2h-2.9zM22 53v-3.1h.9c.8 0 1.2 0 1.5.1.2.1.4.3.6.5s.2.6.2.9c0 .4-.1.7-.2.9-.2.2-.4.4-.6.5-.2.2-.7.2-1.4.2h-1zm12.1.1V55h2.1v1.4c-.3.3-.6.5-1 .7s-.7.2-1.1.2c-.8 0-1.4-.3-1.8-.9-.5-.7-.8-1.7-.8-3 0-1.2.2-2.1.7-2.7.5-.6 1.1-.9 1.9-.9.5 0 .9.1 1.3.4.4.3.6.7.7 1.3l1.8-.4c-.2-1.1-.6-1.9-1.2-2.4s-1.5-.8-2.6-.8c-.9 0-1.7.2-2.3.6-.6.4-1.2 1.1-1.6 1.9-.4.9-.6 1.9-.6 3.1 0 1.2.2 2.2.6 3.1.4.9.9 1.5 1.6 2 .7.4 1.5.6 2.3.6.7 0 1.4-.2 2.2-.5.7-.3 1.3-.7 1.7-1.2v-4.4h-3.9z"/></svg><svg version="1.1" id="white_pdf" x="0" y="0" viewBox="0 0 78 77" xml:space="preserve" xmlns="http://www.w3.org/2000/svg"><style>.bnst0,.bnst1{fill:#fff}.bnst1{fill-rule:evenodd;clip-rule:evenodd}</style><path class="bnst0" d="M56.8 0H13.6c-1.3 0-2.3.9-2.3 2v39H16V4.1h40.9v14.2H73v54.6H16v-7.7h-4.7V75c0 1.1 1.1 2 2.3 2h61.8c1.3 0 2.3-.9 2.3-2V18.3L56.8 0z"/><path class="bnst0" d="M64.2 25H20.5v3h43.7v-3zM57.3 30.7H20.5v3h36.8v-3z"/><path class="bnst1" d="M56.2 43H0v20.2h47.7L56.2 43zm-44.3 5.1V59h1.8v-4.1h1.2c1.1 0 1.9-.1 2.3-.3s.8-.6 1.1-1.1c.3-.5.4-1.2.4-2 0-.9-.2-1.6-.5-2.1-.3-.6-.8-.9-1.3-1.1-.3-.1-1-.2-2.1-.2h-2.9zm1.8 4.9v-3.1h.9c.8 0 1.2 0 1.5.1.2.1.4.3.6.5s.2.6.2.9c0 .4-.1.7-.2.9-.2.2-.4.4-.6.5-.3.2-.7.2-1.4.2h-1zm11.2-4.9h-3.3V59H25c.7 0 1.3-.1 1.8-.3s.9-.5 1.2-.9c.3-.4.6-1 .8-1.7.2-.7.3-1.5.3-2.5s-.1-1.9-.3-2.6-.5-1.3-.8-1.7c-.4-.4-.8-.8-1.2-.9-.4-.2-1-.3-1.9-.3zm-1.5 9.1V50h.8c.7 0 1.2 0 1.5.1s.6.3.9.5c.2.3.4.6.5 1.1s.2 1.1.2 1.9c0 .8-.1 1.4-.2 1.9s-.2.8-.4 1.1c-.2.2-.4.4-.6.5-.3.1-.7.2-1.3.2l-1.4-.1zm8.6-9.1V59h1.8v-4.6h3.7v-1.8h-3.7V50h4.3v-1.8H32v-.1z"/></svg><svg version="1.1" id="white_png" x="0" y="0" viewBox="0 0 78 77" xml:space="preserve" xmlns="http://www.w3.org/2000/svg"><style>.bost0,.bost1{fill:#fff}.bost1{fill-rule:evenodd;clip-rule:evenodd}</style><path class="bost0" d="M56.8 0H13.6c-1.3 0-2.3.9-2.3 2v39H16V4.1h40.9v14.2H73v54.6H16v-7.7h-4.7V75c0 1.1 1.1 2 2.3 2h61.8c1.3 0 2.3-.9 2.3-2V18.3L56.8 0z"/><path class="bost0" d="M50 16l13 22H37l13-22z"/><path class="bost0" d="M35.5 20l10 18h-20l10-18z"/><circle class="bost0" cx="26" cy="15" r="4"/><path class="bost1" d="M56.2 43H0v20.2h47.7L56.2 43zm-44.3 5.1V59h1.8v-4.1h1.2c1.1 0 1.9-.1 2.3-.3s.8-.6 1.1-1.1c.3-.5.4-1.2.4-2 0-.9-.2-1.6-.5-2.1-.3-.6-.8-.9-1.3-1.1-.3-.1-1-.2-2.1-.2h-2.9zm1.8 4.9v-3.1h.9c.8 0 1.2 0 1.5.1.2.1.4.3.6.5s.2.6.2.9c0 .4-.1.7-.2.9-.2.2-.4.4-.6.5-.3.2-.7.2-1.4.2h-1zm8-4.9V59h1.7v-7.1L27 59h1.8V48.1h-1.7v7.3l-3.7-7.3h-1.7zm14.5 5V55h2.1v1.4c-.3.3-.6.5-1 .7s-.7.2-1.1.2c-.8 0-1.4-.3-1.8-.9-.5-.7-.8-1.7-.8-3 0-1.2.2-2.1.7-2.7.5-.6 1.1-.9 1.9-.9.5 0 .9.1 1.3.4.4.3.6.7.7 1.3l1.8-.4c-.2-1.1-.6-1.9-1.2-2.4s-1.5-.8-2.6-.8c-.9 0-1.7.2-2.3.6-.6.4-1.2 1.1-1.6 1.9-.4.9-.6 1.9-.6 3.1 0 1.2.2 2.2.6 3.1.4.9.9 1.5 1.6 2 .7.4 1.5.6 2.3.6.7 0 1.4-.2 2.2-.5.7-.3 1.3-.7 1.7-1.2v-4.4h-3.9z"/></svg><svg version="1.1" id="white_pptx" x="0" y="0" viewBox="0 0 78 77" xml:space="preserve" xmlns="http://www.w3.org/2000/svg"><style>.bpst0,.bpst1{fill:#fff}.bpst1{fill-rule:evenodd;clip-rule:evenodd}</style><path class="bpst0" d="M56.8 0H13.6c-1.3 0-2.3.9-2.3 2v39H16V4.1h40.9v14.2H73v54.6H16v-7.7h-4.7V75c0 1.1 1.1 2 2.3 2h61.8c1.3 0 2.3-.9 2.3-2V18.3L56.8 0z"/><path class="bpst1" d="M61 43H0v20.2h51.8L61 43zm-49.1 5.1V59h1.8v-4.1h1.2c1.1 0 1.9-.1 2.3-.3s.8-.6 1.1-1.1c.3-.5.4-1.2.4-2 0-.9-.2-1.6-.5-2.1-.3-.6-.8-.9-1.3-1.1-.3-.1-1-.2-2.1-.2h-2.9zm1.8 4.9v-3.1h.9c.8 0 1.2 0 1.5.1.2.1.4.3.6.5s.2.6.2.9c0 .4-.1.7-.2.9-.2.2-.4.4-.6.5-.3.2-.7.2-1.4.2h-1zm7.9-4.9V59h1.8v-4.1h1.2c1.1 0 1.9-.1 2.3-.3s.8-.6 1.1-1.1c.3-.5.4-1.2.4-2 0-.9-.2-1.6-.5-2.1-.3-.6-.8-.9-1.3-1.1-.3-.1-1-.2-2.1-.2h-2.9zm1.8 4.9v-3.1h.9c.8 0 1.2 0 1.5.1.2.1.4.3.6.5s.2.6.2.9c0 .4-.1.7-.2.9-.2.2-.4.4-.6.5-.2.2-.7.2-1.4.2h-1zm10-3.1V59h1.8v-9.1h2.7v-1.8h-7.1v1.8h2.6zm9.1 3.4l-3 5.7h2.2l2-3.8 2 3.8h2.2l-3.1-5.6 2.8-5.3h-2.1l-1.8 3.5-1.8-3.5h-2.1l2.7 5.2z"/></svg><svg version="1.1" id="white_rar" x="0" y="0" viewBox="0 0 78 77" xml:space="preserve" xmlns="http://www.w3.org/2000/svg"><style>.bqst0,.bqst1{fill:#fff}.bqst1{fill-rule:evenodd;clip-rule:evenodd}</style><path class="bqst0" d="M56.8 0H13.6c-1.3 0-2.3.9-2.3 2v39H16V4.1h40.9v14.2H73v54.6H16v-7.7h-4.7V75c0 1.1 1.1 2 2.3 2h61.8c1.3 0 2.3-.9 2.3-2V18.3L56.8 0z"/><path class="bqst1" d="M56.2 43H0v20.2h47.7L56.2 43zm-44.3 5.1V59h1.8v-4.6h.4c.4 0 .7 0 .9.1.2.1.4.2.5.4.2.2.5.8 1 1.6l1.3 2.4H20l-1.1-2.1c-.4-.9-.8-1.4-1-1.8-.3-.3-.6-.6-1-.9.8-.1 1.3-.5 1.7-1 .4-.5.6-1.2.6-2.1 0-.7-.1-1.3-.4-1.7-.3-.5-.6-.8-1-1-.4-.2-1.1-.3-2.1-.3h-3.8zm3.2 4.6h-1.3v-2.8h1.4c.8 0 1.3 0 1.5.1.2.1.4.2.6.4.1.2.2.5.2.8 0 .4-.1.7-.2.9-.1.2-.3.4-.5.4-.4.2-.9.2-1.7.2zM28.4 59h2l-3.6-10.9h-1.9L21.4 59h1.9l.7-2.5h3.6l.8 2.5zm-2.6-8.4l1.2 4.1h-2.4l1.2-4.1zm6.9-2.5V59h1.8v-4.6h.4c.4 0 .7 0 .9.1.2.1.4.2.5.4.2.2.5.8 1 1.6l1.3 2.4h2.2l-1.1-2.1c-.4-.9-.8-1.4-1-1.8-.3-.3-.6-.6-1-.9.8-.1 1.3-.5 1.7-1 .4-.5.6-1.2.6-2.1 0-.7-.1-1.3-.4-1.7-.3-.5-.6-.8-1-1-.4-.2-1.1-.3-2.1-.3h-3.8zm3.2 4.6h-1.3v-2.8H36c.8 0 1.3 0 1.5.1.2.1.4.2.6.4.1.2.2.5.2.8 0 .4-.1.7-.2.9-.1.2-.3.4-.5.4-.4.2-.9.2-1.7.2zM31 17c2.2 0 4-1.8 4-4S33.2 3 31 3s-4 7.8-4 10 1.8 4 4 4zm0-1.7c1.3 0 2.4-1.2 2.4-2.6S32.3 10 31 10s-2.4 1.2-2.4 2.6 1.1 2.7 2.4 2.7z"/><path class="bqst0" d="M29 21c0-1.1.9-2 2-2s2 .9 2 2v2c0 1.1-.9 2-2 2s-2-.9-2-2v-2zM29 29c0-1.1.9-2 2-2s2 .9 2 2v2c0 1.1-.9 2-2 2s-2-.9-2-2v-2zM29 37c0-1.1.9-2 2-2s2 .9 2 2v2c0 1.1-.9 2-2 2s-2-.9-2-2v-2z"/></svg><svg version="1.1" id="white_xls" x="0" y="0" viewBox="0 0 78 77" xml:space="preserve" xmlns="http://www.w3.org/2000/svg"><style>.brst0,.brst1{fill:#fff}.brst1{fill-rule:evenodd;clip-rule:evenodd}.brst2{fill:none;stroke:#fff;stroke-width:2}</style><path class="brst0" d="M56.8 0H13.6c-1.3 0-2.3.9-2.3 2v39H16V4.1h40.9v14.2H73v54.6H16v-7.7h-4.7V75c0 1.1 1.1 2 2.3 2h61.8c1.3 0 2.3-.9 2.3-2V18.3L56.8 0z"/><path class="brst1" d="M56.2 43H0v20.2h47.7L56.2 43zM14.1 53.3L11 59h2.2l2-3.8 2 3.8h2.2l-3.1-5.6 2.8-5.3H17l-1.8 3.5-1.8-3.5h-2.1l2.8 5.2zm7.6-5.1V59H28v-1.8h-4.5v-9h-1.8zm10.3 7l-1.8.2c.2 2.5 1.5 3.7 3.7 3.7 1.2 0 2.2-.3 2.7-1 .6-.6.9-1.4.9-2.4 0-.7-.1-1.2-.3-1.7s-.5-.8-.9-1.1-1.1-.6-2-.8-1.4-.5-1.6-.7c-.2-.2-.4-.5-.4-.8s.1-.6.4-.8c.3-.2.6-.3 1.1-.3s.9.1 1.1.4c.3.2.4.6.5 1.2l1.8-.1c0-1.1-.3-1.9-.9-2.5-.6-.6-1.4-.9-2.5-.9-.7 0-1.3.1-1.8.4-.5.2-.9.6-1.1 1.1-.3.5-.4 1-.4 1.6 0 .5.1 1 .3 1.4.2.4.5.8.9 1.1s.9.5 1.7.8c.9.3 1.4.5 1.6.6.2.1.4.3.5.4.1.2.2.4.2.6 0 .4-.2.8-.5 1.1s-.7.4-1.3.4c-1.1.2-1.7-.5-1.9-1.9z"/><path class="brst2" d="M23 22h41v16H23zM22 30h42M31 21v17.5M39 21v17.5M47.5 21v17.5m8.5-17V39"/></svg><svg version="1.1" id="white_zip" x="0" y="0" viewBox="0 0 78 77" xml:space="preserve" xmlns="http://www.w3.org/2000/svg"><style>.bsst0,.bsst1{fill:#fff}.bsst1{fill-rule:evenodd;clip-rule:evenodd}</style><path class="bsst0" d="M56.8 0H13.6c-1.3 0-2.3.9-2.3 2v39H16V4.1h40.9v14.2H73v54.6H16v-7.7h-4.7V75c0 1.1 1.1 2 2.3 2h61.8c1.3 0 2.3-.9 2.3-2V18.3L56.8 0z"/><path class="bsst1" d="M56.2 43H0v20.2h47.7L56.2 43zM11.1 57v2h7.3v-1.8h-5.1l4.9-7.4v-1.7h-6.6v1.8h4.2L11.1 57zm9.8-8.9V59h1.8V48.1h-1.8zm4.9 0V59h1.8v-4.1h1.2c1.1 0 1.9-.1 2.3-.3.4-.2.8-.6 1.1-1.1.3-.5.4-1.2.4-2 0-.9-.2-1.6-.5-2.1-.3-.6-.8-.9-1.3-1.1-.3-.1-1-.2-2.1-.2h-2.9zm1.8 4.9v-3.1h.9c.8 0 1.2 0 1.5.1.2.1.4.3.6.5.2.2.2.6.2.9 0 .4-.1.7-.2.9-.2.2-.4.4-.6.5-.3.2-.7.2-1.4.2h-1zM31 17c2.2 0 4-1.8 4-4S33.2 3 31 3s-4 7.8-4 10 1.8 4 4 4zm0-1.7c1.3 0 2.4-1.2 2.4-2.6S32.3 10 31 10s-2.4 1.2-2.4 2.6 1.1 2.7 2.4 2.7z"/><path class="bsst0" d="M29 21c0-1.1.9-2 2-2s2 .9 2 2v2c0 1.1-.9 2-2 2s-2-.9-2-2v-2zM29 29c0-1.1.9-2 2-2s2 .9 2 2v2c0 1.1-.9 2-2 2s-2-.9-2-2v-2zM29 37c0-1.1.9-2 2-2s2 .9 2 2v2c0 1.1-.9 2-2 2s-2-.9-2-2v-2z"/></svg><svg fill="none" viewBox="0 0 78 77" id="xls" xmlns="http://www.w3.org/2000/svg"><path d="M56.82 0H13.623c-1.284 0-2.34.924-2.34 2.048V41h4.68V4.096h40.858v14.2h16.223v54.608h-57.08v-7.67h-4.68v9.718c0 1.124 1.055 2.048 2.34 2.048h61.76c1.284 0 2.34-.924 2.34-2.048V18.295L56.82 0z" fill="#2FD385"/><path fill-rule="evenodd" clip-rule="evenodd" d="M56.158 43H0v20.22h47.697L56.157 43zM14.07 53.3L11.007 59h2.169l1.99-3.778L17.154 59h2.183l-3.062-5.618 2.78-5.306H16.96l-1.758 3.51-1.796-3.51H11.29l2.78 5.224zm7.61-5.135V59h6.305v-1.84h-4.501v-8.995H21.68zm10.279 7.072l-1.766.209c.248 2.498 1.47 3.748 3.666 3.748 1.242 0 2.153-.323 2.735-.969.586-.646.879-1.443.879-2.392 0-.656-.107-1.212-.32-1.67a2.784 2.784 0 00-.932-1.124c-.402-.293-1.058-.572-1.967-.835-.86-.243-1.409-.467-1.647-.67a.952.952 0 01-.358-.753c0-.303.132-.556.395-.76.264-.204.639-.306 1.125-.306.487 0 .862.117 1.126.35.263.234.434.644.514 1.23l1.81-.097c-.034-1.063-.347-1.88-.938-2.451-.592-.572-1.414-.857-2.467-.857-.7 0-1.289.121-1.766.365a2.679 2.679 0 00-1.125 1.08 3.225 3.225 0 00-.402 1.61c0 .511.104.99.313 1.438.213.442.499.8.856 1.073.358.273.922.527 1.692.76.86.263 1.4.452 1.624.566.224.11.39.251.5.425.109.174.164.385.164.633 0 .423-.157.778-.47 1.066-.313.283-.743.425-1.289.425-1.103 0-1.754-.698-1.952-2.094z" fill="#2FD385"/><path stroke="#2FD385" stroke-width="2" d="M23 22h41v16H23zM22 30h42M31 21v17.5M39 21v17.5M47.5 21v17.5m8.5-17V39"/></svg><svg fill="none" viewBox="0 0 78 77" id="zip" xmlns="http://www.w3.org/2000/svg"><path d="M56.82 0H13.623c-1.284 0-2.34.924-2.34 2.048V41h4.68V4.096h40.858v14.2h16.223v54.608h-57.08v-7.67h-4.68v9.718c0 1.124 1.055 2.048 2.34 2.048h61.76c1.284 0 2.34-.924 2.34-2.048V18.295L56.82 0z" fill="#2FD385"/><path fill-rule="evenodd" clip-rule="evenodd" d="M56.158 43H0v20.22h47.697L56.157 43zM11.134 57.01V59h7.28v-1.84h-5.097l4.904-7.37v-1.714h-6.558v1.848h4.18l-4.709 7.086zm9.742-8.934V59h1.803V48.076h-1.803zm4.913 0V59h1.803v-4.12h1.185c1.093 0 1.863-.108 2.31-.321.447-.219.82-.594 1.118-1.125.298-.537.447-1.2.447-1.99 0-.87-.174-1.58-.522-2.131-.343-.552-.78-.912-1.311-1.08-.333-.105-1.041-.157-2.124-.157h-2.906zm1.803 4.948v-3.1h.88c.754 0 1.249.042 1.482.127.234.084.43.25.589.499.159.248.238.554.238.916 0 .358-.077.661-.23.91a1.22 1.22 0 01-.597.506c-.238.095-.693.142-1.364.142h-.998zM31 17a4 4 0 004-4c0-2.21-1.79-10-4-10s-4 7.79-4 10a4 4 0 004 4zm0-1.75c1.325 0 2.4-1.175 2.4-2.625S32.325 10 31 10c-1.326 0-2.4 1.175-2.4 2.625s1.074 2.625 2.4 2.625z" fill="#2FD385"/><path d="M29 21a2 2 0 114 0v2a2 2 0 11-4 0v-2zM29 29a2 2 0 114 0v2a2 2 0 11-4 0v-2zM29 37a2 2 0 114 0v2a2 2 0 11-4 0v-2z" fill="#2FD385"/></svg></svg>