<svg width="29" height="41" viewBox="0 0 29 41" fill="none" xmlns="http://www.w3.org/2000/svg">
<path d="M29 14.5941C29 6.55316 22.508 0.0349121 14.4996 0.0349121C6.49196 0.0349121 0 6.55316 0 14.5941C0 16.1654 0.251284 17.6784 0.71065 19.0966C0.71065 19.0966 1.93092 24.5959 14.4087 40.9999C21.5532 31.6063 25.005 25.7928 26.6511 22.5358C28.1342 20.251 29 17.5243 29 14.5941ZM14.3391 23.9762C9.26755 23.9762 5.1553 19.8482 5.1553 14.7552C5.1553 9.66312 9.26755 5.5351 14.3391 5.5351C19.4106 5.5351 23.5229 9.66312 23.5229 14.7552C23.522 19.8482 19.4106 23.9762 14.3391 23.9762Z" fill="#2FD385"/>
<path d="M20.0773 14.8392C20.0773 17.9753 17.5351 20.5175 14.399 20.5175C11.263 20.5175 8.7207 17.9753 8.7207 14.8392C8.7207 11.7032 11.263 9.16089 14.399 9.16089C17.5351 9.16089 20.0773 11.7032 20.0773 14.8392ZM10.2924 14.8392C10.2924 17.1072 12.131 18.9458 14.399 18.9458C16.667 18.9458 18.5056 17.1072 18.5056 14.8392C18.5056 12.5712 16.667 10.7326 14.399 10.7326C12.131 10.7326 10.2924 12.5712 10.2924 14.8392Z" fill="#32428B"/>
<path d="M13.5881 7.33569H15.2104L15.4132 10.1749C14.6181 10.0654 14.1794 10.061 13.3853 10.1749L13.5881 7.33569Z" fill="#32428B"/>
<path d="M8.30583 19.2934L7.49464 17.8883L9.85203 16.2931C10.1547 17.0365 10.3704 17.4186 10.866 18.0494L8.30583 19.2934Z" fill="#32428B"/>
<path d="M11.3498 21.7428L9.94474 20.9317L11.1887 18.3715C11.8225 18.8638 12.2003 19.087 12.945 19.3855L11.3498 21.7428Z" fill="#32428B"/>
<path d="M9.94467 8.7465L11.3497 7.93531L12.9449 10.2927C12.2016 10.5954 11.8194 10.811 11.1886 11.3067L9.94467 8.7465Z" fill="#32428B"/>
<path d="M7.49495 11.7899L8.30614 10.3849L10.8663 11.6289C10.374 12.2627 10.1508 12.6405 9.85234 13.3852L7.49495 11.7899Z" fill="#32428B"/>
<path d="M13.5881 22.3428H15.2104L15.4132 19.5036C14.6181 19.6131 14.1794 19.6174 13.3853 19.5036L13.5881 22.3428Z" fill="#32428B"/>
<path d="M21.3029 11.7899L20.4917 10.3849L17.9315 11.6289C18.4239 12.2627 18.647 12.6405 18.9455 13.3852L21.3029 11.7899Z" fill="#32428B"/>
<path d="M18.8532 8.7465L17.4482 7.93531L15.853 10.2927C16.5963 10.5954 16.9784 10.811 17.6092 11.3067L18.8532 8.7465Z" fill="#32428B"/>
<path d="M17.4481 21.7428L18.8531 20.9317L17.6092 18.3715C16.9753 18.8638 16.5975 19.087 15.8529 19.3855L17.4481 21.7428Z" fill="#32428B"/>
<path d="M20.4915 19.2934L21.3027 17.8883L18.9453 16.2931C18.6426 17.0365 18.427 17.4186 17.9314 18.0494L20.4915 19.2934Z" fill="#32428B"/>
<path d="M6.89551 14.0277L6.89551 15.6501L9.73467 15.8529C9.62517 15.0578 9.62084 14.6191 9.73467 13.825L6.89551 14.0277Z" fill="#32428B"/>
<path d="M21.9028 14.0277L21.9028 15.6501L19.0637 15.8529C19.1732 15.0578 19.1775 14.6191 19.0637 13.825L21.9028 14.0277Z" fill="#32428B"/>
<path d="M17.8468 14.8389C17.8468 16.7429 16.3032 18.2865 14.3992 18.2865C12.4952 18.2865 10.9517 16.7429 10.9517 14.8389C10.9517 12.9349 12.4952 11.3914 14.3992 11.3914C16.3032 11.3914 17.8468 12.9349 17.8468 14.8389ZM11.5619 14.8389C11.5619 16.4059 12.8322 17.6763 14.3992 17.6763C15.9662 17.6763 17.2366 16.4059 17.2366 14.8389C17.2366 13.2719 15.9662 12.0016 14.3992 12.0016C12.8322 12.0016 11.5619 13.2719 11.5619 14.8389Z" fill="#2FD385"/>
<path d="M16.6295 14.8392C16.6295 16.0712 15.6308 17.0699 14.3987 17.0699C13.1667 17.0699 12.168 16.0712 12.168 14.8392C12.168 13.6071 13.1667 12.6084 14.3987 12.6084C15.6308 12.6084 16.6295 13.6071 16.6295 14.8392ZM12.7795 14.8392C12.7795 15.7335 13.5044 16.4584 14.3987 16.4584C15.293 16.4584 16.018 15.7335 16.018 14.8392C16.018 13.9449 15.293 13.2199 14.3987 13.2199C13.5044 13.2199 12.7795 13.9449 12.7795 14.8392Z" fill="#32428B"/>
<path d="M15.4132 14.8389C15.4132 15.3989 14.9592 15.8529 14.3992 15.8529C13.8392 15.8529 13.3853 15.3989 13.3853 14.8389C13.3853 14.2789 13.8392 13.825 14.3992 13.825C14.9592 13.825 15.4132 14.2789 15.4132 14.8389ZM13.9442 14.8389C13.9442 15.0902 14.1479 15.294 14.3992 15.294C14.6506 15.294 14.8543 15.0902 14.8543 14.8389C14.8543 14.5876 14.6506 14.3839 14.3992 14.3839C14.1479 14.3839 13.9442 14.5876 13.9442 14.8389Z" fill="#2FD385"/>
</svg>
