<svg width="727" height="678" viewBox="0 0 727 678" fill="none" xmlns="http://www.w3.org/2000/svg">
<path d="M184.428 339C184.428 365.746 162.746 387.428 136 387.428C109.254 387.428 87.5713 365.746 87.5713 339C87.5713 312.254 109.254 290.571 136 290.571C162.746 290.571 184.428 312.254 184.428 339ZM109.516 339C109.516 353.627 121.373 365.484 136 365.484C150.627 365.484 162.484 353.627 162.484 339C162.484 324.373 150.627 312.516 136 312.516C121.373 312.516 109.516 324.373 109.516 339Z" fill="#EEEEEE"/>
<path d="M562.172 339C562.172 365.746 540.489 387.428 513.743 387.428C486.997 387.428 465.314 365.746 465.314 339C465.314 312.254 486.997 290.571 513.743 290.571C540.489 290.571 562.172 312.254 562.172 339ZM487.259 339C487.259 353.627 499.116 365.484 513.743 365.484C528.37 365.484 540.227 353.627 540.227 339C540.227 324.373 528.37 312.516 513.743 312.516C499.116 312.516 487.259 324.373 487.259 339Z" fill="#EEEEEE"/>
<path d="M726.829 222.771C726.829 249.518 705.146 271.2 678.4 271.2C651.654 271.2 629.971 249.518 629.971 222.771C629.971 196.025 651.654 174.343 678.4 174.343C705.146 174.343 726.829 196.025 726.829 222.771ZM651.916 222.771C651.916 237.398 663.773 249.255 678.4 249.255C693.027 249.255 704.884 237.398 704.884 222.771C704.884 208.145 693.027 196.287 678.4 196.287C663.773 196.287 651.916 208.145 651.916 222.771Z" fill="#EEEEEE"/>
<path d="M639.657 455.229C639.657 481.975 617.975 503.657 591.229 503.657C564.482 503.657 542.8 481.975 542.8 455.229C542.8 428.482 564.482 406.8 591.229 406.8C617.975 406.8 639.657 428.482 639.657 455.229ZM564.745 455.229C564.745 469.855 576.602 481.713 591.229 481.713C605.855 481.713 617.713 469.855 617.713 455.229C617.713 440.602 605.855 428.745 591.229 428.745C576.602 428.745 564.745 440.602 564.745 455.229Z" fill="#EEEEEE"/>
<path fill-rule="evenodd" clip-rule="evenodd" d="M231.121 290.956C213.557 256.25 177.557 232.457 136 232.457C77.1579 232.457 29.457 280.158 29.457 339C29.457 397.842 77.1579 445.543 136 445.543C177.403 445.543 213.29 421.926 230.925 387.429H195.967C181.837 404.904 160.223 416.078 136 416.078C93.4306 416.078 58.9214 381.569 58.9214 339C58.9214 296.431 93.4306 261.921 136 261.921C160.572 261.921 182.459 273.42 196.573 291.329L231.121 290.956Z" fill="#EEEEEE"/>
<path d="M165.057 339H475" stroke="#EEEEEE" stroke-width="29.0571"/>
<path d="M281.286 271.2H444.547L488.432 222.771H649.343" stroke="#EEEEEE" stroke-width="29.0571"/>
<path d="M271.6 406.8H433.749L477.335 455.229H549.978" stroke="#EEEEEE" stroke-width="29.0571"/>
<path fill-rule="evenodd" clip-rule="evenodd" d="M97.2572 0H174.743L180.547 81.2647C196.328 83.973 211.626 88.0953 226.305 93.4967L271.948 26.0457L339.053 64.7886L303.431 138.102C315.568 148.228 326.772 159.433 336.898 171.569L410.211 135.948L448.954 203.052L419.814 222.771L302.799 222.771C266.06 170.145 205.05 135.717 136 135.717C83.7045 135.717 36.0212 155.465 0 187.909L0 26.0762L0.0527897 26.0457L45.6956 93.4964C60.3747 88.0952 75.672 83.9729 91.4525 81.2647L97.2572 0ZM0 651.924L0.051829 651.954L45.6949 584.503C60.3742 589.905 75.6718 594.027 91.4525 596.735L97.2572 678H174.743L180.547 596.735C196.328 594.027 211.625 589.905 226.304 584.504L271.947 651.954L339.052 613.211L303.43 539.899C315.567 529.773 326.772 518.568 336.898 506.431L410.211 542.053L448.954 474.948L419.812 455.229H302.799C266.06 507.855 205.05 542.283 136 542.283C83.7045 542.283 36.0212 522.535 0 490.091V651.924Z" fill="#EEEEEE"/>
<path fill-rule="evenodd" clip-rule="evenodd" d="M0 448.094C31.9535 487.877 81.0029 513.343 136 513.343C213.708 513.343 279.541 462.504 302.054 392.271H268.79C247.662 444.887 196.17 482.039 136 482.039C72.5168 482.039 18.6928 440.682 0 383.442V448.094ZM0 294.559C18.6928 237.318 72.5168 195.962 136 195.962C196.17 195.962 247.662 233.113 268.789 285.729L302.054 285.729C279.541 215.497 213.708 164.657 136 164.657C81.0029 164.657 31.9535 190.123 0 229.906V294.559Z" fill="#EEEEEE"/>
</svg>
