<?xml version="1.0" encoding="UTF-8"?>
<!DOCTYPE svg PUBLIC "-//W3C//DTD SVG 1.1//EN" "http://www.w3.org/Graphics/SVG/1.1/DTD/svg11.dtd">
<!-- Creator: CorelDRAW 2019 (64-Bit) -->
<svg xmlns="http://www.w3.org/2000/svg" xml:space="preserve" width="25.7288mm" height="25.7288mm" version="1.1" style="shape-rendering:geometricPrecision; text-rendering:geometricPrecision; image-rendering:optimizeQuality; fill-rule:evenodd; clip-rule:evenodd"
viewBox="0 0 1138.2 1138.2"
 xmlns:xlink="http://www.w3.org/1999/xlink">
 <defs>
  <style type="text/css">
   <![CDATA[
    .fil1 {fill:#FEFEFE}
    .fil0 {fill:#FF8800}
   ]]>
  </style>
 </defs>
 <g id="Layer_x0020_1">
  <metadata id="CorelCorpID_0Corel-Layer"/>
  <path class="fil0" d="M79.83 79.83c-79.83,79.93 -79.83,208.44 -79.83,465.55l0 47.43c0,257 0,385.6 79.75,465.54 79.96,79.85 208.46,79.85 465.57,79.85l47.43 0c257.16,0 385.74,0 465.61,-79.85 79.83,-79.94 79.83,-208.44 79.83,-465.54l0 -47.43c0,-257.11 0,-385.71 -79.83,-465.55 -79.88,-79.83 -208.46,-79.83 -465.49,-79.83l-48.36 0c-256.5,0 -384.93,0 -464.68,79.83z"/>
  <path class="fil1" d="M567.23 582.61c-55.61,-0.23 -108.88,-22.52 -148.21,-62 -39.33,-39.49 -61.52,-92.97 -61.75,-148.81 0.15,-56.14 22.22,-109.98 61.48,-149.94 39.26,-39.96 92.57,-62.87 148.48,-63.79 27.83,-0.04 55.39,5.48 81.07,16.24 25.68,10.76 48.98,26.55 68.52,46.45 19.54,19.9 34.94,43.5 45.31,69.43 10.37,25.94 15.48,53.68 15.06,81.62 0.35,27.78 -4.84,55.35 -15.27,81.08 -10.43,25.74 -25.88,49.12 -45.45,68.76 -19.57,19.65 -42.85,35.17 -68.49,45.63 -25.63,10.47 -53.09,15.68 -80.76,15.32l0 0zm0 -298.64c-11.74,-0.01 -23.36,2.36 -34.17,6.95 -10.81,4.6 -20.58,11.33 -28.74,19.8 -8.17,8.47 -14.55,18.5 -18.77,29.49 -4.22,11 -6.19,22.73 -5.8,34.51 -0.18,11.44 1.99,22.81 6.37,33.38 4.37,10.57 10.86,20.14 19.06,28.1 8.2,7.95 17.93,14.14 28.61,18.17 10.67,4.03 22.05,5.82 33.44,5.26 11.32,0.27 22.57,-1.72 33.12,-5.85 10.55,-4.13 20.17,-10.33 28.31,-18.23 8.14,-7.9 14.63,-17.35 19.11,-27.79 4.47,-10.44 6.83,-21.67 6.95,-33.04 0.39,-11.78 -1.58,-23.52 -5.8,-34.51 -4.22,-11 -10.6,-21.03 -18.77,-29.49 -8.16,-8.47 -17.94,-15.2 -28.75,-19.8 -10.81,-4.6 -22.43,-6.96 -34.17,-6.95l0 0zm84.57 474.31l119.56 117.11c5.56,5.58 9.96,12.2 12.97,19.48 3,7.28 4.55,15.09 4.55,22.97 0,7.88 -1.55,15.69 -4.55,22.98 -3.01,7.29 -7.41,13.9 -12.97,19.48 -5.17,6.21 -11.64,11.21 -18.94,14.64 -7.31,3.42 -15.27,5.21 -23.34,5.21 -8.06,0 -16.03,-1.78 -23.34,-5.21 -7.31,-3.43 -13.77,-8.43 -18.95,-14.64l-119.56 -117.12 -116.64 117.12c-5.67,5.82 -12.49,10.39 -20.03,13.41 -7.53,3.03 -15.61,4.44 -23.72,4.15 -16.16,-0.61 -31.62,-6.81 -43.74,-17.57 -5.56,-5.57 -9.96,-12.19 -12.97,-19.48 -3,-7.29 -4.55,-15.09 -4.55,-22.98 0,-7.88 1.55,-15.69 4.55,-22.97 3.01,-7.29 7.41,-13.9 12.97,-19.48l122.47 -117.11c-43.76,-13.73 -85.82,-32.39 -125.39,-55.63 -13.51,-8.9 -23.15,-22.62 -26.94,-38.4 -3.79,-15.77 -1.46,-32.4 6.53,-46.51 4.45,-7.09 10.29,-13.19 17.16,-17.95 6.87,-4.75 14.64,-8.05 22.82,-9.69 8.18,-1.64 16.62,-1.6 24.78,0.14 8.17,1.73 15.89,5.11 22.72,9.94 42.69,25.85 91.59,39.51 141.43,39.51 49.84,0 98.74,-13.66 141.43,-39.51 6.83,-4.82 14.55,-8.21 22.72,-9.94 8.17,-1.73 16.59,-1.78 24.78,-0.14 8.18,1.65 15.95,4.95 22.82,9.69 6.87,4.76 12.71,10.86 17.16,17.95 8.27,13.77 11.06,30.15 7.81,45.89 -3.24,15.74 -12.28,29.68 -25.31,39.01 -40.59,23.26 -83.62,41.91 -128.31,55.63l0 0z"/>
 </g>
</svg>
