<?xml version="1.0" encoding="UTF-8"?>
<!DOCTYPE svg PUBLIC "-//W3C//DTD SVG 1.1//EN" "http://www.w3.org/Graphics/SVG/1.1/DTD/svg11.dtd">
<!-- Creator: CorelDRAW 2019 (64-Bit) -->
<svg xmlns="http://www.w3.org/2000/svg" xml:space="preserve" width="25.7288mm" height="25.7288mm" version="1.1" style="shape-rendering:geometricPrecision; text-rendering:geometricPrecision; image-rendering:optimizeQuality; fill-rule:evenodd; clip-rule:evenodd"
viewBox="0 0 493.1 493.1"
 xmlns:xlink="http://www.w3.org/1999/xlink">
 <defs>
  <style type="text/css">
   <![CDATA[
    .fil0 {fill:#0471FF}
   ]]>
  </style>
 </defs>
 <g id="Layer_x0020_1">
  <metadata id="CorelCorpID_0Corel-Layer"/>
  <path class="fil0" d="M34.59 34.59c-34.59,34.63 -34.59,90.3 -34.59,201.69l0 20.55c0,111.34 0,167.05 34.55,201.69 34.64,34.59 90.31,34.59 201.7,34.59l20.55 0c111.41,0 167.11,0 201.72,-34.59 34.59,-34.63 34.59,-90.3 34.59,-201.69l0 -20.55c0,-111.39 0,-167.1 -34.59,-201.69 -34.61,-34.59 -90.31,-34.59 -201.67,-34.59l-20.95 0c-111.12,0 -166.76,0 -201.31,34.59zm99.19 110.64c-0.25,-1.64 -1.64,-2.87 -3.28,-2.87l0 0.04 -43.42 0c-1.85,0 -3.32,1.52 -3.28,3.36 1.39,66.64 43.52,205 171.44,205l12.2 0c1.8,0 3.28,-1.47 3.28,-3.28l0 -61.77c30.71,4.75 58.75,18.95 76.42,42.33 5.37,7.08 9.55,14.28 12.7,20.83 0.53,1.15 1.67,1.88 2.94,1.88l42.98 0c2.29,0 3.86,-2.25 3.12,-4.38 -4.39,-12.49 -11.83,-29.27 -24.23,-46.21 -11.27,-15.4 -27.77,-32.3 -51.18,-45.16 16.91,-13.14 31.52,-30.62 43.43,-52.27 11.46,-20.84 18.14,-41.59 21.91,-56.29 0.53,-2.08 -1.07,-4.09 -3.19,-4.09l-42.98 0c-1.48,0 -2.75,0.95 -3.15,2.34 -3.24,10.44 -8.03,22.92 -14.95,35.25 -9.12,16.29 -20.13,29.06 -32.79,38.03 -8.97,6.35 -20.43,10.81 -31.07,13.43l0 -85.76c0,-1.8 -1.48,-3.28 -3.28,-3.28l-43.02 0c-1.81,0 -3.28,1.48 -3.28,3.28l0 139.96c-14.37,-3.64 -26.98,-10.8 -38.13,-21.49l0 -0.12c-14.53,-13.96 -26.43,-34.02 -35.4,-59.56 -7.33,-20.92 -11.47,-42.17 -13.8,-59.19z"/>
 </g>
</svg>
