<svg width="262" height="261" viewBox="0 0 262 261" fill="none" xmlns="http://www.w3.org/2000/svg">
<path d="M130.498 229.254C104.307 229.254 79.1878 218.85 60.6676 200.329C42.1473 181.809 31.7427 156.69 31.7427 130.499C31.7427 104.307 42.1473 79.1881 60.6676 60.6678C79.1879 42.1475 104.307 31.7429 130.498 31.7429V59.0777C111.556 59.0777 93.3902 66.6024 79.9962 79.9964C66.6021 93.3904 59.0775 111.557 59.0775 130.499C59.0775 149.441 66.6021 167.607 79.9962 181.001C93.3902 194.395 111.556 201.92 130.498 201.92L130.498 229.254Z" fill="#32428B"/>
<path d="M116.391 0H130.499V47.6144C116.671 45.71 126.675 47.3982 112.864 49.3779L116.391 0Z" fill="#32428B"/>
<path d="M24.5373 207.966L10.4293 183.53L51.4283 155.786C56.693 168.714 60.4433 175.36 69.0633 186.331L24.5373 207.966Z" fill="#32428B"/>
<path d="M77.467 250.568L53.0313 236.46L74.6658 191.934C85.6889 200.497 92.2598 204.378 105.21 209.569L77.467 250.568Z" fill="#32428B"/>
<path d="M53.0315 24.5373L77.4672 10.4293L105.211 51.4283C92.2831 56.693 85.637 60.4433 74.666 69.0633L53.0315 24.5373Z" fill="#32428B"/>
<path d="M10.4295 77.467L24.5375 53.0313L69.0635 74.6658C60.5003 85.6889 56.6197 92.2597 51.4285 105.21L10.4295 77.467Z" fill="#32428B"/>
<path d="M116.391 260.997H130.499V211.619C116.671 213.524 126.675 213.599 112.864 211.619L116.391 260.997Z" fill="#32428B"/>
<path d="M-1.5417e-07 116.391L-1.38753e-06 144.607L49.3779 148.134C47.4735 134.306 47.3982 126.675 49.3779 112.864L-1.5417e-07 116.391Z" fill="#32428B"/>
<path d="M222.201 63.4858C222.201 73.2253 214.305 81.1207 204.566 81.1207C194.826 81.1207 186.931 73.2253 186.931 63.4858C186.931 53.7463 194.826 45.8508 204.566 45.8508C214.305 45.8508 222.201 53.7463 222.201 63.4858ZM194.922 63.4858C194.922 68.812 199.239 73.1297 204.566 73.1297C209.892 73.1297 214.21 68.812 214.21 63.4858C214.21 58.1596 209.892 53.8418 204.566 53.8418C199.239 53.8418 194.922 58.1596 194.922 63.4858Z" fill="#2FD385"/>
<path d="M239.835 112.864C239.835 122.603 231.94 130.499 222.2 130.499C212.461 130.499 204.565 122.603 204.565 112.864C204.565 103.124 212.461 95.2288 222.2 95.2288C231.94 95.2288 239.835 103.124 239.835 112.864ZM212.556 112.864C212.556 118.19 216.874 122.508 222.2 122.508C227.527 122.508 231.844 118.19 231.844 112.864C231.844 107.538 227.527 103.22 222.2 103.22C216.874 103.22 212.556 107.538 212.556 112.864Z" fill="#2FD385"/>
<path d="M204.565 193.984C204.565 203.724 196.67 211.619 186.93 211.619C177.191 211.619 169.295 203.724 169.295 193.984C169.295 184.245 177.191 176.349 186.93 176.349C196.67 176.349 204.565 184.245 204.565 193.984ZM177.286 193.984C177.286 199.311 181.604 203.628 186.93 203.628C192.257 203.628 196.574 199.311 196.574 193.984C196.574 188.658 192.257 184.34 186.93 184.34C181.604 184.34 177.286 188.658 177.286 193.984Z" fill="#2FD385"/>
<path d="M148.134 130.499C148.134 140.238 140.238 148.134 130.499 148.134C120.759 148.134 112.864 140.238 112.864 130.499C112.864 120.759 120.759 112.864 130.499 112.864C140.238 112.864 148.134 120.759 148.134 130.499ZM122.585 130.499C122.585 134.869 126.128 138.413 130.499 138.413C134.869 138.413 138.413 134.869 138.413 130.499C138.413 126.128 134.869 122.585 130.499 122.585C126.128 122.585 122.585 126.128 122.585 130.499Z" fill="#2FD385"/>
<path fill-rule="evenodd" clip-rule="evenodd" d="M165.056 148.133C161.708 154.694 156.549 160.189 150.159 163.945C142.801 168.27 134.223 170.048 125.752 169.004C117.281 167.96 109.391 164.151 103.304 158.169C97.2164 152.186 93.2719 144.363 92.0811 135.911C90.8904 127.46 92.5198 118.851 96.717 111.42C100.914 103.988 107.445 98.1478 115.298 94.8037C123.15 91.4596 131.886 90.7982 140.153 92.922C148.419 95.0459 155.755 99.8364 161.023 106.552L152.656 113.116C148.832 108.242 143.507 104.764 137.506 103.223C131.506 101.681 125.164 102.161 119.464 104.588C113.764 107.016 109.024 111.255 105.977 116.65C102.931 122.044 101.748 128.293 102.612 134.428C103.477 140.562 106.34 146.241 110.758 150.584C115.177 154.926 120.904 157.691 127.053 158.449C133.202 159.207 139.429 157.916 144.77 154.777C147.733 153.035 150.331 150.778 152.455 148.133H165.056Z" fill="#32428B"/>
<path fill-rule="evenodd" clip-rule="evenodd" d="M187.806 148.133C183.956 160.644 176.114 171.561 165.466 179.205C154.556 187.038 141.331 190.981 127.913 190.402C114.494 189.822 101.659 184.755 91.4641 176.011C81.2693 167.267 74.3054 155.353 71.6889 142.179C69.0724 129.006 70.9547 115.335 77.0341 103.359C83.1135 91.3826 93.0379 81.7942 105.216 76.1309C117.395 70.4675 131.122 69.0571 144.198 72.1258C157.274 75.1945 168.941 82.5645 177.328 93.0544L169.04 99.682C162.137 91.0487 152.535 84.9832 141.773 82.4577C131.012 79.9322 119.714 81.0929 109.691 85.7539C99.6685 90.4148 91.5006 98.306 86.4973 108.163C81.4939 118.019 79.9448 129.27 82.0982 140.112C84.2516 150.954 89.9829 160.759 98.3732 167.955C106.764 175.151 117.327 179.322 128.371 179.799C139.414 180.276 150.298 177.031 159.277 170.584C167.143 164.938 173.148 157.121 176.587 148.133H187.806Z" fill="#2FD385"/>
<path d="M179.876 153.424H222.2L213.383 174.586L199.275 186.93" stroke="#2FD385" stroke-width="10.581"/>
<path d="M172.823 89.9382L195.748 70.5398" stroke="#2FD385" stroke-width="10.581"/>
<path d="M142.843 130.499H181.64L209.856 119.918" stroke="#2FD385" stroke-width="10.581"/>
<path fill-rule="evenodd" clip-rule="evenodd" d="M130.192 0L125.683 9.25613C149.931 21.069 168.816 28.0669 188.559 32.2953C207.011 36.2473 226.022 37.737 250.548 38.6239C252.249 114.526 240.413 161.646 219.579 192.503C198.535 223.671 167.725 239.111 129.731 250.416H125.208V260.997H130.498H131.264L131.998 260.78C171.261 249.18 205.146 232.788 228.349 198.424C251.446 164.214 263.36 113.074 260.995 33.3495L260.847 28.3787L255.877 28.2186C229.016 27.3531 209.485 25.9563 190.775 21.949C172.261 17.9837 154.339 11.4142 130.843 0H130.192Z" fill="#32428B"/>
</svg>
