<svg id="Слой_1" data-name="Слой 1" xmlns="http://www.w3.org/2000/svg" viewBox="0 0 86.26 70.67"><defs><style>.cls-1,.cls-2{fill:#2fd385;}.cls-2,.cls-3{fill-rule:evenodd;}.cls-3{fill:#32428b;}.cls-4,.cls-5{fill:none;stroke:#2fd385;stroke-width:3px;}.cls-5{stroke-linecap:round;}</style></defs><title>ordo-infosapr</title><path class="cls-1" d="M40,35.3a4.6,4.6,0,1,1-4.6-4.6A4.6,4.6,0,0,1,40,35.3Zm-7.12,0a2.52,2.52,0,1,0,2.52-2.51A2.52,2.52,0,0,0,32.92,35.3Z"/><path class="cls-1" d="M72.92,18a4.6,4.6,0,1,1-4.6-4.6A4.6,4.6,0,0,1,72.92,18ZM65.8,18a2.52,2.52,0,1,0,2.52-2.52A2.52,2.52,0,0,0,65.8,18Z"/><path class="cls-1" d="M86.26,17.86a4.6,4.6,0,1,1-4.6-4.6A4.6,4.6,0,0,1,86.26,17.86Zm-7.12,0a2.52,2.52,0,1,0,2.52-2.52A2.52,2.52,0,0,0,79.14,17.86Z"/><path class="cls-1" d="M86.26,32.45a4.6,4.6,0,1,1-4.6-4.6A4.6,4.6,0,0,1,86.26,32.45Zm-7.12,0a2.52,2.52,0,1,0,2.52-2.51A2.52,2.52,0,0,0,79.14,32.45Z"/><path class="cls-2" d="M51.27,30.43A16.56,16.56,0,1,0,51.34,40H48.21a13.59,13.59,0,1,1-.08-9.52Z"/><path class="cls-3" d="M44.47,30.74a10.12,10.12,0,1,0,0,9.16H41.13a7.32,7.32,0,1,1,.06-9.12Z"/><path class="cls-4" d="M38.2,35.3l20,.1V18h6.45"/><path class="cls-4" d="M49.43,28.94h3.43V5.55h28.8v9.66"/><path class="cls-4" d="M48.53,41.44h4.14l-.32,22.08H81.66V36.38"/><path class="cls-3" d="M48.32,4.47,44.75,9.75A26.4,26.4,0,0,0,40,8.47L39.37,0H31.3l-.61,8.47a26.4,26.4,0,0,0-4.77,1.28l-4.75-7-7,4,3.71,7.65a27.24,27.24,0,0,0-3.48,3.48L6.75,14.17l-4,7,7,4.75a26.4,26.4,0,0,0-1.28,4.77L0,31.3v8.07L8.47,40a26.4,26.4,0,0,0,1.28,4.77l-7,4.76,4,7,7.65-3.71a28,28,0,0,0,3.48,3.49l-3.71,7.64,7,4,4.75-7a27.23,27.23,0,0,0,4.77,1.27l.61,8.47h8.07L40,62.2a27.23,27.23,0,0,0,4.77-1.27l3.57,5.27V49.85a19.48,19.48,0,1,1,0-29Z"/><path class="cls-5" d="M73.65,26.25l-9.47-.15"/><path class="cls-5" d="M69.7,31.62H64.18"/><path class="cls-5" d="M76.14,41.74H57.73"/><path class="cls-5" d="M76.14,46.65H57.73"/><path class="cls-5" d="M76.14,51.25H57.73"/><path class="cls-5" d="M76.14,55.85H57.73"/></svg>