<svg width="267" height="266" viewBox="0 0 267 266" fill="none" xmlns="http://www.w3.org/2000/svg">
<path fill-rule="evenodd" clip-rule="evenodd" d="M132.086 1L115.961 1L113.72 32.3851C107.625 33.431 101.717 35.0231 96.0481 37.109L78.4205 11.059L52.5042 26.0218L66.2616 54.3358C61.5742 58.2465 57.2466 62.574 53.3359 67.2614L25.0217 53.504L10.0589 79.4203L36.1091 97.048C34.0231 102.717 32.431 108.625 31.3851 114.72L3.77418e-06 116.961L0 146.887L31.3851 149.129C32.431 155.223 34.0231 161.131 36.1091 166.801L10.059 184.428L25.0218 210.344L53.3359 196.587C57.2465 201.274 61.5739 205.602 66.2611 209.512L52.5037 237.827L78.42 252.789L96.0476 226.739C101.717 228.825 107.625 230.417 113.72 231.463L115.961 262.848H132.086V204.063C131.7 204.069 131.312 204.072 130.924 204.072C91.0779 204.072 58.7761 171.771 58.7761 131.924C58.7761 92.0779 91.0779 59.7761 130.924 59.7761C131.312 59.7761 131.7 59.7792 132.086 59.7853V1Z" fill="#32428B"/>
<path d="M124.667 6.95574C180.312 1.39125 235.958 27.3592 230.393 107.117L260.071 173.892C262.617 181.393 260.06 183.093 250.796 183.166H239.667C231.874 183.425 230.274 186.284 230.393 194.295V207.279C230.063 215.486 226.574 216.892 217.409 216.553C200.977 218.568 231.359 215.044 226.683 229.537C234.859 260.785 226.292 268.098 165.082 251.404C161.372 257.36 157.127 257.36 146.533 257.36C135.94 257.36 124.667 257.36 124.667 257.36" stroke="#32428B" stroke-width="11.1291" stroke-linecap="round"/>
<path d="M149.681 131.723C149.681 141.497 141.758 149.421 131.984 149.421C122.209 149.421 114.286 141.497 114.286 131.723C114.286 121.949 122.209 114.026 131.984 114.026C141.758 114.026 149.681 121.949 149.681 131.723ZM122.305 131.723C122.305 137.068 126.638 141.401 131.984 141.401C137.329 141.401 141.662 137.068 141.662 131.723C141.662 126.378 137.329 122.045 131.984 122.045C126.638 122.045 122.305 126.378 122.305 131.723Z" fill="#2FD385"/>
<path d="M215.162 108.716C215.162 118.49 207.239 126.414 197.465 126.414C187.691 126.414 179.767 118.49 179.767 108.716C179.767 98.9423 187.691 91.0188 197.465 91.0188C207.239 91.0188 215.162 98.9423 215.162 108.716ZM187.787 108.716C187.787 114.061 192.12 118.395 197.465 118.395C202.81 118.395 207.143 114.061 207.143 108.716C207.143 103.371 202.81 99.0382 197.465 99.0382C192.12 99.0382 187.787 103.371 187.787 108.716Z" fill="#2FD385"/>
<path d="M191.327 52.0838C191.327 61.8579 183.403 69.7814 173.629 69.7814C163.855 69.7814 155.932 61.8579 155.932 52.0838C155.932 42.3097 163.855 34.3862 173.629 34.3862C183.403 34.3862 191.327 42.3097 191.327 52.0838ZM163.951 52.0838C163.951 57.4289 168.284 61.762 173.629 61.762C178.974 61.762 183.308 57.4289 183.308 52.0838C183.308 46.7387 178.974 42.4056 173.629 42.4056C168.284 42.4056 163.951 46.7387 163.951 52.0838Z" fill="#2FD385"/>
<path d="M201.004 209.593C201.004 219.367 193.081 227.29 183.307 227.29C173.532 227.29 165.609 219.367 165.609 209.593C165.609 199.818 173.532 191.895 183.307 191.895C193.081 191.895 201.004 199.818 201.004 209.593ZM173.628 209.593C173.628 214.938 177.961 219.271 183.307 219.271C188.652 219.271 192.985 214.938 192.985 209.593C192.985 204.247 188.652 199.914 183.307 199.914C177.961 199.914 173.628 204.247 173.628 209.593Z" fill="#2FD385"/>
<path fill-rule="evenodd" clip-rule="evenodd" d="M166.62 185.197C177.972 177.844 186.69 167.068 191.511 154.43L183.019 151.191H180.495C176.479 161.198 169.463 169.725 160.401 175.595C151.086 181.628 140.094 184.541 129.014 183.91C117.935 183.28 107.343 179.14 98.7735 172.089C90.2037 165.038 84.1002 155.443 81.3466 144.693C78.5931 133.943 79.3324 122.595 83.4576 112.293C87.5827 101.99 94.8796 93.2683 104.292 87.3893C113.704 81.5102 124.743 78.7793 135.811 79.5918C146.878 80.4044 157.4 84.7182 165.853 91.9088L173.265 83.1953C162.963 74.431 150.138 69.1731 136.648 68.1828C123.158 67.1924 109.704 70.521 98.2314 77.6867C86.7593 84.8524 77.8655 95.4833 72.8375 108.04C67.8096 120.597 66.9084 134.428 70.2646 147.531C73.6208 160.635 81.0601 172.33 91.5054 180.923C101.951 189.517 114.86 194.563 128.364 195.331C141.869 196.1 155.267 192.55 166.62 185.197Z" fill="#2FD385"/>
<path fill-rule="evenodd" clip-rule="evenodd" d="M154.744 112.474C152.435 109.541 149.573 107.043 146.285 105.142C139.807 101.396 132.153 100.237 124.857 101.897C117.561 103.557 111.162 107.915 106.944 114.095C102.725 120.275 100.999 127.822 102.111 135.221C103.223 142.621 107.092 149.327 112.94 153.994C118.789 158.661 126.186 160.945 133.648 160.387C141.11 159.83 148.085 156.472 153.175 150.987C153.638 150.488 154.083 149.975 154.508 149.449H167.95C166.246 152.789 164.077 155.905 161.485 158.699C154.449 166.28 144.807 170.922 134.493 171.692C124.178 172.463 113.954 169.306 105.869 162.855C97.7849 156.404 92.438 147.135 90.9007 136.906C89.3635 126.678 91.7495 116.247 97.5805 107.704C103.411 99.1612 112.256 93.1384 122.341 90.8432C132.427 88.548 143.007 90.15 151.96 95.3282C158.896 99.3395 164.459 105.267 168.027 112.331L154.744 112.474Z" fill="#32428B"/>
<path d="M142.602 131.723H167.379L185.076 117.564" stroke="#2FD385" stroke-width="10.6185"/>
<path d="M173.573 66.2422V75.0909L163.839 85.7095" stroke="#2FD385" stroke-width="10.6185"/>
<path d="M181.537 156.5H201.005V170.658L188.616 198.974" stroke="#2FD385" stroke-width="10.6185"/>
</svg>
