<svg width="71" height="71" viewBox="0 0 71 71" fill="none" xmlns="http://www.w3.org/2000/svg">
<path fill-rule="evenodd" clip-rule="evenodd" d="M35.6057 0L31.259 3.63357e-07L30.6547 8.4603C29.0119 8.74224 27.4193 9.1714 25.8911 9.7337L21.1394 2.71155L14.1533 6.74497L17.8617 14.3774C16.5982 15.4316 15.4316 16.5982 14.3774 17.8617L6.74496 14.1532L2.71153 21.1393L9.73371 25.8911C9.1714 27.4193 8.74224 29.0119 8.4603 30.6548L2.02305e-06 31.2591L0 39.3259L8.46029 39.9302C8.74224 41.5731 9.1714 43.1657 9.73371 44.6939L2.71155 49.4457L6.74497 56.4318L14.3774 52.7233C15.4316 53.9868 16.5981 55.1533 17.8616 56.2075L14.1531 63.84L21.1392 67.8734L25.891 60.8512C27.3873 61.4018 28.9453 61.8247 30.5518 62.1068L31 70.5H35.6057V54.7386C35.5015 54.7402 35.3971 54.7411 35.2925 54.7411C24.5514 54.7411 15.8439 46.0336 15.8439 35.2925C15.8439 24.5514 24.5514 15.8439 35.2925 15.8439C35.3971 15.8439 35.5015 15.8448 35.6057 15.8464V0Z" fill="#32428B"/>
<path d="M40.6055 35.6056C40.6055 38.367 38.3669 40.6056 35.6055 40.6056C32.844 40.6056 30.6055 38.367 30.6055 35.6056C30.6055 32.8442 32.844 30.6056 35.6055 30.6056C38.3669 30.6056 40.6055 32.8442 40.6055 35.6056ZM32.8711 35.6056C32.8711 37.1157 34.0953 38.3399 35.6055 38.3399C37.1156 38.3399 38.3398 37.1157 38.3398 35.6056C38.3398 34.0955 37.1156 32.8713 35.6055 32.8713C34.0953 32.8713 32.8711 34.0955 32.8711 35.6056Z" fill="#2FD385"/>
<path d="M63.2656 31.7343C63.2656 34.4958 61.027 36.7343 58.2656 36.7343C55.5042 36.7343 53.2656 34.4958 53.2656 31.7343C53.2656 28.9729 55.5042 26.7343 58.2656 26.7343C61.027 26.7343 63.2656 28.9729 63.2656 31.7343ZM55.5313 31.7343C55.5313 33.2445 56.7555 34.4687 58.2656 34.4687C59.7758 34.4687 61 33.2445 61 31.7343C61 30.2242 59.7758 29 58.2656 29C56.7555 29 55.5313 30.2242 55.5313 31.7343Z" fill="#2FD385"/>
<path d="M60 18C60 20.7614 57.7614 23 55 23C52.2386 23 50 20.7614 50 18C50 15.2386 52.2386 13 55 13C57.7614 13 60 15.2386 60 18ZM52.2657 18C52.2657 19.5101 53.4899 20.7343 55 20.7343C56.5101 20.7343 57.7343 19.5101 57.7343 18C57.7343 16.4899 56.5101 15.2657 55 15.2657C53.4899 15.2657 52.2657 16.4899 52.2657 18Z" fill="#2FD385"/>
<path d="M54 56C54 58.7614 51.7614 61 49 61C46.2386 61 44 58.7614 44 56C44 53.2386 46.2386 51 49 51C51.7614 51 54 53.2386 54 56ZM46.2657 56C46.2657 57.5101 47.4899 58.7343 49 58.7343C50.5101 58.7343 51.7343 57.5101 51.7343 56C51.7343 54.4899 50.5101 53.2657 49 53.2657C47.4899 53.2657 46.2657 54.4899 46.2657 56Z" fill="#2FD385"/>
<path fill-rule="evenodd" clip-rule="evenodd" d="M45.5238 51.2741C48.8566 49.196 51.4182 46.0849 52.818 42.4153L50.2103 41.1056H49.9592C48.7976 44.0765 46.5161 46.8466 43.8138 48.5315C41.0794 50.2365 37.8625 51.0003 34.6536 50.7065C31.4446 50.4127 28.4199 49.0774 26.0406 46.9043C23.6613 44.7312 22.0581 41.8395 21.4755 38.6703C20.8928 35.5011 21.3627 32.2282 22.8135 29.351C24.2643 26.4737 26.6164 24.1499 29.511 22.7341C32.4056 21.3182 35.6839 20.8879 38.8458 21.5088C42.0077 22.1298 44.8798 23.7678 47.024 26.1732L49 23.5C46.3866 20.5682 43.3225 19.0942 39.4686 18.3374C35.6147 17.5805 31.6189 18.105 28.0908 19.8308C24.5628 21.5565 21.6959 24.3889 19.9276 27.8958C18.1593 31.4028 17.5866 35.3919 18.2967 39.2547C19.0069 43.1175 20.961 46.642 23.861 49.2907C26.761 51.9394 30.4477 53.567 34.3589 53.925C38.2701 54.2831 42.1911 53.3522 45.5238 51.2741Z" fill="#2FD385"/>
<path fill-rule="evenodd" clip-rule="evenodd" d="M45.4034 40.6057C45.0464 41.3053 44.6133 41.969 44.1086 42.5839C42.4941 44.5512 40.2475 45.8978 37.7515 46.3942C35.2555 46.8907 32.6645 46.5064 30.4201 45.3067C28.1757 44.1071 26.4167 42.1663 25.4428 39.8151C24.4689 37.4639 24.3404 34.8478 25.0791 32.4125C25.8179 29.9772 27.3782 27.8733 29.4942 26.4594C31.6102 25.0456 34.151 24.4091 36.6837 24.6586C39.2163 24.908 41.5841 26.0279 43.3836 27.8274L41.2326 29.9785C39.9307 28.6766 38.2177 27.8664 36.3855 27.686C34.5532 27.5055 32.7151 27.9659 31.1843 28.9888C29.6534 30.0117 28.5246 31.5337 27.9902 33.2955C27.4557 35.0574 27.5487 36.95 28.2533 38.651C28.9578 40.352 30.2304 41.756 31.8541 42.6239C33.4778 43.4918 35.3523 43.7698 37.158 43.4107C38.9637 43.0515 40.5891 42.0773 41.7571 40.6541C41.7703 40.638 41.7834 40.6219 41.7965 40.6057H45.4034Z" fill="#32428B"/>
<path d="M38.6055 35.6056H45.6055L53.9998 33" stroke="#2FD385" stroke-width="3"/>
<path d="M46 25L51.5 20" stroke="#2FD385" stroke-width="3"/>
<path d="M50 42.6056H57.4998L56.9998 46.5L52 53" stroke="#2FD385" stroke-width="3"/>
<path d="M33.5 1.5H35.5C45 7.5 51 10 69 10C67 40.5 66.5 64.5 35.5 69H33" stroke="#32428B" stroke-width="3" stroke-linecap="round"/>
</svg>
