<svg width="70" height="66" viewBox="0 0 70 66" fill="none" xmlns="http://www.w3.org/2000/svg">
<path d="M35 40C32.2386 40 30 37.7614 30 35C30 32.2386 32.2386 30 35 30C37.7614 30 40 32.2386 40 35C40 37.7614 37.7614 40 35 40ZM35 32.2657C33.4899 32.2657 32.2657 33.4899 32.2657 35C32.2657 36.5101 33.4899 37.7343 35 37.7343C36.5101 37.7343 37.7343 36.5101 37.7343 35C37.7343 33.4899 36.5101 32.2657 35 32.2657Z" fill="#2FD385"/>
<path d="M35 66C32.2386 66 30 63.7614 30 61C30 58.2386 32.2386 56 35 56C37.7614 56 40 58.2386 40 61C40 63.7614 37.7614 66 35 66ZM35 58.2657C33.4899 58.2657 32.2657 59.4899 32.2657 61C32.2657 62.5101 33.4899 63.7343 35 63.7343C36.5101 63.7343 37.7343 62.5101 37.7343 61C37.7343 59.4899 36.5101 58.2657 35 58.2657Z" fill="#2FD385"/>
<path d="M47 65.9297C44.2386 65.9297 42 63.6912 42 60.9297C42 58.1683 44.2386 55.9297 47 55.9297C49.7614 55.9297 52 58.1683 52 60.9297C52 63.6912 49.7614 65.9297 47 65.9297ZM47 58.1954C45.4899 58.1954 44.2657 59.4196 44.2657 60.9297C44.2657 62.4399 45.4899 63.6641 47 63.6641C48.5101 63.6641 49.7343 62.4399 49.7343 60.9297C49.7343 59.4196 48.5101 58.1954 47 58.1954Z" fill="#2FD385"/>
<path d="M23 66C20.2386 66 18 63.7614 18 61C18 58.2385 20.2386 56 23 56C25.7614 56 28 58.2385 28 61C28 63.7614 25.7614 66 23 66ZM23 58.2656C21.4899 58.2656 20.2657 59.4898 20.2657 61C20.2657 62.5101 21.4899 63.7343 23 63.7343C24.5101 63.7343 25.7343 62.5101 25.7343 61C25.7343 59.4898 24.5101 58.2656 23 58.2656Z" fill="#2FD385"/>
<path d="M70 31L70 39L56 40C56.5399 36.0794 56.5613 33.9159 56 30L70 31Z" fill="#32428B"/>
<path d="M67.311 49.0359L63.311 55.9642L50.6867 49.8302C53.1146 46.7048 54.2148 44.8418 55.6867 41.1699L67.311 49.0359Z" fill="#32428B"/>
<path d="M6.68896 55.9641L2.68897 49.0358L14.3133 41.1698C15.806 44.8351 16.8693 46.7195 19.3133 49.8301L6.68896 55.9641Z" fill="#32428B"/>
<path d="M1.31134e-07 39L1.18021e-06 31L14 30C13.4601 33.9206 13.4387 36.0841 14 40L1.31134e-07 39Z" fill="#32428B"/>
<path d="M14.0359 6.68909L20.9642 2.68909L28.8302 14.3134C25.1649 15.8061 23.2805 16.8694 20.1699 19.3134L14.0359 6.68909Z" fill="#32428B"/>
<path d="M2.68896 20.9641L6.68897 14.0359L19.3133 20.1698C16.8854 23.2952 15.7852 25.1582 14.3133 28.8301L2.68896 20.9641Z" fill="#32428B"/>
<path d="M31 1.74846e-07L39 1.57361e-06L40 14C36.0794 13.4601 33.9159 13.4387 30 14L31 1.74846e-07Z" fill="#32428B"/>
<path d="M63.311 14.0359L67.311 20.9642L55.6867 28.8302C54.194 25.1649 53.1307 23.2805 50.6867 20.1699L63.311 14.0359Z" fill="#32428B"/>
<path d="M49.0359 2.68909L55.9641 6.68909L49.8302 19.3134C46.7048 16.8855 44.8418 15.7853 41.1699 14.3134L49.0359 2.68909Z" fill="#32428B"/>
<path fill-rule="evenodd" clip-rule="evenodd" d="M8.51879 40.2674C9.56058 45.5049 12.1321 50.3159 15.9081 54.0919L20.1593 49.8407C17.2241 46.9055 15.2252 43.1658 14.4154 39.0945C13.6056 35.0233 14.0212 30.8033 15.6097 26.9683C17.1982 23.1333 19.8883 19.8554 23.3398 17.5492C26.7912 15.243 30.849 14.0121 35 14.0121C39.151 14.0121 43.2088 15.243 46.6602 17.5492C50.1117 19.8554 52.8017 23.1333 54.3903 26.9683C55.9788 30.8033 56.3944 35.0233 55.5846 39.0945C54.7748 43.1658 52.7759 46.9055 49.8407 49.8407L54.0919 54.0919C57.8679 50.3159 60.4394 45.5049 61.4812 40.2674C62.523 35.0299 61.9883 29.6011 59.9447 24.6675C57.9012 19.7339 54.4405 15.5171 50.0004 12.5503C45.5603 9.58352 40.3401 8 35 8C29.6599 8 24.4397 9.58352 19.9996 12.5503C15.5595 15.5171 12.0988 19.7339 10.0552 24.6675C8.01168 29.6012 7.47698 35.0299 8.51879 40.2674Z" fill="#32428B"/>
<path fill-rule="evenodd" clip-rule="evenodd" d="M17.805 40.3226C18.9187 43.9205 21.1329 47.0784 24.1358 49.3516L26.0865 46.7747C23.6228 44.9097 21.8062 42.3188 20.8924 39.3669C19.9787 36.4151 20.0139 33.251 20.9931 30.3202C21.9723 27.3894 23.8462 24.8396 26.3508 23.0298C28.8554 21.2201 31.8647 20.2416 34.9547 20.2321C38.0447 20.2226 41.0599 21.1826 43.5756 22.977C46.0912 24.7713 47.9807 27.3096 48.9779 30.2343C49.9751 33.159 50.0297 36.3229 49.1341 39.2803C48.2385 42.2377 46.4378 44.8397 43.9855 46.7198L45.9521 49.2847C48.941 46.9931 51.1358 43.8217 52.2274 40.217C53.319 36.6124 53.2524 32.7561 52.037 29.1913C50.8216 25.6265 48.5186 22.5327 45.4523 20.3457C42.3861 18.1587 38.7111 16.9885 34.9448 17.0001C31.1785 17.0116 27.5107 18.2043 24.4579 20.4101C21.4051 22.6159 19.1212 25.7238 17.9277 29.296C16.7342 32.8682 16.6913 36.7248 17.805 40.3226Z" fill="#2FD385"/>
<path fill-rule="evenodd" clip-rule="evenodd" d="M39.9603 44.8208C43.5435 43.0074 46 39.2906 46 35C46 28.9249 41.0751 24 35 24C28.9249 24 24 28.9249 24 35C24 39.2747 26.4383 42.9798 29.9999 44.8006L29.9999 41.1913C28.1957 39.7325 27.042 37.501 27.042 35C27.042 30.6049 30.6049 27.042 35 27.042C39.3951 27.042 42.958 30.6049 42.958 35C42.958 37.5369 41.7708 39.7966 39.9218 41.2538L39.9603 44.8208Z" fill="#32428B"/>
<path d="M35 38L35 57.5" stroke="#2FD385" stroke-width="3"/>
<path d="M28.5 47L28.5 51.5L23 54.5L23 56.5" stroke="#2FD385" stroke-width="3"/>
<path d="M41.5 47L41.5 51.5L47 54.5L47 56.5" stroke="#2FD385" stroke-width="3"/>
</svg>
