<?xml version="1.0" encoding="utf-8"?>
<!-- Generator: Adobe Illustrator 23.0.3, SVG Export Plug-In . SVG Version: 6.00 Build 0)  -->
<svg version="1.1" id="Слой_1" xmlns="http://www.w3.org/2000/svg" xmlns:xlink="http://www.w3.org/1999/xlink" x="0px" y="0px"
	 viewBox="0 0 75 70.4" style="enable-background:new 0 0 75 70.4;" xml:space="preserve">
<style type="text/css">
	.st0{fill:#2FD385;}
	.st1{fill-rule:evenodd;clip-rule:evenodd;fill:#2FD385;}
	.st2{fill-rule:evenodd;clip-rule:evenodd;fill:#32428B;}
	.st3{fill:none;stroke:#2FD385;stroke-width:3;}
	.st4{fill:none;stroke:#2FD385;stroke-width:3;stroke-linecap:round;}
</style>
<path class="st0" d="M40.5,31.7c1.3,2.3,0.5,5.2-1.7,6.5c-2.3,1.3-5.2,0.5-6.5-1.7S31.8,31.3,34,30C36.3,28.7,39.2,29.4,40.5,31.7z
	 M34.1,35.3c0.7,1.2,2.3,1.7,3.5,0.9c1.2-0.7,1.7-2.3,0.9-3.5c-0.7-1.2-2.3-1.7-3.5-0.9C33.9,32.5,33.4,34.1,34.1,35.3z"/>
<path class="st0" d="M74.3,3.3c1.3,2.3,0.5,5.2-1.7,6.5c-2.3,1.3-5.2,0.5-6.5-1.7c-1.3-2.3-0.5-5.2,1.7-6.5C70.1,0.2,73,1,74.3,3.3z
	 M68,6.9c0.7,1.2,2.3,1.7,3.5,0.9c1.2-0.7,1.7-2.3,0.9-3.5c-0.7-1.2-2.3-1.7-3.5-0.9C67.7,4.1,67.3,5.7,68,6.9z"/>
<path class="st0" d="M51.3,6.6c1.3,2.3,0.5,5.2-1.7,6.5c-2.3,1.3-5.2,0.5-6.5-1.7c-1.3-2.3-0.5-5.2,1.7-6.5
	C47.1,3.6,50,4.4,51.3,6.6z M45,10.3c0.7,1.2,2.3,1.7,3.5,0.9c1.2-0.7,1.7-2.3,0.9-3.5c-0.7-1.2-2.3-1.7-3.5-0.9
	C44.7,7.5,44.3,9,45,10.3z"/>
<path class="st0" d="M71.4,29.4c1.3,2.3,0.5,5.2-1.7,6.5c-2.3,1.3-5.2,0.5-6.5-1.7c-1.3-2.3-0.5-5.2,1.7-6.5
	C67.2,26.4,70.1,27.2,71.4,29.4z M65.1,33.1c0.7,1.2,2.3,1.7,3.5,0.9c1.2-0.7,1.7-2.3,0.9-3.5c-0.7-1.2-2.3-1.7-3.5-0.9
	C64.8,30.3,64.4,31.9,65.1,33.1z"/>
<path class="st1" d="M47.8,21.4c-5.3-4.8-13.4-5.9-19.9-2.1c-8.1,4.7-10.9,15.1-6.2,23.2c4.7,8.1,15.1,10.9,23.2,6.2
	c6.6-3.8,9.7-11.3,8.1-18.3l-2.8,1.6c0.8,5.5-1.8,11.1-6.8,14.1C36.7,50,28.1,47.7,24.3,41c-3.9-6.7-1.6-15.2,5.1-19.1
	c5.1-2.9,11.3-2.3,15.6,1.1L47.8,21.4z"/>
<path class="st2" d="M42.1,25.4c-3.2-2.1-7.4-2.3-10.9-0.3c-5,2.9-6.7,9.2-3.8,14.2c2.9,5,9.2,6.7,14.2,3.8c3.5-2,5.4-5.8,5.2-9.5
	l-3,1.7c-0.3,2.2-1.6,4.2-3.7,5.3c-3.6,2.1-8.2,0.8-10.3-2.8c-2.1-3.6-0.8-8.2,2.8-10.3c2.1-1.2,4.5-1.3,6.6-0.5L42.1,25.4z"/>
<path class="st3" d="M38.8,32.6l17.8-10.2l-0.9-8.1l11.8-6.6"/>
<path class="st3" d="M45.4,21.2l3.3-1.7L47.7,12"/>
<path class="st3" d="M51.2,33.2L60,28l4.7,2.4"/>
<path class="st2" d="M32,0l-0.5,6.5c-1.7,0.3-3.3,0.7-4.9,1.3l-4.9-7.2l-7.2,4.1l3.8,7.8c-1.3,1.1-2.5,2.3-3.6,3.6l-7.8-3.8
	l-4.1,7.2l7.2,4.9c-0.6,1.6-1,3.2-1.3,4.9L0,30v8.3l8.7,0.6c0.3,1.7,0.7,3.3,1.3,4.9l-7.2,4.9l4.1,7.2l7.8-3.8
	c1.1,1.3,2.3,2.5,3.6,3.6l-3.8,7.8l7.2,4.1l4.9-7.2c1.6,0.6,3.2,1,4.9,1.3l0.6,8.7l8.3,0l0.6-8.7c1.7-0.3,3.3-0.7,4.9-1.3l4.9,7.2
	l7.2-4.1l-3.8-7.8c1.3-1.1,2.5-2.3,3.6-3.6l5.9,2.9l-8.4-14.6c-1.5,4.5-4.6,8.5-9,11.1C36.7,57,24.5,53.7,19,44.1
	s-2.2-21.8,7.3-27.3c4.4-2.6,9.5-3.2,14.1-2.3L32,0z"/>
<path class="st4" d="M69.9,15.4l-8.5,4.7"/>
</svg>
