<svg id="Слой_1" data-name="Слой 1" xmlns="http://www.w3.org/2000/svg" viewBox="0 0 82.21 70.51"><defs><style>.cls-1,.cls-4{fill:#2fd385;}.cls-2{fill:#32428b;}.cls-2,.cls-4{fill-rule:evenodd;}.cls-3,.cls-5{fill:none;stroke:#2fd385;stroke-width:3px;}.cls-5{stroke-linecap:round;}</style></defs><title>ordo-voks</title><path class="cls-1" d="M40,35.22a4.59,4.59,0,1,1-4.59-4.59A4.59,4.59,0,0,1,40,35.22Zm-7.1,0a2.51,2.51,0,1,0,2.51-2.51A2.51,2.51,0,0,0,32.85,35.22Z"/><path class="cls-1" d="M82.21,27.77a4.59,4.59,0,1,1-4.59-4.59A4.59,4.59,0,0,1,82.21,27.77Zm-7.1,0a2.51,2.51,0,1,0,2.51-2.51A2.51,2.51,0,0,0,75.11,27.77Z"/><path class="cls-1" d="M67.88,17.82a4.59,4.59,0,1,1-4.59-4.59A4.59,4.59,0,0,1,67.88,17.82Zm-7.1,0a2.51,2.51,0,1,0,2.51-2.51A2.51,2.51,0,0,0,60.78,17.82Z"/><path class="cls-1" d="M81.65,47.2a4.59,4.59,0,1,1-4.59-4.59A4.59,4.59,0,0,1,81.65,47.2Zm-7.1,0a2.51,2.51,0,1,0,2.51-2.51A2.52,2.52,0,0,0,74.55,47.2Z"/><path class="cls-2" d="M44.37,30.67a10.1,10.1,0,1,0,0,9.14H41a7.3,7.3,0,1,1,.06-9.11Z"/><path class="cls-3" d="M38.11,35.22l19.94.1L61.22,28l13.15.18"/><path class="cls-4" d="M51.14,30.32a16.53,16.53,0,1,0,0,9.84H48a13.55,13.55,0,1,1,0-9.84Z"/><path class="cls-3" d="M49.13,28.8l3.61,0V18.28h6.89"/><path class="cls-3" d="M48.21,41.65l6.82,0,2.53,5.74H72.93"/><path class="cls-2" d="M48.21,4.46,44.65,9.72a27.12,27.12,0,0,0-4.76-1.27L39.28,0h-8l-.61,8.45a27.12,27.12,0,0,0-4.76,1.27l-4.74-7-7,4,3.7,7.62a28.6,28.6,0,0,0-3.48,3.48l-7.62-3.7-4,7,7,4.74a27.12,27.12,0,0,0-1.27,4.76L0,31.23v8.05l8.45.61a27.12,27.12,0,0,0,1.27,4.76l-7,4.74,4,7,7.62-3.7a28.6,28.6,0,0,0,3.48,3.48l-3.7,7.62,7,4,4.74-7a27.12,27.12,0,0,0,4.76,1.27l.61,8.45h8.05l.61-8.45a27.12,27.12,0,0,0,4.76-1.27l3.56,5.26V49.73a19.43,19.43,0,1,1,0-28.95Z"/><path class="cls-5" d="M72.74,35.72l-9.45-.15"/><path class="cls-5" d="M70.45,41.69,61,41.53"/></svg>