<svg width="275" height="262" viewBox="0 0 275 262" fill="none" xmlns="http://www.w3.org/2000/svg">
<path d="M130.449 230C104.267 230 79.158 219.599 60.6448 201.086C42.1316 182.573 31.731 157.464 31.731 131.282C31.731 105.1 42.1316 79.991 60.6448 61.4778C79.158 42.9646 104.267 32.564 130.449 32.564V59.8883C111.514 59.8883 93.3549 67.4101 79.966 80.799C66.5771 94.1879 59.0553 112.347 59.0553 131.282C59.0553 150.217 66.5771 168.376 79.966 181.765C93.3549 195.154 111.514 202.676 130.449 202.676L130.449 230Z" fill="#32428B"/>
<path d="M116.346 0.833252H130.449V50.1922C116.626 48.2886 126.626 48.2134 112.82 50.1922L116.346 0.833252Z" fill="#32428B"/>
<path d="M24.5282 208.719L10.4256 184.293L51.4089 156.56C56.6716 169.483 60.4204 176.126 69.0371 187.093L24.5282 208.719Z" fill="#32428B"/>
<path d="M77.4374 251.306L53.0111 237.203L74.6373 192.694C85.6562 201.254 92.2245 205.133 105.17 210.322L77.4374 251.306Z" fill="#32428B"/>
<path d="M53.0113 25.3617L77.4377 11.2591L105.17 52.2424C92.2479 57.5051 85.6043 61.2539 74.6375 69.8706L53.0113 25.3617Z" fill="#32428B"/>
<path d="M10.4254 78.2709L24.528 53.8446L69.0369 75.4708C60.477 86.4896 56.5979 93.058 51.4087 106.004L10.4254 78.2709Z" fill="#32428B"/>
<path d="M116.346 261.731H130.449V212.372C116.626 214.276 126.626 214.351 112.82 212.372L116.346 261.731Z" fill="#32428B"/>
<path d="M-1.54111e-07 117.18L-1.387e-06 145.385L49.359 148.91C47.4553 135.088 47.3801 127.46 49.359 113.654L-1.54111e-07 117.18Z" fill="#32428B"/>
<path d="M130.449 191.218C114.553 191.218 99.3077 184.903 88.0675 173.663C76.8274 162.423 70.5127 147.178 70.5127 131.282C70.5127 115.386 76.8274 100.141 88.0675 88.9008C99.3077 77.6606 114.553 71.3459 130.449 71.3459V81.9545C117.366 81.9545 104.82 87.1515 95.5689 96.4021C86.3182 105.653 81.1213 118.199 81.1213 131.282C81.1213 144.364 86.3182 156.911 95.5689 166.162C104.82 175.412 117.366 180.609 130.449 180.609V191.218Z" fill="#2FD385"/>
<path d="M130.449 92.5005C125.356 92.5005 120.313 93.5036 115.607 95.4526C110.902 97.4016 106.627 100.258 103.026 103.859C99.4243 107.461 96.5676 111.736 94.6186 116.441C92.6696 121.147 91.6665 126.19 91.6665 131.283C91.6665 136.375 92.6696 141.419 94.6186 146.124C96.5676 150.829 99.4243 155.104 103.026 158.706C106.627 162.307 110.902 165.164 115.607 167.112C120.313 169.061 125.356 170.065 130.449 170.065V159.434C126.752 159.434 123.091 158.705 119.676 157.291C116.26 155.876 113.157 153.802 110.543 151.188C107.929 148.574 105.855 145.471 104.44 142.055C103.026 138.64 102.297 134.979 102.297 131.283C102.297 127.586 103.026 123.925 104.44 120.51C105.855 117.094 107.929 113.991 110.543 111.377C113.157 108.763 116.26 106.689 119.676 105.274C123.091 103.86 126.752 103.131 130.449 103.131V92.5005Z" fill="#32428B"/>
<path d="M148.077 131.282C148.077 141.018 140.184 148.91 130.449 148.91C120.713 148.91 112.82 141.018 112.82 131.282C112.82 121.546 120.713 113.654 130.449 113.654C140.184 113.654 148.077 121.546 148.077 131.282ZM122.538 131.282C122.538 135.651 126.079 139.193 130.449 139.193C134.818 139.193 138.359 135.651 138.359 131.282C138.359 126.913 134.818 123.371 130.449 123.371C126.079 123.371 122.538 126.913 122.538 131.282Z" fill="#2FD385"/>
<path d="M275 88.9742C275 98.7099 267.108 106.602 257.372 106.602C247.636 106.602 239.744 98.7099 239.744 88.9742C239.744 79.2384 247.636 71.3459 257.372 71.3459C267.108 71.3459 275 79.2384 275 88.9742ZM249.461 88.9742C249.461 93.3432 253.003 96.885 257.372 96.885C261.741 96.885 265.283 93.3432 265.283 88.9742C265.283 84.6051 261.741 81.0633 257.372 81.0633C253.003 81.0633 249.461 84.6051 249.461 88.9742Z" fill="#2FD385"/>
<path d="M260.898 187.692C260.898 197.428 253.005 205.32 243.269 205.32C233.534 205.32 225.641 197.428 225.641 187.692C225.641 177.956 233.534 170.064 243.269 170.064C253.005 170.064 260.898 177.956 260.898 187.692ZM235.358 187.692C235.358 192.061 238.9 195.603 243.269 195.603C247.638 195.603 251.18 192.061 251.18 187.692C251.18 183.323 247.638 179.781 243.269 179.781C238.9 179.781 235.358 183.323 235.358 187.692Z" fill="#32428B"/>
<path d="M176.282 244.103C176.282 253.838 168.389 261.731 158.654 261.731C148.918 261.731 141.025 253.838 141.025 244.103C141.025 234.367 148.918 226.474 158.654 226.474C168.389 226.474 176.282 234.367 176.282 244.103ZM150.743 244.103C150.743 248.472 154.285 252.013 158.654 252.013C163.023 252.013 166.564 248.472 166.564 244.103C166.564 239.734 163.023 236.192 158.654 236.192C154.285 236.192 150.743 239.734 150.743 244.103Z" fill="#2FD385"/>
<path d="M227.405 51.9554C227.405 61.6911 219.512 69.5836 209.777 69.5836C200.041 69.5836 192.148 61.6911 192.148 51.9554C192.148 42.2196 200.041 34.3271 209.777 34.3271C219.512 34.3271 227.405 42.2196 227.405 51.9554ZM201.866 51.9554C201.866 56.3244 205.408 59.8662 209.777 59.8662C214.146 59.8662 217.688 56.3244 217.688 51.9554C217.688 47.5863 214.146 44.0445 209.777 44.0445C205.408 44.0445 201.866 47.5863 201.866 51.9554Z" fill="#32428B"/>
<path d="M176.282 18.4615C176.282 28.1972 168.389 36.0897 158.654 36.0897C148.918 36.0897 141.025 28.1972 141.025 18.4615C141.025 8.72567 148.918 0.833252 158.654 0.833252C168.389 0.833252 176.282 8.72567 176.282 18.4615ZM150.743 18.4615C150.743 22.8305 154.285 26.3723 158.654 26.3723C163.023 26.3723 166.564 22.8305 166.564 18.4615C166.564 14.0924 163.023 10.5506 158.654 10.5506C154.285 10.5506 150.743 14.0924 150.743 18.4615Z" fill="#2FD385"/>
<path d="M130.449 76.6345H158.654V32.564" stroke="#2FD385" stroke-width="10.5769"/>
<path d="M128.686 97.7889H172.757L202.725 62.5325" stroke="#32428B" stroke-width="10.5769"/>
<path d="M130.449 164.775H144.551M236.218 177.115L223.878 164.775H163.942" stroke="#32428B" stroke-width="10.5769"/>
<path d="M144.551 133.045H162.179M252.083 101.314L227.404 133.045H172.756" stroke="#2FD385" stroke-width="10.5769"/>
<path d="M158.654 228.237V185.93H144.551" stroke="#2FD385" stroke-width="10.5769"/>
</svg>
