<svg width="78" height="74" viewBox="0 0 78 74" fill="none" xmlns="http://www.w3.org/2000/svg">
<path d="M37 64.9999C29.5739 64.9999 22.452 62.0499 17.201 56.7989C11.95 51.5479 9 44.426 9 36.9999C9 29.5739 11.95 22.452 17.201 17.2009C22.452 11.9499 29.5739 8.99994 37 8.99994V16.7501C31.6294 16.7501 26.4788 18.8836 22.6812 22.6811C18.8836 26.4787 16.7502 31.6294 16.7502 36.9999C16.7502 42.3705 18.8836 47.5211 22.6812 51.3187C26.4788 55.1163 31.6294 57.2498 37 57.2498L37 64.9999Z" fill="#32428B"/>
<path d="M33 0H37V14C33.0794 13.4601 35.9159 13.4387 32 14L33 0Z" fill="#32428B"/>
<path d="M6.95703 58.9641L2.95703 52.0358L14.5814 44.1698C16.0741 47.8351 17.1374 49.7195 19.5814 52.8301L6.95703 58.9641Z" fill="#32428B"/>
<path d="M21.9641 71.043L15.0359 67.043L21.1698 54.4186C24.2952 56.8465 26.1582 57.9468 29.8301 59.4186L21.9641 71.043Z" fill="#32428B"/>
<path d="M15.0359 6.95709L21.9642 2.95709L29.8302 14.5814C26.1649 16.0741 24.2805 17.1374 21.1699 19.5814L15.0359 6.95709Z" fill="#32428B"/>
<path d="M2.95703 21.9641L6.95703 15.0358L19.5814 21.1698C17.1535 24.2952 16.0532 26.1582 14.5814 29.8301L2.95703 21.9641Z" fill="#32428B"/>
<path d="M33 74H37V60C33.0794 60.5399 35.9159 60.5613 32 60L33 74Z" fill="#32428B"/>
<path d="M-4.37114e-08 33L-3.93402e-07 41L14 42C13.4601 38.0794 13.4387 35.9159 14 32L-4.37114e-08 33Z" fill="#32428B"/>
<path d="M37 54C32.4913 54 28.1673 52.2089 24.9792 49.0208C21.7911 45.8327 20 41.5087 20 37C20 32.4913 21.7911 28.1673 24.9792 24.9792C28.1673 21.7911 32.4913 20 37 20V23.009C33.2893 23.009 29.7307 24.483 27.1068 27.1068C24.483 29.7307 23.009 33.2893 23.009 37C23.009 40.7107 24.483 44.2693 27.1068 46.8932C29.7307 49.517 33.2893 50.991 37 50.991V54Z" fill="#2FD385"/>
<path d="M37 26C35.5555 26 34.1251 26.2845 32.7905 26.8373C31.4559 27.3901 30.2433 28.2004 29.2218 29.2218C28.2004 30.2433 27.3901 31.4559 26.8373 32.7905C26.2845 34.1251 26 35.5555 26 37C26 38.4445 26.2845 39.8749 26.8373 41.2095C27.3901 42.5441 28.2004 43.7567 29.2218 44.7782C30.2433 45.7996 31.4559 46.6099 32.7905 47.1627C34.1251 47.7155 35.5555 48 37 48V44.9847C35.9514 44.9847 34.9131 44.7781 33.9444 44.3769C32.9757 43.9756 32.0954 43.3875 31.354 42.646C30.6125 41.9046 30.0244 41.0243 29.6231 40.0556C29.2219 39.0869 29.0153 38.0486 29.0153 37C29.0153 35.9514 29.2219 34.9131 29.6231 33.9444C30.0244 32.9757 30.6125 32.0954 31.354 31.354C32.0954 30.6125 32.9757 30.0244 33.9444 29.6231C34.9131 29.2219 35.9514 29.0153 37 29.0153V26Z" fill="#32428B"/>
<path d="M42 37C42 39.7614 39.7614 42 37 42C34.2386 42 32 39.7614 32 37C32 34.2386 34.2386 32 37 32C39.7614 32 42 34.2386 42 37ZM34.7562 37C34.7562 38.2392 35.7608 39.2438 37 39.2438C38.2392 39.2438 39.2438 38.2392 39.2438 37C39.2438 35.7608 38.2392 34.7562 37 34.7562C35.7608 34.7562 34.7562 35.7608 34.7562 37Z" fill="#2FD385"/>
<path d="M78 25C78 27.7614 75.7614 30 73 30C70.2386 30 68 27.7614 68 25C68 22.2386 70.2386 20 73 20C75.7614 20 78 22.2386 78 25ZM70.7562 25C70.7562 26.2392 71.7608 27.2438 73 27.2438C74.2392 27.2438 75.2438 26.2392 75.2438 25C75.2438 23.7608 74.2392 22.7562 73 22.7562C71.7608 22.7562 70.7562 23.7608 70.7562 25Z" fill="#2FD385"/>
<path d="M74 53C74 55.7614 71.7614 58 69 58C66.2386 58 64 55.7614 64 53C64 50.2386 66.2386 48 69 48C71.7614 48 74 50.2386 74 53ZM66.7562 53C66.7562 54.2392 67.7608 55.2438 69 55.2438C70.2392 55.2438 71.2438 54.2392 71.2438 53C71.2438 51.7608 70.2392 50.7562 69 50.7562C67.7608 50.7562 66.7562 51.7608 66.7562 53Z" fill="#32428B"/>
<path d="M50 69C50 71.7614 47.7614 74 45 74C42.2386 74 40 71.7614 40 69C40 66.2386 42.2386 64 45 64C47.7614 64 50 66.2386 50 69ZM42.7562 69C42.7562 70.2392 43.7608 71.2438 45 71.2438C46.2392 71.2438 47.2438 70.2392 47.2438 69C47.2438 67.7608 46.2392 66.7562 45 66.7562C43.7608 66.7562 42.7562 67.7608 42.7562 69Z" fill="#2FD385"/>
<path d="M64.5 14.5C64.5 17.2614 62.2614 19.5 59.5 19.5C56.7386 19.5 54.5 17.2614 54.5 14.5C54.5 11.7386 56.7386 9.5 59.5 9.5C62.2614 9.5 64.5 11.7386 64.5 14.5ZM57.2562 14.5C57.2562 15.7392 58.2608 16.7438 59.5 16.7438C60.7392 16.7438 61.7438 15.7392 61.7438 14.5C61.7438 13.2608 60.7392 12.2562 59.5 12.2562C58.2608 12.2562 57.2562 13.2608 57.2562 14.5Z" fill="#32428B"/>
<path d="M50 5C50 7.76142 47.7614 10 45 10C42.2386 10 40 7.76142 40 5C40 2.23858 42.2386 0 45 0C47.7614 0 50 2.23858 50 5ZM42.7562 5C42.7562 6.23922 43.7608 7.24381 45 7.24381C46.2392 7.24381 47.2438 6.23922 47.2438 5C47.2438 3.76078 46.2392 2.75619 45 2.75619C43.7608 2.75619 42.7562 3.76078 42.7562 5Z" fill="#2FD385"/>
<path d="M37 21.5H45V9" stroke="#2FD385" stroke-width="3"/>
<path d="M36.5 27.5H49L57.5 17.5" stroke="#32428B" stroke-width="3"/>
<path d="M37 46.5H41M67 50L63.5 46.5H46.5" stroke="#32428B" stroke-width="3"/>
<path d="M41 37.5H46M71.5 28.5L64.5 37.5H49" stroke="#2FD385" stroke-width="3"/>
<path d="M45 64.5V52.5H41" stroke="#2FD385" stroke-width="3"/>
</svg>
