<?xml version="1.0" encoding="utf-8"?>
<!-- Generator: Adobe Illustrator 23.0.3, SVG Export Plug-In . SVG Version: 6.00 Build 0)  -->
<svg version="1.1" id="Слой_1" xmlns="http://www.w3.org/2000/svg" xmlns:xlink="http://www.w3.org/1999/xlink" x="0px" y="0px"
	 viewBox="0 0 67.3 67.4" style="enable-background:new 0 0 67.3 67.4;" xml:space="preserve">
<style type="text/css">
	.st0{fill:#2FD385;}
	.st1{fill:#32428B;}
	.st2{fill-rule:evenodd;clip-rule:evenodd;fill:#32428B;}
	.st3{fill:none;stroke:#2FD385;stroke-width:2.6633;}
	.st4{fill:none;stroke:#32428B;stroke-width:2.6633;}
</style>
<path class="st0" d="M38.1,33.8c0,2.5-2,4.4-4.4,4.4s-4.4-2-4.4-4.4s2-4.4,4.4-4.4S38.1,31.3,38.1,33.8z M31.2,33.8
	c0,1.3,1.1,2.4,2.4,2.4s2.4-1.1,2.4-2.4s-1.1-2.4-2.4-2.4C32.3,31.3,31.2,32.4,31.2,33.8z"/>
<path class="st1" d="M63.1,9.2c-1.4,1.4-3.6,1.4-5,0s-1.4-3.6,0-5s3.6-1.4,5,0S64.5,7.8,63.1,9.2z M59.7,5.7c-0.5,0.5-0.5,1.4,0,1.9
	s1.4,0.5,1.9,0s0.5-1.4,0-1.9S60.2,5.2,59.7,5.7z"/>
<path class="st1" d="M58.1,63.2c-1.4-1.4-1.4-3.6,0-5s3.6-1.4,5,0s1.4,3.6,0,5C61.7,64.6,59.5,64.6,58.1,63.2z M61.6,59.7
	c-0.5-0.5-1.4-0.5-1.9,0s-0.5,1.4,0,1.9s1.4,0.5,1.9,0C62.1,61.1,62.1,60.3,61.6,59.7z"/>
<path class="st1" d="M9.2,63.2c1.4-1.4,1.4-3.6,0-5s-3.6-1.4-5,0s-1.4,3.6,0,5C5.5,64.6,7.8,64.6,9.2,63.2z M5.7,59.7
	c0.5-0.5,1.4-0.5,1.9,0s0.5,1.4,0,1.9s-1.4,0.5-1.9,0C5.2,61.1,5.2,60.3,5.7,59.7z"/>
<path class="st1" d="M4.1,9.2c1.4,1.4,3.6,1.4,5,0s1.4-3.6,0-5s-3.6-1.4-5,0S2.7,7.8,4.1,9.2z M7.6,5.7c0.5,0.5,0.5,1.4,0,1.9
	c-0.5,0.6-1.4,0.6-1.9,0c-0.5-0.5-0.5-1.3,0-1.9S7.1,5.2,7.6,5.7z"/>
<path class="st1" d="M66.3,29.9c-1.4,1.4-3.6,1.4-5,0s-1.4-3.6,0-5s3.6-1.4,5,0S67.7,28.5,66.3,29.9z M62.8,26.4
	c-0.5,0.5-0.5,1.4,0,1.9s1.4,0.5,1.9,0s0.5-1.4,0-1.9S63.3,25.9,62.8,26.4z"/>
<path class="st1" d="M37.4,66.3c-1.4-1.4-1.4-3.6,0-5s3.6-1.4,5,0s1.4,3.6,0,5C41,67.7,38.8,67.7,37.4,66.3z M40.9,62.9
	c-0.5-0.5-1.4-0.5-1.9,0s-0.5,1.4,0,1.9s1.4,0.5,1.9,0C41.4,64.2,41.4,63.4,40.9,62.9z"/>
<path class="st1" d="M29.9,66.3c1.4-1.4,1.4-3.6,0-5s-3.6-1.4-5,0s-1.4,3.6,0,5C26.2,67.7,28.5,67.7,29.9,66.3z M26.4,62.9
	c0.5-0.5,1.4-0.5,1.9,0s0.5,1.4,0,1.9s-1.4,0.5-1.9,0C25.9,64.2,25.9,63.4,26.4,62.9z"/>
<path class="st1" d="M1,29.9c1.4,1.4,3.6,1.4,5,0s1.4-3.6,0-5s-3.6-1.4-5,0S-0.4,28.5,1,29.9z M4.5,26.4c0.5,0.5,0.5,1.4,0,1.9
	s-1.4,0.5-1.9,0s-0.5-1.4,0-1.9S3.9,25.9,4.5,26.4z"/>
<path class="st1" d="M37.4,1c-1.4,1.4-1.4,3.6,0,5s3.6,1.4,5,0s1.4-3.6,0-5C41-0.3,38.8-0.3,37.4,1z M40.9,4.5C40.4,5,39.5,5,39,4.5
	s-0.5-1.4,0-1.9s1.4-0.5,1.9,0S41.4,4,40.9,4.5z"/>
<path class="st1" d="M66.3,37.4c-1.4-1.4-3.6-1.4-5,0s-1.4,3.6,0,5s3.6,1.4,5,0C67.7,41.1,67.7,38.8,66.3,37.4z M62.8,40.9
	c-0.5-0.5-0.5-1.4,0-1.9s1.4-0.5,1.9,0s0.5,1.4,0,1.9S63.3,41.4,62.8,40.9z"/>
<path class="st1" d="M1,37.4c1.4-1.4,3.6-1.4,5,0s1.4,3.6,0,5s-3.6,1.4-5,0C-0.4,41.1-0.4,38.8,1,37.4z M4.5,40.9
	C5,40.4,5,39.5,4.5,39s-1.4-0.5-1.9,0s-0.5,1.4,0,1.9S3.9,41.4,4.5,40.9z"/>
<path class="st1" d="M29.9,1c1.4,1.4,1.4,3.6,0,5s-3.6,1.4-5,0s-1.4-3.6,0-5C26.2-0.3,28.5-0.3,29.9,1z M26.4,4.5
	c0.5,0.5,1.4,0.5,1.9,0s0.5-1.4,0-1.9s-1.4-0.5-1.9,0S25.9,4,26.4,4.5z"/>
<path class="st0" d="M65,18.6c-1.4,1.4-3.6,1.4-5,0s-1.4-3.6,0-5s3.6-1.4,5,0C66.4,15,66.4,17.2,65,18.6z M61.6,15.2
	c-0.5,0.5-0.5,1.4,0,1.9s1.4,0.5,1.9,0s0.5-1.4,0-1.9C62.9,14.6,62.1,14.6,61.6,15.2z"/>
<path class="st0" d="M48.7,65.1c-1.4-1.4-1.4-3.6,0-5s3.6-1.4,5,0s1.4,3.6,0,5S50.1,66.5,48.7,65.1z M52.2,61.6
	c-0.5-0.5-1.4-0.5-1.9,0s-0.5,1.4,0,1.9s1.4,0.5,1.9,0S52.7,62.1,52.2,61.6z"/>
<path class="st0" d="M18.6,65.1c1.4-1.4,1.4-3.6,0-5s-3.6-1.4-5,0s-1.4,3.6,0,5C14.9,66.5,17.2,66.5,18.6,65.1z M15.1,61.6
	c0.5-0.5,1.4-0.5,1.9,0s0.5,1.4,0,1.9s-1.4,0.5-1.9,0S14.6,62.1,15.1,61.6z"/>
<path class="st0" d="M2.2,18.6c1.4,1.4,3.6,1.4,5,0s1.4-3.6,0-5s-3.6-1.4-5,0S0.9,17.2,2.2,18.6z M5.7,15.2c0.5,0.5,0.5,1.4,0,1.9
	s-1.4,0.5-1.9,0s-0.5-1.4,0-1.9C4.3,14.6,5.2,14.6,5.7,15.2z"/>
<path class="st0" d="M48.7,2.3c-1.4,1.4-1.4,3.6,0,5s3.6,1.4,5,0s1.4-3.6,0-5S50.1,0.9,48.7,2.3z M52.2,5.8c-0.5,0.5-1.4,0.5-1.9,0
	s-0.5-1.4,0-1.9s1.4-0.5,1.9,0S52.7,5.2,52.2,5.8z"/>
<path class="st0" d="M65,48.7c-1.4-1.4-3.6-1.4-5,0s-1.4,3.6,0,5s3.6,1.4,5,0C66.4,52.4,66.4,50.1,65,48.7z M61.6,52.2
	c-0.5-0.5-0.5-1.4,0-1.9s1.4-0.5,1.9,0s0.5,1.4,0,1.9C62.9,52.7,62.1,52.7,61.6,52.2z"/>
<path class="st0" d="M2.2,48.7c1.4-1.4,3.6-1.4,5,0s1.4,3.6,0,5s-3.6,1.4-5,0C0.9,52.4,0.9,50.1,2.2,48.7z M5.7,52.2
	c0.5-0.5,0.5-1.4,0-1.9s-1.4-0.5-1.9,0s-0.5,1.4,0,1.9S5.2,52.7,5.7,52.2z"/>
<path class="st0" d="M18.6,2.3c1.4,1.4,1.4,3.6,0,5s-3.6,1.4-5,0s-1.4-3.6,0-5C14.9,0.9,17.2,0.9,18.6,2.3z M15.1,5.8
	c0.5,0.5,1.4,0.5,1.9,0s0.5-1.4,0-1.9s-1.4-0.5-1.9,0S14.6,5.2,15.1,5.8z"/>
<path class="st1" d="M32,19.4h3.3l0.4,5.7c-1.6-0.2-2.5-0.2-4.1,0L32,19.4z"/>
<path class="st1" d="M32,19.4h3.3l0.4,5.7c-1.6-0.2-2.5-0.2-4.1,0L32,19.4z"/>
<path class="st1" d="M45.2,25.1l1.6,2.8l-4.7,3.2c-0.6-1.5-1-2.3-2-3.5L45.2,25.1z"/>
<path class="st1" d="M47.9,32.1v3.3l-5.7,0.3c0.2-1.6,0.2-2.5,0-4.1L47.9,32.1z"/>
<path class="st1" d="M46.8,39.4l-1.6,2.8l-5.1-2.5c1-1.3,1.4-2,2-3.5L46.8,39.4z"/>
<path class="st1" d="M39.4,20.5l2.8,1.6l-2.5,5.1c-1.3-1-2-1.4-3.5-2L39.4,20.5z"/>
<path class="st1" d="M42.2,45.2l-2.8,1.6l-3.2-4.7c1.5-0.6,2.3-1,3.5-2L42.2,45.2z"/>
<path class="st1" d="M35.3,48H32l-0.4-5.7c1.6,0.2,2.5,0.2,4.1,0L35.3,48z"/>
<path class="st1" d="M22.1,42.2l-1.6-2.8l4.7-3.2c0.6,1.5,1,2.3,2,3.5L22.1,42.2z"/>
<path class="st1" d="M19.4,35.3V32l5.7-0.4c-0.2,1.6-0.2,2.5,0,4.1L19.4,35.3z"/>
<path class="st1" d="M20.5,28l1.6-2.8l5.1,2.5c-1,1.3-1.4,2-2,3.5L20.5,28z"/>
<path class="st1" d="M27.9,46.9l-2.8-1.6l2.5-5.1c1.3,1,2,1.4,3.5,2L27.9,46.9z"/>
<path class="st1" d="M25.1,22.1l2.8-1.6l3.2,4.7c-1.5,0.6-2.3,1-3.5,2L25.1,22.1z"/>
<path class="st2" d="M44.6,33.7c0,6.1-4.9,11-11,11s-11-4.9-11-11s4.9-11,11-11S44.6,27.6,44.6,33.7z M25.8,33.7
	c0,4.3,3.5,7.9,7.9,7.9s7.9-3.5,7.9-7.9c0-4.3-3.5-7.9-7.9-7.9S25.8,29.3,25.8,33.7z"/>
<path class="st1" d="M46.8,18.6l-0.9,0.9l1.9,1.9l0.9-0.9L46.8,18.6z M59.7,9.5l0.9-0.9l-1.9-1.9l-0.9,0.9L59.7,9.5z M48.7,20.5
	l11-11l-1.9-1.9l-11,11L48.7,20.5z"/>
<path class="st1" d="M48.7,46.9L47.8,46l-1.9,1.9l0.9,0.9L48.7,46.9z M57.8,59.7l0.9,0.9l1.9-1.9l-0.9-0.9L57.8,59.7z M46.8,48.7
	l11,11l1.9-1.9l-11-11L46.8,48.7z"/>
<path class="st1" d="M18.6,46.9l0.9-0.9l1.9,1.9l-0.9,0.9L18.6,46.9z M9.5,59.7l-0.9,0.9l-1.9-1.9l0.9-0.9L9.5,59.7z M20.5,48.7
	l-11,11l-1.9-1.9l11-11L20.5,48.7z"/>
<path class="st1" d="M20.4,18.6l0.9,0.9l-1.9,1.9l-0.9-0.9L20.4,18.6z M7.6,9.5l-1-0.9l1.9-1.9l0.9,0.9L7.6,9.5z M18.6,20.5l-11-11
	l1.9-1.9l11,11L18.6,20.5z"/>
<path class="st3" d="M49.3,24.3l4.6-4.6l3.9,1.1l3.5-3.5"/>
<path class="st3" d="M43,49.4l4.6,4.6l-1.1,3.9l3.5,3.5"/>
<path class="st3" d="M24.2,49.4L19.6,54l1.1,3.9l-3.5,3.5"/>
<path class="st3" d="M17.9,24.3l-4.6-4.6l-3.9,1.1l-3.5-3.5"/>
<path class="st3" d="M43.1,18l4.6-4.6l-1.1-3.9L50.1,6"/>
<path class="st3" d="M49.3,43.1l4.6,4.6l3.9-1.1l3.4,3.4"/>
<path class="st3" d="M17.9,43.1l-4.6,4.6l-3.9-1.1L6,50"/>
<path class="st3" d="M24.2,18l-4.6-4.6l1.1-3.9L17.2,6"/>
<path class="st4" d="M52.5,27.4l2.5-2.5l6.6,2.2"/>
<path class="st4" d="M39.9,52.5l2.5,2.5l-2.2,6.6"/>
<path class="st4" d="M27.4,52.5L24.8,55l2.2,6.6"/>
<path class="st4" d="M14.8,27.4l-2.5-2.5l-6.6,2.2"/>
<path class="st4" d="M39.9,14.9l2.5-2.5l-2.2-6.7"/>
<path class="st4" d="M52.5,40l2.5,2.5l6.6-2.2"/>
<path class="st4" d="M14.8,40l-2.5,2.5l-6.6-2.2"/>
<path class="st4" d="M27.3,14.9l-2.5-2.5L27,5.8"/>
<path class="st3" d="M39,14.5l13.8,13.8c2.9,2.9,2.9,7.7,0,10.7L39,52.8c-2.9,2.9-7.7,2.9-10.7,0L14.5,39c-2.9-2.9-2.9-7.7,0-10.7
	l13.8-13.8C31.2,11.6,36,11.6,39,14.5z"/>
</svg>
