<?xml version="1.0" encoding="utf-8"?>
<!-- Generator: Adobe Illustrator 23.0.3, SVG Export Plug-In . SVG Version: 6.00 Build 0)  -->
<svg version="1.1" id="Слой_1" xmlns="http://www.w3.org/2000/svg" xmlns:xlink="http://www.w3.org/1999/xlink" x="0px" y="0px"
	 viewBox="0 0 78 77" style="enable-background:new 0 0 78 77;" xml:space="preserve">
<style type="text/css">
	.st0{fill-rule:evenodd;clip-rule:evenodd;}
</style>
<path d="M56.8,0H13.6c-1.3,0-2.3,0.9-2.3,2v39H16V4.1h40.9v14.2H73v54.6H16v-7.7h-4.7V75c0,1.1,1.1,2,2.3,2h61.8
	c1.3,0,2.3-0.9,2.3-2V18.3L56.8,0z"/>
<path d="M50,16l13,22H37L50,16z"/>
<path d="M35.5,20l10,18h-20L35.5,20z"/>
<circle cx="26" cy="15" r="4"/>
<path class="st0" d="M56.2,43H0v20.2h47.7L56.2,43z M11.9,48.1V59h1.8v-4.1h1.2c1.1,0,1.9-0.1,2.3-0.3s0.8-0.6,1.1-1.1
	c0.3-0.5,0.4-1.2,0.4-2c0-0.9-0.2-1.6-0.5-2.1c-0.3-0.6-0.8-0.9-1.3-1.1c-0.3-0.1-1-0.2-2.1-0.2C14.8,48.1,11.9,48.1,11.9,48.1z
	 M13.7,53v-3.1h0.9c0.8,0,1.2,0,1.5,0.1c0.2,0.1,0.4,0.3,0.6,0.5s0.2,0.6,0.2,0.9c0,0.4-0.1,0.7-0.2,0.9c-0.2,0.2-0.4,0.4-0.6,0.5
	C15.8,53,15.4,53,14.7,53H13.7z M21.7,48.1V59h1.7v-7.1L27,59h1.8V48.1h-1.7v7.3l-3.7-7.3H21.7z M36.2,53.1V55h2.1v1.4
	c-0.3,0.3-0.6,0.5-1,0.7s-0.7,0.2-1.1,0.2c-0.8,0-1.4-0.3-1.8-0.9c-0.5-0.7-0.8-1.7-0.8-3c0-1.2,0.2-2.1,0.7-2.7
	c0.5-0.6,1.1-0.9,1.9-0.9c0.5,0,0.9,0.1,1.3,0.4c0.4,0.3,0.6,0.7,0.7,1.3l1.8-0.4c-0.2-1.1-0.6-1.9-1.2-2.4
	c-0.6-0.5-1.5-0.8-2.6-0.8c-0.9,0-1.7,0.2-2.3,0.6c-0.6,0.4-1.2,1.1-1.6,1.9c-0.4,0.9-0.6,1.9-0.6,3.1c0,1.2,0.2,2.2,0.6,3.1
	c0.4,0.9,0.9,1.5,1.6,2c0.7,0.4,1.5,0.6,2.3,0.6c0.7,0,1.4-0.2,2.2-0.5c0.7-0.3,1.3-0.7,1.7-1.2v-4.4C40.1,53.1,36.2,53.1,36.2,53.1
	z"/>
</svg>
