<?xml version="1.0" encoding="utf-8"?>
<!-- Generator: Adobe Illustrator 23.0.3, SVG Export Plug-In . SVG Version: 6.00 Build 0)  -->
<svg version="1.1" id="Слой_1" xmlns="http://www.w3.org/2000/svg" xmlns:xlink="http://www.w3.org/1999/xlink" x="0px" y="0px"
	 viewBox="0 0 78 77" style="enable-background:new 0 0 78 77;" xml:space="preserve">
<style type="text/css">
	.st0{fill:#063462;}
	.st1{fill-rule:evenodd;clip-rule:evenodd;fill:#063462;}
</style>
<path class="st0" d="M56.8,0H13.6c-1.3,0-2.3,0.9-2.3,2v39H16V4.1h40.9v14.2H73v54.6H16v-7.7h-4.7V75c0,1.1,1.1,2,2.3,2h61.8
	c1.3,0,2.3-0.9,2.3-2V18.3L56.8,0z"/>
<path class="st1" d="M56.2,43H0v20.2h47.7L56.2,43z M11.1,57v2h7.3v-1.8h-5.1l4.9-7.4v-1.7h-6.6v1.8h4.2L11.1,57z M20.9,48.1V59h1.8
	V48.1H20.9z M25.8,48.1V59h1.8v-4.1h1.2c1.1,0,1.9-0.1,2.3-0.3c0.4-0.2,0.8-0.6,1.1-1.1c0.3-0.5,0.4-1.2,0.4-2
	c0-0.9-0.2-1.6-0.5-2.1c-0.3-0.6-0.8-0.9-1.3-1.1c-0.3-0.1-1-0.2-2.1-0.2H25.8z M27.6,53v-3.1h0.9c0.8,0,1.2,0,1.5,0.1
	c0.2,0.1,0.4,0.3,0.6,0.5c0.2,0.2,0.2,0.6,0.2,0.9c0,0.4-0.1,0.7-0.2,0.9c-0.2,0.2-0.4,0.4-0.6,0.5C29.7,53,29.3,53,28.6,53H27.6z"
	/>
<path class="st1" d="M31,17c2.2,0,4-1.8,4-4S33.2,3,31,3s-4,7.8-4,10S28.8,17,31,17z M31,15.3c1.3,0,2.4-1.2,2.4-2.6S32.3,10,31,10
	s-2.4,1.2-2.4,2.6S29.7,15.3,31,15.3z"/>
<path class="st0" d="M29,21c0-1.1,0.9-2,2-2l0,0c1.1,0,2,0.9,2,2v2c0,1.1-0.9,2-2,2l0,0c-1.1,0-2-0.9-2-2V21z"/>
<path class="st0" d="M29,29c0-1.1,0.9-2,2-2l0,0c1.1,0,2,0.9,2,2v2c0,1.1-0.9,2-2,2l0,0c-1.1,0-2-0.9-2-2V29z"/>
<path class="st0" d="M29,37c0-1.1,0.9-2,2-2l0,0c1.1,0,2,0.9,2,2v2c0,1.1-0.9,2-2,2l0,0c-1.1,0-2-0.9-2-2V37z"/>
</svg>
