<?xml version="1.0" encoding="utf-8"?>
<!-- Generator: Adobe Illustrator 23.0.3, SVG Export Plug-In . SVG Version: 6.00 Build 0)  -->
<svg version="1.1" id="Слой_1" xmlns="http://www.w3.org/2000/svg" xmlns:xlink="http://www.w3.org/1999/xlink" x="0px" y="0px"
	 viewBox="0 0 78 77" style="enable-background:new 0 0 78 77;" xml:space="preserve">
<style type="text/css">
	.st0{fill:#063462;}
	.st1{fill-rule:evenodd;clip-rule:evenodd;fill:#063462;}
</style>
<path class="st0" d="M56.8,0H13.6c-1.3,0-2.3,0.9-2.3,2v39H16V4.1h40.9v14.2H73v54.6H16v-7.7h-4.7V75c0,1.1,1.1,2,2.3,2h61.8
	c1.3,0,2.3-0.9,2.3-2V18.3L56.8,0z"/>
<path class="st1" d="M56.2,43H0v20.2h47.7L56.2,43z M11.9,48.1V59h1.8v-4.6h0.4c0.4,0,0.7,0,0.9,0.1c0.2,0.1,0.4,0.2,0.5,0.4
	c0.2,0.2,0.5,0.8,1,1.6l1.3,2.4H20l-1.1-2.1c-0.4-0.9-0.8-1.4-1-1.8c-0.3-0.3-0.6-0.6-1-0.9c0.8-0.1,1.3-0.5,1.7-1
	c0.4-0.5,0.6-1.2,0.6-2.1c0-0.7-0.1-1.3-0.4-1.7c-0.3-0.5-0.6-0.8-1-1c-0.4-0.2-1.1-0.3-2.1-0.3H11.9z M15.1,52.7h-1.3v-2.8h1.4
	c0.8,0,1.3,0,1.5,0.1c0.2,0.1,0.4,0.2,0.6,0.4c0.1,0.2,0.2,0.5,0.2,0.8c0,0.4-0.1,0.7-0.2,0.9c-0.1,0.2-0.3,0.4-0.5,0.4
	C16.4,52.7,15.9,52.7,15.1,52.7z M28.4,59h2l-3.6-10.9h-1.9L21.4,59h1.9l0.7-2.5h3.6L28.4,59z M25.8,50.6l1.2,4.1h-2.4L25.8,50.6z
	 M32.7,48.1V59h1.8v-4.6h0.4c0.4,0,0.7,0,0.9,0.1c0.2,0.1,0.4,0.2,0.5,0.4c0.2,0.2,0.5,0.8,1,1.6l1.3,2.4h2.2l-1.1-2.1
	c-0.4-0.9-0.8-1.4-1-1.8c-0.3-0.3-0.6-0.6-1-0.9c0.8-0.1,1.3-0.5,1.7-1c0.4-0.5,0.6-1.2,0.6-2.1c0-0.7-0.1-1.3-0.4-1.7
	c-0.3-0.5-0.6-0.8-1-1c-0.4-0.2-1.1-0.3-2.1-0.3H32.7z M35.9,52.7h-1.3v-2.8h1.4c0.8,0,1.3,0,1.5,0.1c0.2,0.1,0.4,0.2,0.6,0.4
	c0.1,0.2,0.2,0.5,0.2,0.8c0,0.4-0.1,0.7-0.2,0.9c-0.1,0.2-0.3,0.4-0.5,0.4C37.2,52.7,36.7,52.7,35.9,52.7z"/>
<path class="st1" d="M31,17c2.2,0,4-1.8,4-4S33.2,3,31,3s-4,7.8-4,10S28.8,17,31,17z M31,15.3c1.3,0,2.4-1.2,2.4-2.6S32.3,10,31,10
	s-2.4,1.2-2.4,2.6S29.7,15.3,31,15.3z"/>
<path class="st0" d="M29,21c0-1.1,0.9-2,2-2l0,0c1.1,0,2,0.9,2,2v2c0,1.1-0.9,2-2,2l0,0c-1.1,0-2-0.9-2-2V21z"/>
<path class="st0" d="M29,29c0-1.1,0.9-2,2-2l0,0c1.1,0,2,0.9,2,2v2c0,1.1-0.9,2-2,2l0,0c-1.1,0-2-0.9-2-2V29z"/>
<path class="st0" d="M29,37c0-1.1,0.9-2,2-2l0,0c1.1,0,2,0.9,2,2v2c0,1.1-0.9,2-2,2l0,0c-1.1,0-2-0.9-2-2V37z"/>
</svg>
