<?xml version="1.0" encoding="utf-8"?>
<!-- Generator: Adobe Illustrator 23.0.3, SVG Export Plug-In . SVG Version: 6.00 Build 0)  -->
<svg version="1.1" id="Слой_1" xmlns="http://www.w3.org/2000/svg" xmlns:xlink="http://www.w3.org/1999/xlink" x="0px" y="0px"
	 viewBox="0 0 78 77" style="enable-background:new 0 0 78 77;" xml:space="preserve">
<style type="text/css">
	.st0{fill:#063462;}
	.st1{fill-rule:evenodd;clip-rule:evenodd;fill:#063462;}
</style>
<path class="st0" d="M56.8,0H13.6c-1.3,0-2.3,0.9-2.3,2v39H16V4.1h40.9v14.2H73v54.6H16v-7.7h-4.7V75c0,1.1,1.1,2,2.3,2h61.8
	c1.3,0,2.3-0.9,2.3-2V18.3L56.8,0z"/>
<path class="st0" d="M64.2,25H20.5v3h43.7V25z"/>
<path class="st0" d="M57.3,30.7H20.5v3h36.8V30.7z"/>
<path class="st1" d="M56.2,43H0v20.2h47.7L56.2,43z M11.9,48.1V59h1.8v-4.1h1.2c1.1,0,1.9-0.1,2.3-0.3s0.8-0.6,1.1-1.1
	c0.3-0.5,0.4-1.2,0.4-2c0-0.9-0.2-1.6-0.5-2.1c-0.3-0.6-0.8-0.9-1.3-1.1c-0.3-0.1-1-0.2-2.1-0.2C14.8,48.1,11.9,48.1,11.9,48.1z
	 M13.7,53v-3.1h0.9c0.8,0,1.2,0,1.5,0.1c0.2,0.1,0.4,0.3,0.6,0.5s0.2,0.6,0.2,0.9c0,0.4-0.1,0.7-0.2,0.9c-0.2,0.2-0.4,0.4-0.6,0.5
	C15.8,53,15.4,53,14.7,53H13.7z M24.9,48.1h-3.3V59H25c0.7,0,1.3-0.1,1.8-0.3s0.9-0.5,1.2-0.9c0.3-0.4,0.6-1,0.8-1.7
	c0.2-0.7,0.3-1.5,0.3-2.5S29,51.7,28.8,51s-0.5-1.3-0.8-1.7c-0.4-0.4-0.8-0.8-1.2-0.9C26.4,48.2,25.8,48.1,24.9,48.1z M23.4,57.2V50
	h0.8c0.7,0,1.2,0,1.5,0.1s0.6,0.3,0.9,0.5c0.2,0.3,0.4,0.6,0.5,1.1s0.2,1.1,0.2,1.9c0,0.8-0.1,1.4-0.2,1.9s-0.2,0.8-0.4,1.1
	c-0.2,0.2-0.4,0.4-0.6,0.5c-0.3,0.1-0.7,0.2-1.3,0.2L23.4,57.2L23.4,57.2z M32,48.1V59h1.8v-4.6h3.7v-1.8h-3.7V50h4.3v-1.8H32V48.1z
	"/>
</svg>
