<?xml version="1.0" encoding="utf-8"?>
<!-- Generator: Adobe Illustrator 23.0.3, SVG Export Plug-In . SVG Version: 6.00 Build 0)  -->
<svg version="1.1" id="Слой_1" xmlns="http://www.w3.org/2000/svg" xmlns:xlink="http://www.w3.org/1999/xlink" x="0px" y="0px"
	 viewBox="0 0 78 77" style="enable-background:new 0 0 78 77;" xml:space="preserve">
<style type="text/css">
	.st0{fill:#063462;}
	.st1{fill-rule:evenodd;clip-rule:evenodd;fill:#063462;}
	.st2{fill:none;stroke:#063462;stroke-width:2;}
</style>
<path class="st0" d="M56.8,0H13.6c-1.3,0-2.3,0.9-2.3,2v39H16V4.1h40.9v14.2H73v54.6H16v-7.7h-4.7V75c0,1.1,1.1,2,2.3,2h61.8
	c1.3,0,2.3-0.9,2.3-2V18.3L56.8,0z"/>
<path class="st1" d="M56.2,43H0v20.2h47.7L56.2,43z M14.1,53.3L11,59h2.2l2-3.8l2,3.8h2.2l-3.1-5.6l2.8-5.3H17l-1.8,3.5l-1.8-3.5
	h-2.1L14.1,53.3z M21.7,48.2V59H28v-1.8h-4.5v-9H21.7z M32,55.2l-1.8,0.2c0.2,2.5,1.5,3.7,3.7,3.7c1.2,0,2.2-0.3,2.7-1
	c0.6-0.6,0.9-1.4,0.9-2.4c0-0.7-0.1-1.2-0.3-1.7s-0.5-0.8-0.9-1.1s-1.1-0.6-2-0.8s-1.4-0.5-1.6-0.7c-0.2-0.2-0.4-0.5-0.4-0.8
	s0.1-0.6,0.4-0.8c0.3-0.2,0.6-0.3,1.1-0.3s0.9,0.1,1.1,0.4c0.3,0.2,0.4,0.6,0.5,1.2l1.8-0.1c0-1.1-0.3-1.9-0.9-2.5
	c-0.6-0.6-1.4-0.9-2.5-0.9c-0.7,0-1.3,0.1-1.8,0.4c-0.5,0.2-0.9,0.6-1.1,1.1c-0.3,0.5-0.4,1-0.4,1.6c0,0.5,0.1,1,0.3,1.4
	c0.2,0.4,0.5,0.8,0.9,1.1s0.9,0.5,1.7,0.8c0.9,0.3,1.4,0.5,1.6,0.6c0.2,0.1,0.4,0.3,0.5,0.4c0.1,0.2,0.2,0.4,0.2,0.6
	c0,0.4-0.2,0.8-0.5,1.1s-0.7,0.4-1.3,0.4C32.8,57.3,32.2,56.6,32,55.2z"/>
<rect x="23" y="22" class="st2" width="41" height="16"/>
<line class="st2" x1="22" y1="30" x2="64" y2="30"/>
<path class="st2" d="M31,21v17.5 M39,21v17.5 M47.5,21v17.5 M56,21.5V39"/>
</svg>
