<svg width="930" height="678" viewBox="0 0 930 678" fill="none" xmlns="http://www.w3.org/2000/svg">
<path d="M387.428 339C387.428 365.746 365.746 387.428 339 387.428C312.254 387.428 290.571 365.746 290.571 339C290.571 312.254 312.254 290.571 339 290.571C365.746 290.571 387.428 312.254 387.428 339ZM312.516 339C312.516 353.627 324.373 365.484 339 365.484C353.627 365.484 365.484 353.627 365.484 339C365.484 324.373 353.627 312.516 339 312.516C324.373 312.516 312.516 324.373 312.516 339Z" fill="#EEEEEE"/>
<path d="M765.172 339C765.172 365.746 743.489 387.428 716.743 387.428C689.997 387.428 668.314 365.746 668.314 339C668.314 312.254 689.997 290.571 716.743 290.571C743.489 290.571 765.172 312.254 765.172 339ZM690.259 339C690.259 353.627 702.116 365.484 716.743 365.484C731.37 365.484 743.227 353.627 743.227 339C743.227 324.373 731.37 312.516 716.743 312.516C702.116 312.516 690.259 324.373 690.259 339Z" fill="#EEEEEE"/>
<path d="M929.829 222.771C929.829 249.518 908.146 271.2 881.4 271.2C854.654 271.2 832.971 249.518 832.971 222.771C832.971 196.025 854.654 174.343 881.4 174.343C908.146 174.343 929.829 196.025 929.829 222.771ZM854.916 222.771C854.916 237.398 866.773 249.255 881.4 249.255C896.027 249.255 907.884 237.398 907.884 222.771C907.884 208.145 896.027 196.287 881.4 196.287C866.773 196.287 854.916 208.145 854.916 222.771Z" fill="#EEEEEE"/>
<path d="M842.657 455.229C842.657 481.975 820.975 503.657 794.229 503.657C767.482 503.657 745.8 481.975 745.8 455.229C745.8 428.482 767.482 406.8 794.229 406.8C820.975 406.8 842.657 428.482 842.657 455.229ZM767.745 455.229C767.745 469.855 779.602 481.713 794.229 481.713C808.855 481.713 820.713 469.855 820.713 455.229C820.713 440.602 808.855 428.745 794.229 428.745C779.602 428.745 767.745 440.602 767.745 455.229Z" fill="#EEEEEE"/>
<path d="M377.743 0H300.257L294.453 81.2647C278.672 83.9729 263.375 88.0952 248.696 93.4964L203.053 26.0457L135.948 64.7886L171.57 138.101C159.433 148.227 148.228 159.432 138.102 171.569L64.7886 135.947L26.0457 203.052L93.4967 248.695C88.0953 263.374 83.973 278.672 81.2647 294.453L0 300.257V377.743L81.2647 383.547C83.9729 399.328 88.0952 414.625 93.4964 429.304L26.0457 474.947L64.7886 542.052L138.101 506.43C148.227 518.567 159.432 529.772 171.569 539.898L135.947 613.211L203.052 651.954L248.695 584.503C263.374 589.905 278.672 594.027 294.453 596.735L300.257 678H377.743L383.547 596.735C399.328 594.027 414.625 589.905 429.304 584.504L474.947 651.954L542.052 613.211L506.43 539.899C518.567 529.773 529.772 518.568 539.898 506.431L613.211 542.053L651.954 474.948L622.812 455.229H505.799C469.06 507.855 408.05 542.283 339 542.283C226.73 542.283 135.717 451.27 135.717 339C135.717 226.73 226.73 135.717 339 135.717C408.05 135.717 469.06 170.145 505.799 222.771L622.814 222.771L651.954 203.052L613.211 135.948L539.898 171.569C529.772 159.433 518.568 148.228 506.431 138.102L542.053 64.7886L474.948 26.0457L429.305 93.4967C414.626 88.0953 399.328 83.973 383.547 81.2647L377.743 0Z" fill="#EEEEEE"/>
<path fill-rule="evenodd" clip-rule="evenodd" d="M505.054 285.729C482.541 215.497 416.708 164.657 339 164.657C242.713 164.657 164.657 242.713 164.657 339C164.657 435.287 242.713 513.343 339 513.343C416.708 513.343 482.541 462.504 505.054 392.271H471.79C450.662 444.887 399.17 482.039 339 482.039C260.002 482.039 195.962 417.998 195.962 339C195.962 260.002 260.002 195.962 339 195.962C399.17 195.962 450.662 233.113 471.789 285.729L505.054 285.729Z" fill="#EEEEEE"/>
<path fill-rule="evenodd" clip-rule="evenodd" d="M434.121 290.956C416.557 256.25 380.557 232.457 339 232.457C280.158 232.457 232.457 280.158 232.457 339C232.457 397.842 280.158 445.543 339 445.543C380.403 445.543 416.29 421.926 433.925 387.429H398.967C384.837 404.904 363.223 416.078 339 416.078C296.431 416.078 261.921 381.569 261.921 339C261.921 296.431 296.431 261.921 339 261.921C363.572 261.921 385.459 273.42 399.573 291.329L434.121 290.956Z" fill="#EEEEEE"/>
<path d="M368.057 339H678" stroke="#EEEEEE" stroke-width="29.0571"/>
<path d="M484.286 271.2H647.547L691.432 222.771H852.343" stroke="#EEEEEE" stroke-width="29.0571"/>
<path d="M474.6 406.8H636.749L680.335 455.229H752.978" stroke="#EEEEEE" stroke-width="29.0571"/>
</svg>
