<?xml version="1.0" encoding="utf-8"?>
<!-- Generator: Adobe Illustrator 23.0.3, SVG Export Plug-In . SVG Version: 6.00 Build 0)  -->
<svg version="1.1" id="Слой_1" xmlns="http://www.w3.org/2000/svg" xmlns:xlink="http://www.w3.org/1999/xlink" x="0px" y="0px"
	 viewBox="0 0 78 77" style="enable-background:new 0 0 78 77;" xml:space="preserve">
<style type="text/css">
	.st0{fill:#2FD385;}
	.st1{fill-rule:evenodd;clip-rule:evenodd;fill:#2FD385;}
</style>
<path class="st0" d="M56.8,0H13.6c-1.3,0-2.3,0.9-2.3,2v39H16V4.1h40.9v14.2H73v54.6H16v-7.7h-4.7V75c0,1.1,1.1,2,2.3,2h61.8
	c1.3,0,2.3-0.9,2.3-2V18.3L56.8,0z"/>
<path class="st1" d="M56.2,43H0v20.2h47.7L56.2,43z M15.2,48.1h-3.3V59h3.4c0.7,0,1.3-0.1,1.8-0.3s0.9-0.5,1.2-0.9
	c0.3-0.4,0.6-1,0.8-1.7c0.2-0.7,0.3-1.5,0.3-2.5s-0.1-1.9-0.3-2.6c-0.2-0.7-0.5-1.3-0.8-1.7c-0.4-0.4-0.8-0.8-1.2-0.9
	C16.7,48.2,16,48.1,15.2,48.1z M13.7,57.2V50h0.8c0.7,0,1.2,0,1.5,0.1c0.3,0.1,0.6,0.3,0.9,0.5c0.2,0.3,0.4,0.6,0.5,1.1
	s0.2,1.1,0.2,1.9c0,0.8-0.1,1.4-0.2,1.9s-0.2,0.8-0.4,1.1c-0.2,0.2-0.4,0.4-0.6,0.5c-0.3,0.1-0.7,0.2-1.3,0.2L13.7,57.2L13.7,57.2z
	 M22.5,50.4c-0.4,0.8-0.6,1.9-0.6,3.2c0,1.8,0.4,3.2,1.3,4.2c0.8,0.9,1.8,1.3,3.1,1.3c1.3,0,2.3-0.5,3.1-1.4c0.9-1,1.3-2.5,1.3-4.3
	s-0.4-3.2-1.2-4.2c-0.8-1-1.8-1.5-3.1-1.5c-0.9,0-1.6,0.2-2.3,0.6C23.4,48.9,22.9,49.5,22.5,50.4z M24.5,56.4
	c-0.5-0.6-0.7-1.6-0.7-2.8c0-1.3,0.2-2.2,0.7-2.8s1.1-0.9,1.8-0.9c0.7,0,1.3,0.3,1.8,0.9c0.5,0.6,0.7,1.5,0.7,2.8s-0.2,2.3-0.7,2.9
	c-0.5,0.6-1.1,0.9-1.8,0.9C25.6,57.3,25,57,24.5,56.4z M40.9,55.7L39.2,55c-0.2,0.8-0.4,1.4-0.8,1.8c-0.3,0.4-0.8,0.6-1.2,0.6
	c-0.7,0-1.2-0.3-1.6-0.9c-0.4-0.6-0.6-1.6-0.6-2.9c0-1.3,0.2-2.3,0.6-2.9c0.4-0.6,1-0.9,1.6-0.9c0.5,0,0.9,0.2,1.2,0.5
	s0.6,0.8,0.7,1.4l1.8-0.5c-0.2-1-0.6-1.7-1.1-2.2c-0.7-0.7-1.5-1-2.5-1c-1.2,0-2.2,0.5-2.9,1.4c-0.8,1.1-1.3,2.5-1.3,4.4
	c0,1.8,0.4,3.2,1.3,4.2c0.7,0.9,1.7,1.3,2.8,1.3c0.9,0,1.7-0.3,2.3-0.8C40.2,57.8,40.6,56.9,40.9,55.7z"/>
<path class="st0" d="M64,24H20v3h44V24z"/>
<path class="st0" d="M64,29H20v3h44V29z"/>
<path class="st0" d="M53,19H20v3h33V19z"/>
<path class="st0" d="M42,14H20v3h22V14z"/>
<path class="st0" d="M64,34H20v3h44V34z"/>
</svg>
