<svg width="53" height="28" viewBox="0 0 53 28" fill="none" xmlns="http://www.w3.org/2000/svg">
<path d="M51.38 13.8851C51.467 14.0112 51.5362 14.1182 51.5893 14.2059C51.541 14.2867 51.4788 14.3842 51.4012 14.4982C51.1311 14.895 50.7125 15.4353 50.1458 16.0728C49.0142 17.3459 47.3255 18.9694 45.128 20.5723C40.7324 23.7785 34.3472 26.8701 26.3403 26.9683C18.3451 27.0663 11.9703 24.029 7.58094 20.8028C5.38621 19.1896 3.69995 17.5375 2.57038 16.2272C2.00468 15.571 1.58755 15.0109 1.31862 14.5941C1.21727 14.4371 1.14237 14.3087 1.09004 14.2095C1.14573 14.1082 1.22568 13.9766 1.33394 13.815C1.61849 13.3904 2.05771 12.8197 2.64861 12.1504C3.82842 10.8139 5.57554 9.12637 7.81307 7.47211C12.2929 4.16008 18.671 1.02941 26.3529 1.02941C34.0304 1.02941 40.4074 4.20728 44.8899 7.54601C47.1283 9.21326 48.8773 10.9085 50.0596 12.2386C50.6516 12.9046 51.0932 13.4697 51.38 13.8851ZM1.00763 14.0309C1.00774 14.0309 1.00866 14.0335 1.01006 14.0385C1.00822 14.0333 1.00752 14.0308 1.00763 14.0309ZM1.00385 14.3883C1.0037 14.3884 1.00461 14.3854 1.00703 14.379C1.00521 14.385 1.004 14.3882 1.00385 14.3883Z" stroke="#32428B" stroke-width="2.05882"/>
<path d="M37.4706 14C37.4706 20.1401 32.4931 25.1177 26.353 25.1177C20.2129 25.1177 15.2354 20.1401 15.2354 14C15.2354 7.85991 20.2129 2.88237 26.353 2.88237C32.4931 2.88237 37.4706 7.85991 37.4706 14ZM17.5774 14C17.5774 18.8466 21.5064 22.7756 26.353 22.7756C31.1996 22.7756 35.1286 18.8466 35.1286 14C35.1286 9.15341 31.1996 5.22446 26.353 5.22446C21.5064 5.22446 17.5774 9.15341 17.5774 14Z" fill="#2FD385"/>
<circle cx="26.3527" cy="13.9899" r="6.18155" fill="#32428B"/>
<path d="M47.5003 13.6645C47.5003 14.7426 46.6264 15.6165 45.5483 15.6165C44.4702 15.6165 43.5962 14.7426 43.5962 13.6645C43.5962 12.5864 44.4702 11.7124 45.5483 11.7124C46.6264 11.7124 47.5003 12.5864 47.5003 13.6645ZM44.6767 13.6645C44.6767 14.1458 45.0669 14.536 45.5483 14.536C46.0296 14.536 46.4198 14.1458 46.4198 13.6645C46.4198 13.1831 46.0296 12.793 45.5483 12.793C45.0669 12.793 44.6767 13.1831 44.6767 13.6645Z" fill="#2FD385"/>
<path d="M5.20548 13.6645C5.20548 14.7426 6.07945 15.6165 7.15755 15.6165C8.23565 15.6165 9.10962 14.7426 9.10962 13.6645C9.10962 12.5864 8.23565 11.7124 7.15755 11.7124C6.07945 11.7124 5.20548 12.5864 5.20548 13.6645ZM8.02907 13.6645C8.02907 14.1458 7.63888 14.536 7.15755 14.536C6.67622 14.536 6.28603 14.1458 6.28603 13.6645C6.28603 13.1831 6.67622 12.793 7.15755 12.793C7.63888 12.793 8.02907 13.1831 8.02907 13.6645Z" fill="#2FD385"/>
<path d="M44.2469 9.76037C44.2469 10.8385 43.3729 11.7124 42.2948 11.7124C41.2167 11.7124 40.3428 10.8385 40.3428 9.76037C40.3428 8.68227 41.2167 7.8083 42.2948 7.8083C43.3729 7.8083 44.2469 8.68227 44.2469 9.76037ZM41.4233 9.76037C41.4233 10.2417 41.8135 10.6319 42.2948 10.6319C42.7762 10.6319 43.1664 10.2417 43.1664 9.76037C43.1664 9.27904 42.7762 8.88885 42.2948 8.88885C41.8135 8.88885 41.4233 9.27904 41.4233 9.76037Z" fill="#2FD385"/>
<path d="M8.4589 9.76037C8.4589 10.8385 9.33287 11.7124 10.411 11.7124C11.4891 11.7124 12.363 10.8385 12.363 9.76037C12.363 8.68227 11.4891 7.8083 10.411 7.8083C9.33287 7.8083 8.4589 8.68227 8.4589 9.76037ZM11.2825 9.76037C11.2825 10.2417 10.8923 10.6319 10.411 10.6319C9.92964 10.6319 9.53945 10.2417 9.53945 9.76037C9.53945 9.27904 9.92964 8.88885 10.411 8.88885C10.8923 8.88885 11.2825 9.27904 11.2825 9.76037Z" fill="#2FD385"/>
<path d="M43.9215 17.5686C43.9215 16.4905 43.0475 15.6166 41.9694 15.6166C40.8913 15.6166 40.0173 16.4905 40.0173 17.5686C40.0173 18.6467 40.8913 19.5207 41.9694 19.5207C43.0475 19.5207 43.9215 18.6467 43.9215 17.5686ZM41.0979 17.5686C41.0979 17.0873 41.4881 16.6971 41.9694 16.6971C42.4507 16.6971 42.8409 17.0873 42.8409 17.5686C42.8409 18.05 42.4507 18.4402 41.9694 18.4402C41.4881 18.4402 41.0979 18.05 41.0979 17.5686Z" fill="#2FD385"/>
<path d="M8.78434 17.5686C8.78434 16.4905 9.65831 15.6166 10.7364 15.6166C11.8145 15.6166 12.6885 16.4905 12.6885 17.5686C12.6885 18.6467 11.8145 19.5207 10.7364 19.5207C9.65831 19.5207 8.78434 18.6467 8.78434 17.5686ZM11.6079 17.5686C11.6079 17.0873 11.2177 16.6971 10.7364 16.6971C10.2551 16.6971 9.86489 17.0873 9.86489 17.5686C9.86489 18.05 10.2551 18.4402 10.7364 18.4402C11.2177 18.4402 11.6079 18.05 11.6079 17.5686Z" fill="#2FD385"/>
<path d="M36.647 13.5561L44.2468 13.5561" stroke="#2FD385" stroke-width="1.71131"/>
<path d="M16.0588 13.5561L8.45898 13.5561" stroke="#2FD385" stroke-width="1.71131"/>
<path d="M35.5655 10.7297C35.2025 11.0323 35.1534 11.5718 35.4559 11.9349C35.7585 12.2979 36.298 12.3469 36.6611 12.0444L35.5655 10.7297ZM38.0654 9.76035V8.90469H37.7556L37.5176 9.10302L38.0654 9.76035ZM40.3428 10.616H41.1984V8.90469H40.3428V10.616ZM36.6611 12.0444L38.6131 10.4177L37.5176 9.10302L35.5655 10.7297L36.6611 12.0444ZM38.0654 10.616H40.3428V8.90469H38.0654V10.616Z" fill="#2FD385"/>
<path d="M17.1403 10.7297C17.5033 11.0323 17.5524 11.5718 17.2499 11.9349C16.9473 12.2979 16.4078 12.3469 16.0448 12.0444L17.1403 10.7297ZM14.6405 9.76035V8.90469H14.9503L15.1882 9.10302L14.6405 9.76035ZM12.363 10.616H11.5074V8.90469H12.363V10.616ZM16.0448 12.0444L14.0927 10.4177L15.1882 9.10302L17.1403 10.7297L16.0448 12.0444ZM14.6405 10.616H12.363V8.90469H14.6405V10.616Z" fill="#2FD385"/>
<path d="M35.2401 16.5993C34.877 16.2967 34.828 15.7572 35.1305 15.3941C35.433 15.0311 35.9726 14.9821 36.3356 15.2846L35.2401 16.5993ZM37.7399 17.5687V18.4243H37.4301L37.1921 18.226L37.7399 17.5687ZM40.0173 16.713H40.873V18.4243H40.0173V16.713ZM36.3356 15.2846L38.2877 16.9113L37.1921 18.226L35.2401 16.5993L36.3356 15.2846ZM37.7399 16.713H40.0173V18.4243H37.7399V16.713Z" fill="#2FD385"/>
<path d="M17.4657 16.5993C17.8288 16.2967 17.8778 15.7572 17.5753 15.3941C17.2728 15.0311 16.7332 14.9821 16.3702 15.2846L17.4657 16.5993ZM14.9659 17.5687V18.4243H15.2757L15.5137 18.226L14.9659 17.5687ZM12.6885 16.713H11.8328V18.4243H12.6885V16.713ZM16.3702 15.2846L14.4181 16.9113L15.5137 18.226L17.4657 16.5993L16.3702 15.2846ZM14.9659 16.713H12.6885V18.4243H14.9659V16.713Z" fill="#2FD385"/>
</svg>
