<svg width="99" height="74" viewBox="0 0 99 74" fill="none" xmlns="http://www.w3.org/2000/svg">
<path d="M33 0H41L42 14C38.0794 13.4601 35.9159 13.4387 32 14L33 0Z" fill="#202020"/>
<path d="M6.95706 58.9641L2.95706 52.0359L14.5814 44.1699C16.0741 47.8352 17.1374 49.7195 19.5814 52.8301L6.95706 58.9641Z" fill="#202020"/>
<path d="M21.9641 71.043L15.0359 67.043L21.1699 54.4186C24.2952 56.8465 26.1582 57.9468 29.8301 59.4186L21.9641 71.043Z" fill="#202020"/>
<path d="M15.0359 6.95709L21.9641 2.95709L29.8301 14.5814C26.1648 16.0741 24.2805 17.1374 21.1699 19.5814L15.0359 6.95709Z" fill="#202020"/>
<path d="M2.95706 21.9641L6.95706 15.0359L19.5814 21.1699C17.1535 24.2952 16.0533 26.1583 14.5814 29.8301L2.95706 21.9641Z" fill="#202020"/>
<path d="M33 74H41L42 60C38.0794 60.5399 35.9159 60.5613 32 60L33 74Z" fill="#202020"/>
<path d="M58.9641 6.95709L52.0359 2.95709L44.1699 14.5814C47.8352 16.0741 49.7195 17.1374 52.8301 19.5814L58.9641 6.95709Z" fill="#202020"/>
<path d="M52.0359 71.043L58.9641 67.043L52.8301 54.4186C49.7048 56.8465 47.8417 57.9468 44.1699 59.4186L52.0359 71.043Z" fill="#202020"/>
<path d="M-4.37114e-08 33L-3.93402e-07 41L14 42C13.4601 38.0794 13.4387 35.9159 14 32L-4.37114e-08 33Z" fill="#202020"/>
<mask id="path-10-inside-1_519_206" fill="white">
<path d="M42 37C42 39.7614 39.7614 42 37 42C34.2386 42 32 39.7614 32 37C32 34.2386 34.2386 32 37 32C39.7614 32 42 34.2386 42 37ZM34.7562 37C34.7562 38.2392 35.7608 39.2438 37 39.2438C38.2392 39.2438 39.2438 38.2392 39.2438 37C39.2438 35.7608 38.2392 34.7562 37 34.7562C35.7608 34.7562 34.7562 35.7608 34.7562 37Z"/>
</mask>
<path d="M42 37C42 39.7614 39.7614 42 37 42C34.2386 42 32 39.7614 32 37C32 34.2386 34.2386 32 37 32C39.7614 32 42 34.2386 42 37ZM34.7562 37C34.7562 38.2392 35.7608 39.2438 37 39.2438C38.2392 39.2438 39.2438 38.2392 39.2438 37C39.2438 35.7608 38.2392 34.7562 37 34.7562C35.7608 34.7562 34.7562 35.7608 34.7562 37Z" fill="#202020" stroke="#202020" stroke-width="2" mask="url(#path-10-inside-1_519_206)"/>
<path d="M98.7562 23.5C98.7562 26.2614 96.5176 28.5 93.7562 28.5C90.9948 28.5 88.7562 26.2614 88.7562 23.5C88.7562 20.7386 90.9948 18.5 93.7562 18.5C96.5176 18.5 98.7562 20.7386 98.7562 23.5ZM91.5124 23.5C91.5124 24.7392 92.517 25.7438 93.7562 25.7438C94.9954 25.7438 96 24.7392 96 23.5C96 22.2608 94.9954 21.2562 93.7562 21.2562C92.517 21.2562 91.5124 22.2608 91.5124 23.5Z" fill="#202020"/>
<path d="M90.0131 50.5C90.0131 52.9853 87.9984 55 85.5131 55C83.0278 55 81.0131 52.9853 81.0131 50.5C81.0131 48.0147 83.0278 46 85.5131 46C87.9984 46 90.0131 48.0147 90.0131 50.5ZM82.7693 50.5C82.7693 52.0154 83.9977 53.2438 85.5131 53.2438C87.0285 53.2438 88.2569 52.0154 88.2569 50.5C88.2569 48.9846 87.0285 47.7562 85.5131 47.7562C83.9977 47.7562 82.7693 48.9846 82.7693 50.5Z" fill="#202020" stroke="#202020"/>
<path d="M80.5 37C80.5 39.4853 78.4853 41.5 76 41.5C73.5147 41.5 71.5 39.4853 71.5 37C71.5 34.5147 73.5147 32.5 76 32.5C78.4853 32.5 80.5 34.5147 80.5 37ZM73.2562 37C73.2562 38.5154 74.4846 39.7438 76 39.7438C77.5154 39.7438 78.7438 38.5154 78.7438 37C78.7438 35.4846 77.5154 34.2562 76 34.2562C74.4846 34.2562 73.2562 35.4846 73.2562 37Z" fill="#202020" stroke="#202020"/>
<path fill-rule="evenodd" clip-rule="evenodd" d="M61.8056 24C57.1225 15.0824 47.7716 8.99994 37 8.99994C21.536 8.99994 9 21.536 9 36.9999C9 52.4639 21.536 64.9999 37 64.9999C47.7715 64.9999 57.1225 58.9176 61.8056 50H52.5265C48.8119 54.4318 43.2351 57.2498 37 57.2498C25.8163 57.2498 16.7502 48.1836 16.7502 36.9999C16.7502 25.8163 25.8163 16.7501 37 16.7501C43.2351 16.7501 48.812 19.5681 52.5266 24H61.8056Z" fill="#202020"/>
<path fill-rule="evenodd" clip-rule="evenodd" d="M67.0429 15.0359L71.0429 21.9641L68.0343 24H56.4746C55.8956 23.1213 55.2315 22.2163 54.4186 21.1699L67.0429 15.0359Z" fill="#202020"/>
<path fill-rule="evenodd" clip-rule="evenodd" d="M56.4805 50C55.903 50.8811 55.2385 51.7866 54.4186 52.8301L67.0429 58.9641L71.0429 52.0359L68.0343 50H56.4805Z" fill="#202020"/>
<path d="M41 37H52H72" stroke="#202020" stroke-width="3"/>
<path d="M50 29.5H69L75.5 23.5H91.5" stroke="#202020" stroke-width="3"/>
<path d="M50 44.5H69L75.5 50.5H81" stroke="#202020" stroke-width="3"/>
<path fill-rule="evenodd" clip-rule="evenodd" d="M52.9109 31C50.4856 24.5719 44.2767 20 37 20C27.6112 20 20 27.6112 20 37C20 46.3888 27.6112 54 37 54C44.2767 54 50.4856 49.4281 52.9109 43H49.6428C47.3965 47.7248 42.5797 50.991 37 50.991C29.273 50.991 23.009 44.727 23.009 37C23.009 29.273 29.273 23.009 37 23.009C42.5797 23.009 47.3965 26.2752 49.6428 31H52.9109Z" fill="#202020"/>
<path fill-rule="evenodd" clip-rule="evenodd" d="M46.2211 31C44.2584 27.9898 40.8616 26 37 26C30.9249 26 26 30.9249 26 37C26 43.0751 30.9249 48 37 48C40.8616 48 44.2584 46.0102 46.2211 43H42.2685C40.8625 44.2355 39.0188 44.9847 37 44.9847C32.5902 44.9847 29.0153 41.4098 29.0153 37C29.0153 32.5902 32.5902 29.0153 37 29.0153C39.0188 29.0153 40.8625 29.7645 42.2685 31H46.2211Z" fill="#202020"/>
</svg>
