<svg width="84" height="63" viewBox="0 0 84 63" fill="none" xmlns="http://www.w3.org/2000/svg">
<mask id="path-1-inside-1_82_169" fill="white">
<path d="M35 31.625C35 34.0412 33.0412 36 30.625 36C28.2088 36 26.25 34.0412 26.25 31.625C26.25 29.2088 28.2088 27.25 30.625 27.25C33.0412 27.25 35 29.2088 35 31.625ZM28.2325 31.625C28.2325 32.9464 29.3036 34.0175 30.625 34.0175C31.9464 34.0175 33.0175 32.9464 33.0175 31.625C33.0175 30.3036 31.9464 29.2325 30.625 29.2325C29.3036 29.2325 28.2325 30.3036 28.2325 31.625Z"/>
</mask>
<path d="M35 31.625C35 34.0412 33.0412 36 30.625 36C28.2088 36 26.25 34.0412 26.25 31.625C26.25 29.2088 28.2088 27.25 30.625 27.25C33.0412 27.25 35 29.2088 35 31.625ZM28.2325 31.625C28.2325 32.9464 29.3036 34.0175 30.625 34.0175C31.9464 34.0175 33.0175 32.9464 33.0175 31.625C33.0175 30.3036 31.9464 29.2325 30.625 29.2325C29.3036 29.2325 28.2325 30.3036 28.2325 31.625Z" fill="white" stroke="white" stroke-width="1.75" mask="url(#path-1-inside-1_82_169)"/>
<mask id="path-2-inside-2_82_169" fill="white">
<path d="M69.125 31.625C69.125 34.0412 67.1662 36 64.75 36C62.3338 36 60.375 34.0412 60.375 31.625C60.375 29.2088 62.3338 27.25 64.75 27.25C67.1662 27.25 69.125 29.2088 69.125 31.625ZM62.3575 31.625C62.3575 32.9464 63.4286 34.0175 64.75 34.0175C66.0714 34.0175 67.1425 32.9464 67.1425 31.625C67.1425 30.3036 66.0714 29.2325 64.75 29.2325C63.4286 29.2325 62.3575 30.3036 62.3575 31.625Z"/>
</mask>
<path d="M69.125 31.625C69.125 34.0412 67.1662 36 64.75 36C62.3338 36 60.375 34.0412 60.375 31.625C60.375 29.2088 62.3338 27.25 64.75 27.25C67.1662 27.25 69.125 29.2088 69.125 31.625ZM62.3575 31.625C62.3575 32.9464 63.4286 34.0175 64.75 34.0175C66.0714 34.0175 67.1425 32.9464 67.1425 31.625C67.1425 30.3036 66.0714 29.2325 64.75 29.2325C63.4286 29.2325 62.3575 30.3036 62.3575 31.625Z" fill="white" stroke="white" stroke-width="1.75" mask="url(#path-2-inside-2_82_169)"/>
<mask id="path-3-inside-3_82_169" fill="white">
<path d="M84 21.125C84 23.5412 82.0412 25.5 79.625 25.5C77.2088 25.5 75.25 23.5412 75.25 21.125C75.25 18.7088 77.2088 16.75 79.625 16.75C82.0412 16.75 84 18.7088 84 21.125ZM77.2325 21.125C77.2325 22.4464 78.3036 23.5175 79.625 23.5175C80.9464 23.5175 82.0175 22.4464 82.0175 21.125C82.0175 19.8036 80.9464 18.7325 79.625 18.7325C78.3036 18.7325 77.2325 19.8036 77.2325 21.125Z"/>
</mask>
<path d="M84 21.125C84 23.5412 82.0412 25.5 79.625 25.5C77.2088 25.5 75.25 23.5412 75.25 21.125C75.25 18.7088 77.2088 16.75 79.625 16.75C82.0412 16.75 84 18.7088 84 21.125ZM77.2325 21.125C77.2325 22.4464 78.3036 23.5175 79.625 23.5175C80.9464 23.5175 82.0175 22.4464 82.0175 21.125C82.0175 19.8036 80.9464 18.7325 79.625 18.7325C78.3036 18.7325 77.2325 19.8036 77.2325 21.125Z" fill="white" stroke="white" stroke-width="1.75" mask="url(#path-3-inside-3_82_169)"/>
<mask id="path-4-inside-4_82_169" fill="white">
<path d="M76.125 42.125C76.125 44.5412 74.1662 46.5 71.75 46.5C69.3338 46.5 67.375 44.5412 67.375 42.125C67.375 39.7088 69.3338 37.75 71.75 37.75C74.1662 37.75 76.125 39.7088 76.125 42.125ZM69.3575 42.125C69.3575 43.4464 70.4286 44.5175 71.75 44.5175C73.0714 44.5175 74.1425 43.4464 74.1425 42.125C74.1425 40.8036 73.0714 39.7325 71.75 39.7325C70.4286 39.7325 69.3575 40.8036 69.3575 42.125Z"/>
</mask>
<path d="M76.125 42.125C76.125 44.5412 74.1662 46.5 71.75 46.5C69.3338 46.5 67.375 44.5412 67.375 42.125C67.375 39.7088 69.3338 37.75 71.75 37.75C74.1662 37.75 76.125 39.7088 76.125 42.125ZM69.3575 42.125C69.3575 43.4464 70.4286 44.5175 71.75 44.5175C73.0714 44.5175 74.1425 43.4464 74.1425 42.125C74.1425 40.8036 73.0714 39.7325 71.75 39.7325C70.4286 39.7325 69.3575 40.8036 69.3575 42.125Z" fill="white" stroke="white" stroke-width="1.75" mask="url(#path-4-inside-4_82_169)"/>
<path d="M27.125 1L25.8125 13.25H34.5625" stroke="white" stroke-width="0.875"/>
<path d="M26.6746 8.77259L27.0126 8.71459L27.037 8.37256L27.5324 1.4375H33.7176L34.213 8.37256L34.2374 8.71459L34.5754 8.77259C35.9745 9.0127 37.3307 9.37816 38.632 9.857L38.9535 9.97528L39.1454 9.69161L43.0405 3.93552L48.3971 7.02815L45.3571 13.2848L45.2075 13.5927L45.4703 13.812C46.5465 14.7099 47.5401 15.7035 48.438 16.7797L48.6573 17.0425L48.9652 16.8929L55.2218 13.8529L58.3145 19.2095L56.1304 20.6874L45.9199 20.6875C42.5095 15.9267 36.9297 12.8231 30.625 12.8231C20.241 12.8231 11.8231 21.241 11.8231 31.625C11.8231 42.009 20.241 50.4269 30.625 50.4269C36.9297 50.4269 42.5095 47.3233 45.9199 42.5625H56.1303L58.3145 44.0405L55.2218 49.3971L48.9652 46.3571L48.6573 46.2075L48.438 46.4703C47.5401 47.5466 46.5465 48.5402 45.4702 49.4381L45.2074 49.6574L45.357 49.9652L48.397 56.2218L43.0404 59.3145L39.1454 53.5584L38.9534 53.2747L38.632 53.393C37.3306 53.8718 35.9745 54.2373 34.5754 54.4774L34.2374 54.5354L34.213 54.8774L33.7176 61.8125H27.5324L27.037 54.8774L27.0126 54.5354L26.6746 54.4774C25.2755 54.2373 23.9193 53.8718 22.618 53.393L22.2965 53.2747L22.1046 53.5584L18.2095 59.3145L12.8529 56.2218L15.8929 49.9652L16.0425 49.6573L15.7797 49.438C14.7035 48.5401 13.7098 47.5465 12.8119 46.4702L12.5926 46.2074L12.2848 46.357L6.02815 49.397L2.93552 44.0404L8.69158 40.1454L8.97526 39.9534L8.85698 39.632C8.37815 38.3306 8.0127 36.9745 7.77259 35.5754L7.71459 35.2374L7.37256 35.213L0.4375 34.7176V28.5324L7.37256 28.037L7.71459 28.0126L7.77259 27.6746C8.0127 26.2755 8.37816 24.9193 8.857 23.618L8.97528 23.2965L8.69161 23.1046L2.93552 19.2095L6.02816 13.8529L12.2848 16.8929L12.5927 17.0425L12.812 16.7797C13.7099 15.7035 14.7035 14.7098 15.7798 13.8119L16.0426 13.5926L15.893 13.2848L12.853 7.02815L18.2096 3.93552L22.1046 9.69158L22.2966 9.97526L22.618 9.85698C23.9194 9.37815 25.2755 9.0127 26.6746 8.77259Z" fill="white" stroke="white" stroke-width="0.875"/>
<mask id="path-7-inside-5_82_169" fill="white">
<path fill-rule="evenodd" clip-rule="evenodd" d="M45.6262 26.8125C43.5924 20.4678 37.6451 15.875 30.625 15.875C21.9265 15.875 14.875 22.9265 14.875 31.625C14.875 40.3235 21.9265 47.375 30.625 47.375C37.6451 47.375 43.5924 42.7822 45.6262 36.4375H42.6211C40.7125 41.1907 36.0607 44.547 30.625 44.547C23.4884 44.547 17.703 38.7616 17.703 31.625C17.703 24.4884 23.4884 18.703 30.625 18.703C36.0607 18.703 40.7125 22.0593 42.6211 26.8125L45.6262 26.8125Z"/>
</mask>
<path fill-rule="evenodd" clip-rule="evenodd" d="M45.6262 26.8125C43.5924 20.4678 37.6451 15.875 30.625 15.875C21.9265 15.875 14.875 22.9265 14.875 31.625C14.875 40.3235 21.9265 47.375 30.625 47.375C37.6451 47.375 43.5924 42.7822 45.6262 36.4375H42.6211C40.7125 41.1907 36.0607 44.547 30.625 44.547C23.4884 44.547 17.703 38.7616 17.703 31.625C17.703 24.4884 23.4884 18.703 30.625 18.703C36.0607 18.703 40.7125 22.0593 42.6211 26.8125L45.6262 26.8125Z" fill="white"/>
<path d="M45.6262 26.8125V27.6875L46.8255 27.6875L46.4594 26.5454L45.6262 26.8125ZM45.6262 36.4375L46.4594 36.7046L46.8255 35.5625H45.6262V36.4375ZM42.6211 36.4375V35.5625H42.0295L41.8091 36.1115L42.6211 36.4375ZM42.6211 26.8125L41.8091 27.1385L42.0295 27.6875L42.6211 27.6875V26.8125ZM30.625 16.75C37.2537 16.75 42.8719 21.0865 44.793 27.0796L46.4594 26.5454C44.3129 19.8491 38.0364 15 30.625 15V16.75ZM15.75 31.625C15.75 23.4098 22.4098 16.75 30.625 16.75V15C21.4433 15 14 22.4433 14 31.625H15.75ZM30.625 46.5C22.4098 46.5 15.75 39.8402 15.75 31.625H14C14 40.8067 21.4433 48.25 30.625 48.25V46.5ZM44.793 36.1704C42.8719 42.1635 37.2537 46.5 30.625 46.5V48.25C38.0364 48.25 44.3129 43.4009 46.4594 36.7046L44.793 36.1704ZM45.6262 35.5625H42.6211V37.3125H45.6262V35.5625ZM30.625 45.422C36.4301 45.422 41.3958 41.8371 43.4331 36.7635L41.8091 36.1115C40.0291 40.5444 35.6912 43.672 30.625 43.672V45.422ZM16.828 31.625C16.828 39.2449 23.0051 45.422 30.625 45.422V43.672C23.9716 43.672 18.578 38.2784 18.578 31.625H16.828ZM30.625 17.828C23.0051 17.828 16.828 24.0051 16.828 31.625H18.578C18.578 24.9716 23.9716 19.578 30.625 19.578V17.828ZM43.4331 26.4865C41.3958 21.4129 36.4301 17.828 30.625 17.828V19.578C35.6912 19.578 40.0291 22.7056 41.8091 27.1385L43.4331 26.4865ZM42.6211 27.6875L45.6262 27.6875V25.9375L42.6211 25.9375V27.6875Z" fill="white" mask="url(#path-7-inside-5_82_169)"/>
<mask id="path-9-inside-6_82_169" fill="white">
<path fill-rule="evenodd" clip-rule="evenodd" d="M39.2182 27.2848C37.6315 24.1494 34.3792 22 30.625 22C25.3093 22 21 26.3093 21 31.625C21 36.9407 25.3093 41.25 30.625 41.25C34.3653 41.25 37.6073 39.1165 39.2005 36.0001H36.0424C34.7659 37.5787 32.8133 38.5882 30.625 38.5882C26.7793 38.5882 23.6618 35.4707 23.6618 31.625C23.6618 27.7793 26.7793 24.6618 30.625 24.6618C32.8448 24.6618 34.822 25.7005 36.0971 27.3184L39.2182 27.2848Z"/>
</mask>
<path fill-rule="evenodd" clip-rule="evenodd" d="M39.2182 27.2848C37.6315 24.1494 34.3792 22 30.625 22C25.3093 22 21 26.3093 21 31.625C21 36.9407 25.3093 41.25 30.625 41.25C34.3653 41.25 37.6073 39.1165 39.2005 36.0001H36.0424C34.7659 37.5787 32.8133 38.5882 30.625 38.5882C26.7793 38.5882 23.6618 35.4707 23.6618 31.625C23.6618 27.7793 26.7793 24.6618 30.625 24.6618C32.8448 24.6618 34.822 25.7005 36.0971 27.3184L39.2182 27.2848Z" fill="white"/>
<path d="M39.2182 27.2848L39.2276 28.1597L40.634 28.1445L39.9989 26.8896L39.2182 27.2848ZM39.2005 36.0001L39.9796 36.3983L40.6305 35.1251H39.2005V36.0001ZM36.0424 36.0001V35.1251H35.6247L35.362 35.4499L36.0424 36.0001ZM36.0971 27.3184L35.4099 27.86L35.6762 28.198L36.1066 28.1934L36.0971 27.3184ZM30.625 22.875C34.0367 22.875 36.9939 24.8274 38.4375 27.6799L39.9989 26.8896C38.269 23.4714 34.7218 21.125 30.625 21.125V22.875ZM21.875 31.625C21.875 26.7925 25.7925 22.875 30.625 22.875V21.125C24.826 21.125 20.125 25.826 20.125 31.625H21.875ZM30.625 40.375C25.7925 40.375 21.875 36.4575 21.875 31.625H20.125C20.125 37.424 24.826 42.125 30.625 42.125V40.375ZM38.4214 35.6018C36.972 38.4371 34.024 40.375 30.625 40.375V42.125C34.7066 42.125 38.2427 39.7959 39.9796 36.3983L38.4214 35.6018ZM39.2005 35.1251H36.0424V36.8751H39.2005V35.1251ZM30.625 39.4632C33.0887 39.4632 35.2873 38.3255 36.7228 36.5502L35.362 35.4499C34.2445 36.832 32.538 37.7132 30.625 37.7132V39.4632ZM22.7868 31.625C22.7868 35.9539 26.2961 39.4632 30.625 39.4632V37.7132C27.2626 37.7132 24.5368 34.9874 24.5368 31.625H22.7868ZM30.625 23.7868C26.2961 23.7868 22.7868 27.2961 22.7868 31.625H24.5368C24.5368 28.2626 27.2626 25.5368 30.625 25.5368V23.7868ZM36.7843 26.7768C35.3505 24.9574 33.1242 23.7868 30.625 23.7868V25.5368C32.5654 25.5368 34.2936 26.4436 35.4099 27.86L36.7843 26.7768ZM36.1066 28.1934L39.2276 28.1597L39.2087 26.4098L36.0877 26.4435L36.1066 28.1934Z" fill="white" mask="url(#path-9-inside-6_82_169)"/>
<path d="M33.25 31.625H61.25" stroke="white" stroke-width="2.625"/>
<path d="M43.75 25.5H58.4989L62.4635 21.125H77" stroke="white" stroke-width="2.625"/>
<path d="M42.875 37.75H57.5235L61.461 42.125H68.0235" stroke="white" stroke-width="2.625"/>
</svg>
