<svg width="74" height="74" viewBox="0 0 74 74" fill="none" xmlns="http://www.w3.org/2000/svg">
<path d="M65 36.9999C65 52.4639 52.464 64.9999 37 64.9999C21.536 64.9999 9 52.4639 9 36.9999C9 21.536 21.536 8.99994 37 8.99994C52.464 8.99994 65 21.536 65 36.9999ZM16.7502 36.9999C16.7502 48.1836 25.8163 57.2498 37 57.2498C48.1837 57.2498 57.2498 48.1836 57.2498 36.9999C57.2498 25.8163 48.1837 16.7501 37 16.7501C25.8163 16.7501 16.7502 25.8163 16.7502 36.9999Z" fill="#32428B"/>
<path d="M33 0H41L42 14C38.0794 13.4601 35.9159 13.4387 32 14L33 0Z" fill="#32428B"/>
<path d="M6.95706 58.9641L2.95706 52.0359L14.5814 44.1699C16.0741 47.8352 17.1374 49.7195 19.5814 52.8301L6.95706 58.9641Z" fill="#32428B"/>
<path d="M21.9641 71.043L15.0359 67.043L21.1699 54.4186C24.2952 56.8465 26.1583 57.9468 29.8301 59.4186L21.9641 71.043Z" fill="#32428B"/>
<path d="M15.0359 6.95709L21.9641 2.95709L29.8301 14.5814C26.1648 16.0741 24.2805 17.1374 21.1699 19.5814L15.0359 6.95709Z" fill="#32428B"/>
<path d="M2.95706 21.9641L6.95706 15.0359L19.5814 21.1699C17.1535 24.2952 16.0533 26.1583 14.5814 29.8301L2.95706 21.9641Z" fill="#32428B"/>
<path d="M33 74H41L42 60C38.0794 60.5399 35.9159 60.5613 32 60L33 74Z" fill="#32428B"/>
<path d="M71.0429 21.9641L67.0429 15.0359L54.4186 21.1699C56.8465 24.2952 57.9467 26.1583 59.4186 29.8301L71.0429 21.9641Z" fill="#32428B"/>
<path d="M58.9641 6.95709L52.0359 2.95709L44.1699 14.5814C47.8352 16.0741 49.7195 17.1374 52.8301 19.5814L58.9641 6.95709Z" fill="#32428B"/>
<path d="M52.0359 71.043L58.9641 67.043L52.8301 54.4186C49.7048 56.8465 47.8417 57.9468 44.1699 59.4186L52.0359 71.043Z" fill="#32428B"/>
<path d="M67.0429 58.9641L71.0429 52.0359L59.4186 44.1699C57.9259 47.8352 56.8626 49.7195 54.4186 52.8301L67.0429 58.9641Z" fill="#32428B"/>
<path d="M-4.37114e-08 33L-3.93402e-07 41L14 42C13.4601 38.0794 13.4387 35.9159 14 32L-4.37114e-08 33Z" fill="#32428B"/>
<path d="M74 33L74 41L60 42C60.5399 38.0794 60.5613 35.9159 60 32L74 33Z" fill="#32428B"/>
<path d="M54 37C54 46.3888 46.3888 54 37 54C27.6112 54 20 46.3888 20 37C20 27.6112 27.6112 20 37 20C46.3888 20 54 27.6112 54 37ZM23.009 37C23.009 44.727 29.273 50.991 37 50.991C44.727 50.991 50.991 44.727 50.991 37C50.991 29.273 44.727 23.009 37 23.009C29.273 23.009 23.009 29.273 23.009 37Z" fill="#2FD385"/>
<path d="M48 37C48 43.0751 43.0751 48 37 48C30.9249 48 26 43.0751 26 37C26 30.9249 30.9249 26 37 26C43.0751 26 48 30.9249 48 37ZM29.0153 37C29.0153 41.4098 32.5902 44.9847 37 44.9847C41.4098 44.9847 44.9847 41.4098 44.9847 37C44.9847 32.5902 41.4098 29.0153 37 29.0153C32.5902 29.0153 29.0153 32.5902 29.0153 37Z" fill="#32428B"/>
<path d="M42 37C42 39.7614 39.7614 42 37 42C34.2386 42 32 39.7614 32 37C32 34.2386 34.2386 32 37 32C39.7614 32 42 34.2386 42 37ZM34.7562 37C34.7562 38.2392 35.7608 39.2438 37 39.2438C38.2392 39.2438 39.2438 38.2392 39.2438 37C39.2438 35.7608 38.2392 34.7562 37 34.7562C35.7608 34.7562 34.7562 35.7608 34.7562 37Z" fill="#2FD385"/>
</svg>
