<svg width="99" height="74" viewBox="0 0 99 74" fill="none" xmlns="http://www.w3.org/2000/svg">
<path d="M33 0H41L42 14C38.0794 13.4601 35.9159 13.4387 32 14L33 0Z" fill="#32428B"/>
<path d="M6.95706 58.9641L2.95706 52.0359L14.5814 44.1699C16.0741 47.8352 17.1374 49.7195 19.5814 52.8301L6.95706 58.9641Z" fill="#32428B"/>
<path d="M21.9641 71.043L15.0359 67.043L21.1699 54.4186C24.2952 56.8465 26.1582 57.9468 29.8301 59.4186L21.9641 71.043Z" fill="#32428B"/>
<path d="M15.0359 6.95709L21.9641 2.95709L29.8301 14.5814C26.1648 16.0741 24.2805 17.1374 21.1699 19.5814L15.0359 6.95709Z" fill="#32428B"/>
<path d="M2.95706 21.9641L6.95706 15.0359L19.5814 21.1699C17.1535 24.2952 16.0533 26.1583 14.5814 29.8301L2.95706 21.9641Z" fill="#32428B"/>
<path d="M33 74H41L42 60C38.0794 60.5399 35.9159 60.5613 32 60L33 74Z" fill="#32428B"/>
<path d="M58.9641 6.95709L52.0359 2.95709L44.1699 14.5814C47.8352 16.0741 49.7195 17.1374 52.8301 19.5814L58.9641 6.95709Z" fill="#32428B"/>
<path d="M52.0359 71.043L58.9641 67.043L52.8301 54.4186C49.7048 56.8465 47.8417 57.9468 44.1699 59.4186L52.0359 71.043Z" fill="#32428B"/>
<path d="M-4.37114e-08 33L-3.93402e-07 41L14 42C13.4601 38.0794 13.4387 35.9159 14 32L-4.37114e-08 33Z" fill="#32428B"/>
<path d="M42 37C42 39.7614 39.7614 42 37 42C34.2386 42 32 39.7614 32 37C32 34.2386 34.2386 32 37 32C39.7614 32 42 34.2386 42 37ZM34.7562 37C34.7562 38.2392 35.7608 39.2438 37 39.2438C38.2392 39.2438 39.2438 38.2392 39.2438 37C39.2438 35.7608 38.2392 34.7562 37 34.7562C35.7608 34.7562 34.7562 35.7608 34.7562 37Z" fill="#2FD385"/>
<path d="M98.7562 23.5C98.7562 26.2614 96.5176 28.5 93.7562 28.5C90.9948 28.5 88.7562 26.2614 88.7562 23.5C88.7562 20.7386 90.9948 18.5 93.7562 18.5C96.5176 18.5 98.7562 20.7386 98.7562 23.5ZM91.5124 23.5C91.5124 24.7392 92.517 25.7438 93.7562 25.7438C94.9954 25.7438 96 24.7392 96 23.5C96 22.2608 94.9954 21.2562 93.7562 21.2562C92.517 21.2562 91.5124 22.2608 91.5124 23.5Z" fill="#2FD385"/>
<path d="M90.5131 50.5C90.5131 53.2614 88.2745 55.5 85.5131 55.5C82.7517 55.5 80.5131 53.2614 80.5131 50.5C80.5131 47.7386 82.7517 45.5 85.5131 45.5C88.2745 45.5 90.5131 47.7386 90.5131 50.5ZM83.2693 50.5C83.2693 51.7392 84.2739 52.7438 85.5131 52.7438C86.7523 52.7438 87.7569 51.7392 87.7569 50.5C87.7569 49.2608 86.7523 48.2562 85.5131 48.2562C84.2739 48.2562 83.2693 49.2608 83.2693 50.5Z" fill="#2FD385"/>
<path d="M81 37C81 39.7614 78.7614 42 76 42C73.2386 42 71 39.7614 71 37C71 34.2386 73.2386 32 76 32C78.7614 32 81 34.2386 81 37ZM73.7562 37C73.7562 38.2392 74.7608 39.2438 76 39.2438C77.2392 39.2438 78.2438 38.2392 78.2438 37C78.2438 35.7608 77.2392 34.7562 76 34.7562C74.7608 34.7562 73.7562 35.7608 73.7562 37Z" fill="#2FD385"/>
<path fill-rule="evenodd" clip-rule="evenodd" d="M61.8056 24C57.1225 15.0824 47.7716 8.99994 37 8.99994C21.536 8.99994 9 21.536 9 36.9999C9 52.4639 21.536 64.9999 37 64.9999C47.7715 64.9999 57.1225 58.9176 61.8056 50H52.5265C48.8119 54.4318 43.2351 57.2498 37 57.2498C25.8163 57.2498 16.7502 48.1836 16.7502 36.9999C16.7502 25.8163 25.8163 16.7501 37 16.7501C43.2351 16.7501 48.812 19.5681 52.5266 24H61.8056Z" fill="#32428B"/>
<path fill-rule="evenodd" clip-rule="evenodd" d="M67.0429 15.0359L71.0429 21.9641L68.0343 24H56.4746C55.8956 23.1213 55.2315 22.2163 54.4186 21.1699L67.0429 15.0359Z" fill="#32428B"/>
<path fill-rule="evenodd" clip-rule="evenodd" d="M56.4805 50C55.903 50.881 55.2385 51.7866 54.4186 52.8301L67.0429 58.9641L71.0429 52.0359L68.0343 50H56.4805Z" fill="#32428B"/>
<path d="M41 37H52H72" stroke="#2FD385" stroke-width="3"/>
<path d="M50 29.5H69L75.5 23.5H91.5" stroke="#2FD385" stroke-width="3"/>
<path d="M50 44.5H69L75.5 50.5H81" stroke="#2FD385" stroke-width="3"/>
<path fill-rule="evenodd" clip-rule="evenodd" d="M52.9109 31C50.4856 24.5719 44.2767 20 37 20C27.6112 20 20 27.6112 20 37C20 46.3888 27.6112 54 37 54C44.2767 54 50.4856 49.4281 52.9109 43H49.6428C47.3965 47.7248 42.5797 50.991 37 50.991C29.273 50.991 23.009 44.727 23.009 37C23.009 29.273 29.273 23.009 37 23.009C42.5797 23.009 47.3965 26.2752 49.6428 31H52.9109Z" fill="#2FD385"/>
<path fill-rule="evenodd" clip-rule="evenodd" d="M46.2211 31C44.2584 27.9898 40.8616 26 37 26C30.9249 26 26 30.9249 26 37C26 43.0751 30.9249 48 37 48C40.8616 48 44.2584 46.0102 46.2211 43H42.2685C40.8625 44.2355 39.0188 44.9847 37 44.9847C32.5902 44.9847 29.0153 41.4098 29.0153 37C29.0153 32.5902 32.5902 29.0153 37 29.0153C39.0188 29.0153 40.8625 29.7645 42.2685 31H46.2211Z" fill="#32428B"/>
</svg>
