<svg width="657" height="509" viewBox="0 0 657 509" fill="none" xmlns="http://www.w3.org/2000/svg">
<path d="M114.428 339C114.428 365.746 92.7462 387.428 65.9999 387.428C39.2535 387.428 17.5713 365.746 17.5713 339C17.5713 312.254 39.2535 290.571 65.9999 290.571C92.7462 290.571 114.428 312.254 114.428 339ZM39.516 339C39.516 353.627 51.3732 365.484 65.9999 365.484C80.6265 365.484 92.4838 353.627 92.4838 339C92.4838 324.373 80.6265 312.516 65.9999 312.516C51.3732 312.516 39.516 324.373 39.516 339Z" fill="#EEEEEE"/>
<path d="M492.172 339C492.172 365.746 470.489 387.428 443.743 387.428C416.997 387.428 395.314 365.746 395.314 339C395.314 312.254 416.997 290.571 443.743 290.571C470.489 290.571 492.172 312.254 492.172 339ZM417.259 339C417.259 353.627 429.116 365.484 443.743 365.484C458.37 365.484 470.227 353.627 470.227 339C470.227 324.373 458.37 312.516 443.743 312.516C429.116 312.516 417.259 324.373 417.259 339Z" fill="#EEEEEE"/>
<path d="M656.829 222.771C656.829 249.518 635.146 271.2 608.4 271.2C581.654 271.2 559.971 249.518 559.971 222.771C559.971 196.025 581.654 174.343 608.4 174.343C635.146 174.343 656.829 196.025 656.829 222.771ZM581.916 222.771C581.916 237.398 593.773 249.255 608.4 249.255C623.027 249.255 634.884 237.398 634.884 222.771C634.884 208.145 623.027 196.287 608.4 196.287C593.773 196.287 581.916 208.145 581.916 222.771Z" fill="#EEEEEE"/>
<path d="M569.657 455.229C569.657 481.975 547.975 503.657 521.229 503.657C494.482 503.657 472.8 481.975 472.8 455.229C472.8 428.482 494.482 406.8 521.229 406.8C547.975 406.8 569.657 428.482 569.657 455.229ZM494.745 455.229C494.745 469.855 506.602 481.713 521.229 481.713C535.855 481.713 547.713 469.855 547.713 455.229C547.713 440.602 535.855 428.745 521.229 428.745C506.602 428.745 494.745 440.602 494.745 455.229Z" fill="#EEEEEE"/>
<path d="M104.743 0H27.2572L21.4525 81.2647C5.67204 83.9729 -9.62531 88.0952 -24.3044 93.4964L-69.9472 26.0457L-137.052 64.7886L-101.43 138.101C-113.567 148.227 -124.772 159.432 -134.898 171.569L-208.211 135.947L-246.954 203.052L-179.503 248.695C-184.905 263.374 -189.027 278.672 -191.735 294.453L-273 300.257V377.743L-191.735 383.547C-189.027 399.328 -184.905 414.625 -179.504 429.304L-246.954 474.947L-208.211 542.052L-134.899 506.43C-124.773 518.567 -113.568 529.772 -101.431 539.898L-137.053 613.211L-69.9482 651.954L-24.3051 584.503C-9.62581 589.905 5.67178 594.027 21.4525 596.735L27.2572 678H104.743L110.547 596.735C126.328 594.027 141.625 589.905 156.304 584.504L201.947 651.954L269.052 613.211L233.43 539.899C245.567 529.773 256.772 518.568 266.898 506.431L340.211 542.053L378.954 474.948L349.812 455.229H232.799C196.06 507.855 135.05 542.283 66 542.283C-46.2698 542.283 -137.283 451.27 -137.283 339C-137.283 226.73 -46.2698 135.717 66 135.717C135.05 135.717 196.06 170.145 232.799 222.771L349.814 222.771L378.954 203.052L340.211 135.948L266.898 171.569C256.772 159.433 245.568 148.228 233.431 138.102L269.053 64.7886L201.948 26.0457L156.305 93.4967C141.626 88.0953 126.328 83.973 110.547 81.2647L104.743 0Z" fill="#EEEEEE"/>
<path fill-rule="evenodd" clip-rule="evenodd" d="M232.054 285.729C209.541 215.497 143.708 164.657 66.0001 164.657C-30.2868 164.657 -108.343 242.713 -108.343 339C-108.343 435.287 -30.2868 513.343 66.0001 513.343C143.708 513.343 209.541 462.504 232.054 392.271H198.79C177.662 444.887 126.17 482.039 66.0001 482.039C-12.9979 482.039 -77.0384 417.998 -77.0384 339C-77.0384 260.002 -12.9979 195.962 66.0001 195.962C126.17 195.962 177.662 233.113 198.789 285.729L232.054 285.729Z" fill="#EEEEEE"/>
<path fill-rule="evenodd" clip-rule="evenodd" d="M161.121 290.956C143.557 256.25 107.557 232.457 65.9999 232.457C7.15789 232.457 -40.543 280.158 -40.543 339C-40.543 397.842 7.15789 445.543 65.9999 445.543C107.403 445.543 143.29 421.926 160.925 387.429H125.967C111.837 404.904 90.2234 416.078 65.9999 416.078C23.4306 416.078 -11.0786 381.569 -11.0786 339C-11.0786 296.431 23.4306 261.921 65.9999 261.921C90.5721 261.921 112.459 273.42 126.573 291.329L161.121 290.956Z" fill="#EEEEEE"/>
<path d="M95.0571 339H405" stroke="#EEEEEE" stroke-width="29.0571"/>
<path d="M211.286 271.2H374.547L418.432 222.771H579.343" stroke="#EEEEEE" stroke-width="29.0571"/>
<path d="M201.6 406.8H363.749L407.335 455.229H479.978" stroke="#EEEEEE" stroke-width="29.0571"/>
</svg>
