<svg width="78" height="77" viewBox="0 0 78 77" fill="none" xmlns="http://www.w3.org/2000/svg">
<path d="M56.8205 0H13.6234C12.3389 0 11.2832 0.924 11.2832 2.0482V41H15.9636V4.0964H56.8205V18.2952H73.0437V72.9036H15.9636V65.2344H11.2832V74.9518C11.2832 76.076 12.3389 77 13.6234 77H75.3839C76.6683 77 77.7241 76.076 77.7241 74.9518V18.2952L56.8205 0Z" fill="#2FD385"/>
<path fill-rule="evenodd" clip-rule="evenodd" d="M56.1577 43H0V63.2193H47.6968L56.1577 43ZM11.9165 48.076V59H13.7198V54.4396H14.0924C14.5097 54.4396 14.8127 54.4818 15.0015 54.5663C15.1903 54.6458 15.3691 54.7948 15.538 55.0134C15.7069 55.227 16.0273 55.7635 16.4993 56.6229L17.8108 59H19.9643L18.8763 56.8688C18.4392 56.0144 18.0939 55.4232 17.8406 55.0954C17.5872 54.7625 17.2668 54.457 16.8793 54.1788C17.6344 54.0447 18.2156 53.7168 18.623 53.1952C19.0353 52.6736 19.2415 51.9856 19.2415 51.1311C19.2415 50.4555 19.1073 49.8768 18.8391 49.3949C18.5708 48.9081 18.228 48.5678 17.8108 48.374C17.3935 48.1753 16.698 48.076 15.7243 48.076H11.9165ZM15.0611 52.6959H13.7198V49.924H15.1356C15.9454 49.924 16.4347 49.9513 16.6036 50.0059C16.8421 50.0854 17.0308 50.232 17.1699 50.4456C17.309 50.6542 17.3786 50.9324 17.3786 51.2801C17.3786 51.6428 17.309 51.9334 17.1699 52.152C17.0308 52.3706 16.8495 52.5171 16.626 52.5916C16.4024 52.6612 15.8808 52.6959 15.0611 52.6959ZM28.4242 59H30.3914L26.8072 48.076H24.8922L21.4048 59H23.3273L24.065 56.5186H27.6418L28.4242 59ZM25.8311 50.6244L27.0606 54.6781H24.6165L25.8311 50.6244ZM32.7262 48.076V59H34.5295V54.4396H34.902C35.3193 54.4396 35.6224 54.4818 35.8111 54.5663C35.9999 54.6458 36.1787 54.7948 36.3476 55.0134C36.5166 55.227 36.837 55.7635 37.3089 56.6229L38.6204 59H40.7739L39.686 56.8688C39.2488 56.0144 38.9035 55.4232 38.6502 55.0954C38.3968 54.7625 38.0764 54.457 37.6889 54.1788C38.444 54.0447 39.0253 53.7168 39.4326 53.1952C39.8449 52.6736 40.0511 51.9856 40.0511 51.1311C40.0511 50.4555 39.917 49.8768 39.6487 49.3949C39.3804 48.9081 39.0377 48.5678 38.6204 48.374C38.2031 48.1753 37.5076 48.076 36.5339 48.076H32.7262ZM35.8707 52.6959H34.5295V49.924H35.9453C36.755 49.924 37.2443 49.9513 37.4132 50.0059C37.6517 50.0854 37.8405 50.232 37.9795 50.4456C38.1186 50.6542 38.1882 50.9324 38.1882 51.2801C38.1882 51.6428 38.1186 51.9334 37.9795 52.152C37.8405 52.3706 37.6591 52.5171 37.4356 52.5916C37.212 52.6612 36.6904 52.6959 35.8707 52.6959Z" fill="#2FD385"/>
<path fill-rule="evenodd" clip-rule="evenodd" d="M31 17C33.2091 17 35 15.2091 35 13C35 10.7909 33.2091 3 31 3C28.7909 3 27 10.7909 27 13C27 15.2091 28.7909 17 31 17ZM31 15.25C32.3255 15.25 33.4 14.0747 33.4 12.625C33.4 11.1753 32.3255 10 31 10C29.6745 10 28.6 11.1753 28.6 12.625C28.6 14.0747 29.6745 15.25 31 15.25Z" fill="#2FD385"/>
<path d="M29 21C29 19.8954 29.8954 19 31 19V19C32.1046 19 33 19.8954 33 21V23C33 24.1046 32.1046 25 31 25V25C29.8954 25 29 24.1046 29 23V21Z" fill="#2FD385"/>
<path d="M29 29C29 27.8954 29.8954 27 31 27V27C32.1046 27 33 27.8954 33 29V31C33 32.1046 32.1046 33 31 33V33C29.8954 33 29 32.1046 29 31V29Z" fill="#2FD385"/>
<path d="M29 37C29 35.8954 29.8954 35 31 35V35C32.1046 35 33 35.8954 33 37V39C33 40.1046 32.1046 41 31 41V41C29.8954 41 29 40.1046 29 39V37Z" fill="#2FD385"/>
</svg>
