<?xml version="1.0" encoding="utf-8"?>
<!-- Generator: Adobe Illustrator 23.0.3, SVG Export Plug-In . SVG Version: 6.00 Build 0)  -->
<svg version="1.1" id="Слой_1" xmlns="http://www.w3.org/2000/svg" xmlns:xlink="http://www.w3.org/1999/xlink" x="0px" y="0px"
	 viewBox="0 0 78 77" style="enable-background:new 0 0 78 77;" xml:space="preserve">
<style type="text/css">
	.st0{fill:#FFFFFF;}
	.st1{fill:#FFFFFF;stroke:#FFFFFF;stroke-width:2;}
	.st2{fill-rule:evenodd;clip-rule:evenodd;fill:#FFFFFF;}
</style>
<path class="st0" d="M56.8,0H13.6c-1.3,0-2.3,0.9-2.3,2v39H16V4.1h40.9v14.2H73v54.6H16v-7.7h-4.7V75c0,1.1,1.1,2,2.3,2h61.8
	c1.3,0,2.3-0.9,2.3-2V18.3L56.8,0z"/>
<rect x="23" y="22" class="st1" width="41" height="16"/>
<line class="st1" x1="22" y1="30" x2="64" y2="30"/>
<path class="st1" d="M31,21v17.5 M39,21v17.5 M47.5,21v17.5 M56,21.5V39"/>
<path class="st2" d="M56.2,43H0v20.2h47.7L56.2,43z M19.4,55.7L17.6,55c-0.2,0.8-0.4,1.4-0.8,1.8c-0.3,0.4-0.8,0.6-1.2,0.6
	c-0.7,0-1.2-0.3-1.6-0.9c-0.4-0.6-0.6-1.6-0.6-2.9c0-1.3,0.2-2.3,0.6-2.9c0.4-0.6,1-0.9,1.6-0.9c0.5,0,0.9,0.2,1.2,0.5
	s0.6,0.8,0.7,1.4l1.8-0.5c-0.2-1-0.6-1.7-1.1-2.2c-0.7-0.7-1.5-1-2.5-1c-1.2,0-2.2,0.5-2.9,1.4c-0.8,1.1-1.3,2.5-1.3,4.4
	c0,1.8,0.4,3.2,1.3,4.2c0.7,0.9,1.7,1.3,2.8,1.3c0.9,0,1.7-0.3,2.3-0.8C18.7,57.8,19.1,56.9,19.4,55.7z M23.6,55.2l-1.8,0.2
	c0.2,2.5,1.5,3.7,3.7,3.7c1.2,0,2.2-0.3,2.7-1c0.6-0.6,0.9-1.4,0.9-2.4c0-0.7-0.1-1.2-0.3-1.7c-0.2-0.5-0.5-0.8-0.9-1.1
	s-1.1-0.6-2-0.8s-1.4-0.5-1.6-0.7s-0.4-0.5-0.4-0.8s0.1-0.6,0.4-0.8s0.6-0.3,1.1-0.3s0.9,0.1,1.1,0.4c0.3,0.2,0.4,0.6,0.5,1.2
	l1.8-0.1c0-1.1-0.3-1.9-0.9-2.5s-1.4-0.9-2.5-0.9c-0.7,0-1.3,0.1-1.8,0.4s-0.9,0.6-1.1,1.1c-0.3,0.5-0.4,1-0.4,1.6
	c0,0.5,0.1,1,0.3,1.4c0.2,0.4,0.5,0.8,0.9,1.1s0.9,0.5,1.7,0.8c0.9,0.3,1.4,0.5,1.6,0.6s0.4,0.3,0.5,0.4c0.1,0.2,0.2,0.4,0.2,0.6
	c0,0.4-0.2,0.8-0.5,1.1s-0.7,0.4-1.3,0.4C24.5,57.3,23.8,56.6,23.6,55.2z M31.1,48.1L34.3,59h1.9l3.2-10.9h-1.9l-2.2,8.1L33,48.1
	H31.1z"/>
</svg>
