<svg width="78" height="77" viewBox="0 0 78 77" fill="none" xmlns="http://www.w3.org/2000/svg">
<path d="M56.8205 0H13.6234C12.3389 0 11.2832 0.924 11.2832 2.0482V41H15.9636V4.0964H56.8205V18.2952H73.0437V72.9036H15.9636V65.2344H11.2832V74.9518C11.2832 76.076 12.3389 77 13.6234 77H75.3839C76.6683 77 77.7241 76.076 77.7241 74.9518V18.2952L56.8205 0Z" fill="#2FD385"/>
<path fill-rule="evenodd" clip-rule="evenodd" d="M56.1577 43H0V63.2193H47.6968L56.1577 43ZM14.0701 53.2995L11.0075 59H13.1759L15.1654 55.222L17.155 59H19.3383L16.2757 53.3815L19.0552 48.076H16.9613L15.2027 51.5857L13.4069 48.076H11.2906L14.0701 53.2995ZM21.6805 48.1654V59H27.9846V57.1595H23.4838V48.1654H21.6805ZM31.9587 55.2369L30.1926 55.4456C30.441 57.9444 31.6631 59.1937 33.8588 59.1937C35.1007 59.1937 36.0123 58.8708 36.5936 58.225C37.1797 57.5792 37.4728 56.7819 37.4728 55.8331C37.4728 55.1773 37.366 54.6209 37.1524 54.1639C36.9388 53.7019 36.6283 53.3269 36.221 53.0387C35.8186 52.7456 35.1628 52.4674 34.2537 52.2041C33.3943 51.9607 32.8454 51.7372 32.6069 51.5335C32.3685 51.3298 32.2493 51.079 32.2493 50.7809C32.2493 50.4779 32.3809 50.2245 32.6442 50.0208C32.9075 49.8171 33.2826 49.7153 33.7694 49.7153C34.2562 49.7153 34.6313 49.8321 34.8946 50.0655C35.1579 50.299 35.3293 50.7089 35.4087 51.295L37.2195 51.1982C37.1847 50.1351 36.8717 49.3179 36.2806 48.7466C35.6894 48.1753 34.8673 47.8897 33.8141 47.8897C33.1137 47.8897 32.525 48.0114 32.0481 48.2548C31.5712 48.4982 31.1961 48.8584 30.9229 49.3353C30.6546 49.8122 30.5205 50.3487 30.5205 50.9448C30.5205 51.4565 30.6248 51.9359 30.8335 52.383C31.0471 52.8251 31.3327 53.1828 31.6904 53.456C32.0481 53.7292 32.6119 53.9826 33.3819 54.2161C34.2413 54.4794 34.7828 54.6681 35.0064 54.7824C35.2299 54.8917 35.3963 55.0333 35.5056 55.2071C35.6149 55.381 35.6696 55.5921 35.6696 55.8405C35.6696 56.2628 35.5131 56.618 35.2001 56.9061C34.8871 57.1893 34.4574 57.3308 33.911 57.3308C32.8081 57.3308 32.1574 56.6329 31.9587 55.2369Z" fill="#2FD385"/>
<rect x="23" y="22" width="41" height="16" stroke="#2FD385" stroke-width="2"/>
<line x1="22" y1="30" x2="64" y2="30" stroke="#2FD385" stroke-width="2"/>
<path d="M31 21L30.9999 38.5M39 21L39 38.5M47.5 21L47.5 38.5M56 21.5L56 39" stroke="#2FD385" stroke-width="2"/>
</svg>
