<svg width="78" height="77" viewBox="0 0 78 77" fill="none" xmlns="http://www.w3.org/2000/svg">
<path d="M56.8205 0H13.6234C12.3389 0 11.2832 0.924 11.2832 2.0482V41H15.9636V4.0964H56.8205V18.2952H73.0437V72.9036H15.9636V65.2344H11.2832V74.9518C11.2832 76.076 12.3389 77 13.6234 77H75.3839C76.6683 77 77.7241 76.076 77.7241 74.9518V18.2952L56.8205 0Z" fill="#2FD385"/>
<path fill-rule="evenodd" clip-rule="evenodd" d="M56.1577 43H0V63.2193H47.6968L56.1577 43ZM11.1341 57.0104V59H18.4143V57.1595H13.3174L18.2206 49.7898V48.076H11.6632V49.924H15.8435L11.1341 57.0104ZM20.8757 48.076V59H22.679V48.076H20.8757ZM25.7887 48.076V59H27.592V54.8793H28.7768C29.8697 54.8793 30.6397 54.7725 31.0868 54.5588C31.5339 54.3403 31.9065 53.9652 32.2046 53.4337C32.5026 52.8971 32.6517 52.234 32.6517 51.4441C32.6517 50.5747 32.4778 49.8643 32.13 49.3129C31.7873 48.7615 31.3501 48.4013 30.8186 48.2324C30.4857 48.1281 29.7778 48.076 28.6949 48.076H25.7887ZM27.592 53.0238V49.924H28.4713C29.2264 49.924 29.7207 49.9662 29.9542 50.0506C30.1877 50.1351 30.3839 50.3015 30.5429 50.5499C30.7018 50.7983 30.7813 51.1038 30.7813 51.4664C30.7813 51.8241 30.7043 52.1271 30.5503 52.3755C30.3963 52.6189 30.1976 52.7879 29.9542 52.8822C29.7157 52.9766 29.2612 53.0238 28.5905 53.0238H27.592Z" fill="#2FD385"/>
<path fill-rule="evenodd" clip-rule="evenodd" d="M31 17C33.2091 17 35 15.2091 35 13C35 10.7909 33.2091 3 31 3C28.7909 3 27 10.7909 27 13C27 15.2091 28.7909 17 31 17ZM31 15.25C32.3255 15.25 33.4 14.0747 33.4 12.625C33.4 11.1753 32.3255 10 31 10C29.6745 10 28.6 11.1753 28.6 12.625C28.6 14.0747 29.6745 15.25 31 15.25Z" fill="#2FD385"/>
<path d="M29 21C29 19.8954 29.8954 19 31 19V19C32.1046 19 33 19.8954 33 21V23C33 24.1046 32.1046 25 31 25V25C29.8954 25 29 24.1046 29 23V21Z" fill="#2FD385"/>
<path d="M29 29C29 27.8954 29.8954 27 31 27V27C32.1046 27 33 27.8954 33 29V31C33 32.1046 32.1046 33 31 33V33C29.8954 33 29 32.1046 29 31V29Z" fill="#2FD385"/>
<path d="M29 37C29 35.8954 29.8954 35 31 35V35C32.1046 35 33 35.8954 33 37V39C33 40.1046 32.1046 41 31 41V41C29.8954 41 29 40.1046 29 39V37Z" fill="#2FD385"/>
</svg>
